<svg width="65" height="38" viewBox="0 0 65 38" fill="none" xmlns="http://www.w3.org/2000/svg">
<g clip-path="url(#clip0_1332_2072)">
<path d="M30.7375 18.1459L22 23.3892L13.2625 18.1459C13.073 18.0321 12.8461 17.9984 12.6316 18.052C12.4172 18.1056 12.2329 18.2422 12.1192 18.4317C12.0055 18.6212 11.9717 18.8481 12.0253 19.0626C12.0789 19.277 12.2155 19.4613 12.405 19.575L21.5717 25.075C21.7013 25.1529 21.8496 25.194 22.0008 25.194C22.152 25.194 22.3004 25.1529 22.43 25.075L31.5967 19.575C31.7862 19.4613 31.9228 19.277 31.9764 19.0626C32.03 18.8481 31.9962 18.6212 31.8825 18.4317C31.7688 18.2422 31.5845 18.1056 31.37 18.052C31.1556 17.9984 30.9287 18.0321 30.7392 18.1459H30.7375Z" fill="#191919"/>
<path d="M30.7375 21.9525L22 27.195L13.2625 21.9525C13.1687 21.8962 13.0647 21.8589 12.9564 21.8428C12.8482 21.8267 12.7378 21.8321 12.6316 21.8586C12.5255 21.8852 12.4256 21.9324 12.3376 21.9975C12.2497 22.0627 12.1755 22.1445 12.1192 22.2383C12.0629 22.3322 12.0256 22.4362 12.0095 22.5444C11.9934 22.6527 11.9988 22.763 12.0253 22.8692C12.0789 23.0836 12.2155 23.268 12.405 23.3817L21.5717 28.8817C21.7013 28.9595 21.8496 29.0007 22.0008 29.0007C22.152 29.0007 22.3004 28.9595 22.43 28.8817L31.5967 23.3817C31.7862 23.268 31.9228 23.0836 31.9764 22.8692C32.03 22.6548 31.9962 22.4279 31.8825 22.2383C31.7688 22.0488 31.5845 21.9122 31.37 21.8586C31.1556 21.805 30.9287 21.8388 30.7392 21.9525H30.7375Z" fill="#191919"/>
<path d="M22 21.3107C21.5505 21.3105 21.1095 21.1881 20.7242 20.9566L12.4042 15.9641C12.281 15.89 12.179 15.7853 12.1082 15.6601C12.0375 15.535 12.0003 15.3937 12.0003 15.2499C12.0003 15.1061 12.0375 14.9648 12.1082 14.8396C12.179 14.7145 12.281 14.6098 12.4042 14.5357L20.7242 9.54322C21.1095 9.31174 21.5505 9.18945 22 9.18945C22.4495 9.18945 22.8905 9.31174 23.2758 9.54322L31.5958 14.5357C31.719 14.6098 31.821 14.7145 31.8918 14.8396C31.9625 14.9648 31.9997 15.1061 31.9997 15.2499C31.9997 15.3937 31.9625 15.535 31.8918 15.6601C31.821 15.7853 31.719 15.89 31.5958 15.9641L23.2758 20.9566C22.8905 21.1881 22.4495 21.3105 22 21.3107ZM14.4533 15.2499L21.5833 19.5274C21.7093 19.6027 21.8533 19.6425 22 19.6425C22.1467 19.6425 22.2907 19.6027 22.4167 19.5274L29.5467 15.2499L22.4167 10.9724C22.2907 10.8971 22.1467 10.8573 22 10.8573C21.8533 10.8573 21.7093 10.8971 21.5833 10.9724L14.4533 15.2499Z" fill="#191919"/>
</g>
<g clip-path="url(#clip1_1332_2072)">
<path d="M44.71 18.71L47.3 21.3C47.69 21.69 48.32 21.69 48.71 21.3L51.3 18.71C51.93 18.08 51.48 17 50.59 17H45.41C44.52 17 44.08 18.08 44.71 18.71Z" fill="#191919"/>
</g>
<defs>
<clipPath id="clip0_1332_2072">
<rect width="20" height="20" fill="white" transform="translate(12 9)"/>
</clipPath>
<clipPath id="clip1_1332_2072">
<rect width="24" height="24" fill="white" transform="translate(36 7)"/>
</clipPath>
</defs>
</svg>
