<svg width="50" height="50" viewBox="0 0 50 50" fill="none" xmlns="http://www.w3.org/2000/svg">
<path d="M16.5762 10.0807C20.4529 9.75734 23.5122 14.5649 24.5762 17.5351C25.6402 14.5649 28.6995 9.75734 32.5762 10.0807C34.6995 10.0807 37.0762 10.5434 38.5762 11.4689C40.2686 12.5131 40.5762 12.3944 42.0762 15.1708C43.0762 17.9472 43.121 20.0705 43.0762 22.1119C43.0762 25.3511 41.5762 29.5157 39.5762 31.8294C38.5762 32.9862 30.5762 39.2332 24.5762 40.1587C18.5762 39.2332 10.5762 32.9862 9.57621 31.8294C7.57621 29.5157 6.07621 25.3511 6.07621 22.1119C6.03144 20.0705 6.07621 17.9472 7.07621 15.1708C8.57621 12.3944 8.88384 12.5131 10.5762 11.4689C12.0762 10.5434 14.4529 10.0807 16.5762 10.0807Z" fill="#FFBBBB" stroke="#F09090" stroke-width="2.13" stroke-linecap="round" stroke-linejoin="round"/>
</svg>
