<svg width="87" height="124" viewBox="0 0 87 124" fill="none" xmlns="http://www.w3.org/2000/svg">
<path d="M16.9862 105.12C16.9862 104.96 17.0342 104.843 17.1302 104.768C17.2262 104.683 17.3489 104.64 17.4982 104.64C17.6475 104.64 17.7702 104.683 17.8662 104.768C17.9729 104.843 18.0262 104.96 18.0262 105.12V111.936C18.0369 112.469 18.1329 112.971 18.3142 113.44C18.4955 113.899 18.7355 114.341 19.0342 114.768C19.3329 115.184 19.6795 115.589 20.0742 115.984C20.4689 116.368 20.8902 116.741 21.3382 117.104C21.4662 117.211 21.5355 117.333 21.5462 117.472C21.5569 117.611 21.5195 117.739 21.4342 117.856C21.3489 117.973 21.2209 118.037 21.0502 118.048C20.8902 118.059 20.7355 118 20.5862 117.872C19.9142 117.307 19.3115 116.704 18.7782 116.064C18.2555 115.424 17.8395 114.768 17.5302 114.096C17.2529 114.768 16.8582 115.435 16.3462 116.096C15.8449 116.768 15.2529 117.392 14.5702 117.968C14.4209 118.107 14.2609 118.165 14.0902 118.144C13.9302 118.123 13.8075 118.053 13.7222 117.936C13.6369 117.819 13.6049 117.691 13.6262 117.552C13.6582 117.413 13.7329 117.285 13.8502 117.168C14.2769 116.805 14.6769 116.421 15.0502 116.016C15.4342 115.621 15.7702 115.2 16.0582 114.752C16.3462 114.304 16.5702 113.835 16.7302 113.344C16.9009 112.843 16.9862 112.315 16.9862 111.76V105.12ZM28.3302 111.056C28.3302 111.205 28.2822 111.323 28.1862 111.408C28.1009 111.483 27.9942 111.52 27.8662 111.52H25.5142V117.904C25.5142 118.064 25.4609 118.181 25.3542 118.256C25.2582 118.341 25.1355 118.384 24.9862 118.384C24.8369 118.384 24.7142 118.341 24.6182 118.256C24.5222 118.181 24.4742 118.064 24.4742 117.904V105.12C24.4742 104.96 24.5222 104.843 24.6182 104.768C24.7142 104.683 24.8369 104.64 24.9862 104.64C25.1355 104.64 25.2582 104.683 25.3542 104.768C25.4609 104.843 25.5142 104.96 25.5142 105.12V110.592H27.8662C27.9942 110.592 28.1009 110.635 28.1862 110.72C28.2822 110.795 28.3302 110.907 28.3302 111.056ZM36.6213 105.296C36.6213 105.445 36.5733 105.563 36.4773 105.648C36.392 105.723 36.2853 105.76 36.1573 105.76H33.4533V106.832C33.4533 107.387 33.5173 107.877 33.6453 108.304C33.784 108.731 33.9813 109.109 34.2373 109.44C34.504 109.771 34.8346 110.064 35.2293 110.32C35.624 110.576 36.0773 110.811 36.5893 111.024C36.92 111.163 37.0426 111.387 36.9573 111.696C36.9146 111.845 36.8293 111.952 36.7013 112.016C36.5733 112.08 36.4133 112.08 36.2213 112.016C35.8693 111.909 35.5226 111.755 35.1813 111.552C34.8506 111.339 34.5413 111.109 34.2533 110.864C33.976 110.608 33.7253 110.341 33.5013 110.064C33.288 109.787 33.1226 109.525 33.0053 109.28C32.8773 109.557 32.7013 109.84 32.4773 110.128C32.2533 110.416 31.9973 110.693 31.7093 110.96C31.4213 111.216 31.1013 111.451 30.7493 111.664C30.408 111.877 30.0453 112.048 29.6613 112.176C29.4693 112.24 29.3093 112.24 29.1813 112.176C29.0533 112.112 28.968 112.005 28.9253 111.856C28.8826 111.707 28.8933 111.573 28.9573 111.456C29.032 111.328 29.144 111.237 29.2933 111.184C29.7946 110.992 30.2373 110.768 30.6213 110.512C31.016 110.256 31.3413 109.963 31.5973 109.632C31.864 109.291 32.0666 108.907 32.2053 108.48C32.344 108.043 32.4133 107.547 32.4133 106.992V105.76H29.7093C29.5813 105.76 29.4693 105.723 29.3733 105.648C29.288 105.563 29.2453 105.445 29.2453 105.296C29.2453 105.147 29.288 105.035 29.3733 104.96C29.4693 104.875 29.5813 104.832 29.7093 104.832H36.1573C36.2853 104.832 36.392 104.875 36.4773 104.96C36.5733 105.035 36.6213 105.147 36.6213 105.296ZM31.1333 116.864C31.1333 116.992 31.1546 117.077 31.1973 117.12C31.2506 117.163 31.32 117.184 31.4053 117.184H41.5973C41.7253 117.184 41.832 117.221 41.9173 117.296C42.0133 117.381 42.0613 117.499 42.0613 117.648C42.0613 117.797 42.0133 117.909 41.9173 117.984C41.832 118.069 41.7253 118.112 41.5973 118.112H31.2453C30.9893 118.112 30.7813 118.075 30.6213 118C30.472 117.925 30.3546 117.829 30.2693 117.712C30.1946 117.595 30.1466 117.461 30.1253 117.312C30.104 117.163 30.0933 117.013 30.0933 116.864V114.432C30.0933 114.272 30.1413 114.155 30.2373 114.08C30.3333 113.995 30.456 113.952 30.6053 113.952C30.7546 113.952 30.8773 113.995 30.9733 114.08C31.08 114.155 31.1333 114.272 31.1333 114.432V116.864ZM40.5413 105.12C40.5413 104.96 40.5893 104.843 40.6853 104.768C40.7813 104.683 40.904 104.64 41.0533 104.64C41.2026 104.64 41.3253 104.683 41.4213 104.768C41.528 104.843 41.5813 104.96 41.5813 105.12V113.12C41.5813 113.28 41.528 113.403 41.4213 113.488C41.3253 113.563 41.2026 113.6 41.0533 113.6C40.904 113.6 40.7813 113.563 40.6853 113.488C40.5893 113.403 40.5413 113.28 40.5413 113.12V105.12ZM53.3596 106.848C53.3596 107.403 53.4236 107.893 53.5516 108.32C53.6902 108.747 53.8876 109.125 54.1436 109.456C54.4102 109.787 54.7409 110.08 55.1356 110.336C55.5302 110.581 55.9836 110.811 56.4956 111.024C56.8262 111.163 56.9489 111.387 56.8636 111.696C56.8209 111.845 56.7356 111.952 56.6076 112.016C56.4796 112.08 56.3196 112.08 56.1276 112.016C55.7756 111.909 55.4289 111.755 55.0876 111.552C54.7569 111.339 54.4476 111.109 54.1596 110.864C53.8822 110.608 53.6316 110.347 53.4076 110.08C53.1942 109.803 53.0289 109.541 52.9116 109.296C52.7836 109.573 52.6076 109.856 52.3836 110.144C52.1596 110.432 51.9036 110.704 51.6156 110.96C51.3276 111.216 51.0076 111.451 50.6556 111.664C50.3142 111.877 49.9516 112.048 49.5676 112.176C49.3756 112.24 49.2156 112.24 49.0876 112.176C48.9596 112.112 48.8742 112.005 48.8316 111.856C48.7889 111.707 48.7996 111.573 48.8636 111.456C48.9382 111.328 49.0502 111.237 49.1996 111.184C49.7009 110.992 50.1436 110.773 50.5276 110.528C50.9222 110.272 51.2476 109.979 51.5036 109.648C51.7702 109.307 51.9729 108.923 52.1116 108.496C52.2502 108.059 52.3196 107.563 52.3196 107.008V105.2C52.3196 105.04 52.3676 104.923 52.4636 104.848C52.5596 104.763 52.6822 104.72 52.8316 104.72C52.9809 104.72 53.1036 104.763 53.1996 104.848C53.3062 104.923 53.3596 105.04 53.3596 105.2V106.848ZM51.0396 116.864C51.0396 116.992 51.0609 117.077 51.1036 117.12C51.1569 117.163 51.2262 117.184 51.3116 117.184H61.5036C61.6316 117.184 61.7382 117.221 61.8236 117.296C61.9196 117.381 61.9676 117.499 61.9676 117.648C61.9676 117.797 61.9196 117.909 61.8236 117.984C61.7382 118.069 61.6316 118.112 61.5036 118.112H51.1516C50.8956 118.112 50.6876 118.075 50.5276 118C50.3782 117.925 50.2609 117.829 50.1756 117.712C50.1009 117.595 50.0529 117.461 50.0316 117.312C50.0102 117.163 49.9996 117.013 49.9996 116.864V114.432C49.9996 114.272 50.0476 114.155 50.1436 114.08C50.2396 113.995 50.3622 113.952 50.5116 113.952C50.6609 113.952 50.7836 113.995 50.8796 114.08C50.9862 114.155 51.0396 114.272 51.0396 114.432V116.864ZM57.0556 108.256C57.0556 108.107 57.0982 107.995 57.1836 107.92C57.2796 107.835 57.3916 107.792 57.5196 107.792H60.4476V105.12C60.4476 104.96 60.4956 104.843 60.5916 104.768C60.6876 104.683 60.8102 104.64 60.9596 104.64C61.1089 104.64 61.2316 104.683 61.3276 104.768C61.4342 104.843 61.4876 104.96 61.4876 105.12V113.12C61.4876 113.28 61.4342 113.403 61.3276 113.488C61.2316 113.563 61.1089 113.6 60.9596 113.6C60.8102 113.6 60.6876 113.563 60.5916 113.488C60.4956 113.403 60.4476 113.28 60.4476 113.12V108.72H57.5196C57.3916 108.72 57.2796 108.683 57.1836 108.608C57.0982 108.523 57.0556 108.405 57.0556 108.256ZM72.5147 105.12C72.5147 104.96 72.5627 104.843 72.6587 104.768C72.7547 104.683 72.8774 104.64 73.0267 104.64C73.176 104.64 73.2987 104.683 73.3947 104.768C73.5014 104.843 73.5547 104.96 73.5547 105.12V107.968H75.9867V105.12C75.9867 104.96 76.0347 104.843 76.1307 104.768C76.2267 104.683 76.3494 104.64 76.4987 104.64C76.648 104.64 76.7707 104.683 76.8667 104.768C76.9734 104.843 77.0267 104.96 77.0267 105.12V112.08C77.0267 112.24 76.9734 112.363 76.8667 112.448C76.7707 112.523 76.648 112.56 76.4987 112.56C76.3494 112.56 76.2267 112.523 76.1307 112.448C76.0347 112.363 75.9867 112.24 75.9867 112.08V108.896H73.5547V112.08C73.5547 112.24 73.5014 112.363 73.3947 112.448C73.2987 112.523 73.176 112.56 73.0267 112.56C72.8774 112.56 72.7547 112.523 72.6587 112.448C72.5627 112.363 72.5147 112.24 72.5147 112.08V105.12ZM65.9227 110.832C65.9227 110.96 65.944 111.045 65.9867 111.088C66.04 111.131 66.1094 111.152 66.1947 111.152H69.5227C69.6507 111.152 69.7574 111.195 69.8427 111.28C69.9387 111.355 69.9867 111.467 69.9867 111.616C69.9867 111.765 69.9387 111.883 69.8427 111.968C69.7574 112.043 69.6507 112.08 69.5227 112.08H66.0347C65.7787 112.08 65.5707 112.043 65.4107 111.968C65.2614 111.893 65.144 111.797 65.0587 111.68C64.984 111.563 64.936 111.429 64.9147 111.28C64.8934 111.131 64.8827 110.981 64.8827 110.832V106.08C64.8827 105.931 64.8934 105.781 64.9147 105.632C64.936 105.483 64.984 105.349 65.0587 105.232C65.144 105.115 65.2614 105.019 65.4107 104.944C65.5707 104.869 65.7787 104.832 66.0347 104.832H69.0747C69.2027 104.832 69.3094 104.875 69.3947 104.96C69.4907 105.035 69.5387 105.147 69.5387 105.296C69.5387 105.445 69.4907 105.563 69.3947 105.648C69.3094 105.723 69.2027 105.76 69.0747 105.76H66.1947C66.1094 105.76 66.04 105.781 65.9867 105.824C65.944 105.867 65.9227 105.952 65.9227 106.08V107.968H69.0427C69.1707 107.968 69.2774 108.011 69.3627 108.096C69.4587 108.171 69.5067 108.283 69.5067 108.432C69.5067 108.581 69.4587 108.699 69.3627 108.784C69.2774 108.859 69.1707 108.896 69.0427 108.896H65.9227V110.832ZM75.9867 115.136C75.9867 115.008 75.96 114.923 75.9067 114.88C75.864 114.837 75.8 114.816 75.7147 114.816H65.4907C65.3627 114.816 65.2507 114.779 65.1547 114.704C65.0694 114.619 65.0267 114.501 65.0267 114.352C65.0267 114.203 65.0694 114.091 65.1547 114.016C65.2507 113.931 65.3627 113.888 65.4907 113.888H75.8747C76.1307 113.888 76.3334 113.925 76.4827 114C76.6427 114.075 76.76 114.171 76.8347 114.288C76.92 114.405 76.9734 114.539 76.9947 114.688C77.016 114.837 77.0267 114.987 77.0267 115.136V117.712C77.0267 117.872 76.9787 117.989 76.8827 118.064C76.7867 118.149 76.664 118.192 76.5147 118.192C76.3654 118.192 76.2374 118.149 76.1307 118.064C76.0347 117.989 75.9867 117.872 75.9867 117.712V115.136Z" fill="#191919"/>
<path fill-rule="evenodd" clip-rule="evenodd" d="M11.6552 39.415C2.34899 52.2081 15.6337 74.2376 21.3985 77.8418C26.7239 81.1713 29.694 81.9351 33.8723 83.0095L33.8944 83.0152C42.698 85.2791 50.1308 83.7768 58.6324 81.6628C79.9219 76.369 91.6793 41.013 67.4833 31.4722C60.8188 28.8443 50.3568 29.3193 44.9578 34.6238C41.2152 31.2672 35.4024 30.0263 30.5306 29.7335C21.921 29.2162 18.0227 30.6619 11.6552 39.415ZM44.9578 34.6238C43.246 36.3056 42.0431 38.473 41.6316 41.1808C41.5741 41.5594 41.5097 41.9404 41.4455 42.3201C40.8658 45.7485 40.3037 49.0725 44.9865 49.5987C49.9914 50.1612 49.1394 42.7779 48.3174 39.9272C47.6886 37.7464 46.4987 36.0058 44.9578 34.6238Z" fill="white"/>
<path d="M33.8944 83.0152C42.698 85.2791 50.1308 83.7768 58.6324 81.6628C79.9219 76.369 91.6793 41.013 67.4833 31.4722C60.8188 28.8443 50.3568 29.3193 44.9578 34.6238M33.8944 83.0152L33.8723 83.0095M33.8944 83.0152C33.887 83.0133 33.8797 83.0114 33.8723 83.0095M44.9578 34.6238C41.2152 31.2672 35.4024 30.0263 30.5306 29.7335C21.921 29.2162 18.0227 30.6619 11.6552 39.415C2.34899 52.2081 15.6337 74.2376 21.3985 77.8418C26.7239 81.1713 29.694 81.9351 33.8723 83.0095M44.9578 34.6238C43.246 36.3056 42.0431 38.473 41.6316 41.1808C41.5741 41.5594 41.5097 41.9404 41.4455 42.3201C40.8658 45.7485 40.3037 49.0725 44.9865 49.5987C49.9914 50.1612 49.1394 42.7779 48.3174 39.9272C47.6886 37.7464 46.4987 36.0058 44.9578 34.6238Z" stroke="black" stroke-width="1.58794" stroke-linecap="round"/>
<path d="M32.6036 53.4344C31.3495 53.4328 28.8343 56.3131 28.5604 57.1314" stroke="black" stroke-width="1.58794" stroke-linecap="round"/>
<path d="M57.3333 53.0305C58.85 54.7851 60.7601 55.248 60.8426 57.5543" stroke="black" stroke-width="1.58794" stroke-linecap="round"/>
<path d="M39.664 59.1649C41.9205 59.6774 44.1982 59.2514 46.4695 59.323C49.9262 59.4321 46.911 64.7834 46.1238 66.5958C43.7993 71.9476 42.5083 62.0893 42.5112 59.7909" stroke="black" stroke-width="1.58794" stroke-linecap="round"/>
<path d="M13.4029 1.1001H13.1365" stroke="black" stroke-width="1.58794" stroke-linecap="round"/>
<path d="M13.5051 4.36523L13.4028 9.89083" stroke="black" stroke-width="1.58794" stroke-linecap="round"/>
<path d="M20.7492 1.02105C20.7492 2.11187 20.7369 3.18856 20.6308 4.27693C20.5405 5.20238 19.9678 9.5177 20.246 6.31926C20.4043 4.49871 22.1023 1.33728 24.2122 1.03585C28.3056 0.451073 25.6541 7.20301 27.1425 7.9472" stroke="black" stroke-width="1.58794" stroke-linecap="round"/>
<path d="M36.4664 2.08683C36.2347 0.233493 30.9571 2.70899 33.8617 5.28351C34.658 5.98935 36.4252 7.60379 35.2824 8.74659C34.428 9.60103 32.5358 9.94268 31.9377 8.74659" stroke="black" stroke-width="1.58794" stroke-linecap="round"/>
<path d="M41.5274 6.88172C41.1212 6.88172 42.1399 6.88172 42.2081 6.88172C43.7201 6.88172 44.5515 5.91115 44.9312 4.43981C45.2853 3.0678 42.6191 3.67436 42.0602 4.21781C40.8043 5.43882 40.0287 8.01735 41.4238 9.41242C43.0495 11.0382 45.4002 10.741 47.388 10.0784" stroke="black" stroke-width="1.58794" stroke-linecap="round"/>
<path d="M51.9166 2.35303C51.8675 4.71005 51.7428 7.09348 51.3838 9.42717C51.231 10.4203 51.8898 7.45703 52.3902 6.58567C53.305 4.99257 54.6611 3.86461 56.4452 3.41859" stroke="black" stroke-width="1.58794" stroke-linecap="round"/>
<path d="M60.7078 5.54974C60.7677 5.07025 65.9513 5.95912 66.5683 6.08252" stroke="black" stroke-width="1.58794" stroke-linecap="round"/>
<path d="M64.7033 2.61938C64.1991 5.42857 61.2132 11.1452 65.4433 11.8838C66.4282 12.0558 67.8235 12.5268 68.6992 11.943" stroke="black" stroke-width="1.58794" stroke-linecap="round"/>
<path d="M76.6909 2.08667C76.1993 3.99845 75.3249 5.81046 74.8262 7.68086" stroke="black" stroke-width="1.58794" stroke-linecap="round"/>
<path d="M74.2937 12.4758C74.4466 13.8518 75.2764 12.5173 74.8265 12.7422" stroke="black" stroke-width="1.58794" stroke-linecap="round"/>
</svg>
