<svg width="121" height="24" viewBox="0 0 121 24" fill="none" xmlns="http://www.w3.org/2000/svg">
<path d="M11.5381 15.36C11.4381 15.5 11.3281 15.59 11.2081 15.63C11.0881 15.65 10.9781 15.66 10.8781 15.66C10.7781 15.66 10.6581 15.64 10.5181 15.6C10.3781 15.56 10.2681 15.48 10.1881 15.36L2.41809 4.08V22.23C2.41809 22.53 2.31809 22.75 2.11809 22.89C1.93809 23.05 1.70809 23.13 1.42809 23.13C1.14809 23.13 0.918086 23.05 0.738086 22.89C0.558086 22.75 0.468086 22.53 0.468086 22.23V2.04C0.468086 1.6 0.568086 1.27 0.768086 1.05C0.988086 0.829999 1.23809 0.719998 1.51809 0.719998C1.59809 0.719998 1.67809 0.719998 1.75809 0.719998C1.85809 0.719998 1.95809 0.739999 2.05809 0.779999C2.17809 0.819999 2.29809 0.909999 2.41809 1.05C2.55809 1.17 2.71809 1.35 2.89809 1.59L10.8481 13.08L18.8281 1.59C19.0081 1.35 19.1581 1.17 19.2781 1.05C19.4181 0.909999 19.5381 0.819999 19.6381 0.779999C19.7581 0.739999 19.8581 0.719998 19.9381 0.719998C20.0381 0.719998 20.1281 0.719998 20.2081 0.719998C20.4881 0.719998 20.7281 0.829999 20.9281 1.05C21.1481 1.27 21.2581 1.6 21.2581 2.04V22.23C21.2581 22.53 21.1681 22.75 20.9881 22.89C20.8081 23.05 20.5781 23.13 20.2981 23.13C20.0181 23.13 19.7781 23.05 19.5781 22.89C19.3981 22.75 19.3081 22.53 19.3081 22.23V4.08L11.5381 15.36ZM28.1119 1.83C28.1119 1.53 28.2019 1.31 28.3819 1.17C28.5619 1.01 28.7919 0.929999 29.0719 0.929999C29.3519 0.929999 29.5819 1.01 29.7619 1.17C29.9619 1.31 30.0619 1.53 30.0619 1.83V22.23C30.0619 22.53 29.9619 22.75 29.7619 22.89C29.5819 23.05 29.3519 23.13 29.0719 23.13C28.7919 23.13 28.5619 23.05 28.3819 22.89C28.2019 22.75 28.1119 22.53 28.1119 22.23V1.83ZM37.1771 2.16C37.1771 1.86 37.2571 1.59 37.4171 1.35C37.5971 1.11 37.8971 0.989998 38.3171 0.989998C38.5571 0.989998 38.7671 1.02 38.9471 1.08C39.1471 1.12 39.3271 1.2 39.4871 1.32C39.6671 1.44 39.8471 1.61 40.0271 1.83C40.2071 2.05 40.4071 2.33 40.6271 2.67L52.2071 20.13V1.86C52.2071 1.56 52.2971 1.34 52.4771 1.2C52.6571 1.04 52.8871 0.959999 53.1671 0.959999C53.4471 0.959999 53.6771 1.04 53.8571 1.2C54.0571 1.34 54.1571 1.56 54.1571 1.86V22.17C54.1571 22.41 54.0671 22.63 53.8871 22.83C53.7071 23.05 53.4471 23.16 53.1071 23.16C52.7471 23.16 52.4371 23.1 52.1771 22.98C51.9171 22.88 51.6771 22.67 51.4571 22.35L39.1271 3.84V22.23C39.1271 22.53 39.0271 22.75 38.8271 22.89C38.6471 23.05 38.4171 23.13 38.1371 23.13C37.8571 23.13 37.6271 23.05 37.4471 22.89C37.2671 22.75 37.1771 22.53 37.1771 22.23V2.16ZM62.4767 20.82C62.4767 21.06 62.5167 21.22 62.5967 21.3C62.6967 21.38 62.8267 21.42 62.9867 21.42H73.6067C73.8467 21.42 74.0467 21.49 74.2067 21.63C74.3867 21.79 74.4767 22.01 74.4767 22.29C74.4767 22.57 74.3867 22.78 74.2067 22.92C74.0467 23.08 73.8467 23.16 73.6067 23.16H62.6867C62.2067 23.16 61.8167 23.09 61.5167 22.95C61.2367 22.81 61.0167 22.63 60.8567 22.41C60.7167 22.19 60.6267 21.94 60.5867 21.66C60.5467 21.38 60.5267 21.1 60.5267 20.82V3.36C60.5267 3.08 60.5467 2.8 60.5867 2.52C60.6267 2.24 60.7167 1.99 60.8567 1.77C61.0167 1.55 61.2367 1.37 61.5167 1.23C61.8167 1.09 62.2067 1.02 62.6867 1.02H73.0067C73.2467 1.02 73.4467 1.1 73.6067 1.26C73.7867 1.4 73.8767 1.61 73.8767 1.89C73.8767 2.17 73.7867 2.39 73.6067 2.55C73.4467 2.69 73.2467 2.76 73.0067 2.76H62.9867C62.8267 2.76 62.6967 2.8 62.5967 2.88C62.5167 2.96 62.4767 3.12 62.4767 3.36V10.89H73.0067C73.2467 10.89 73.4467 10.97 73.6067 11.13C73.7867 11.27 73.8767 11.48 73.8767 11.76C73.8767 12.04 73.7867 12.26 73.6067 12.42C73.4467 12.56 73.2467 12.63 73.0067 12.63H62.4767V20.82ZM90.3174 15.36C90.2174 15.5 90.1074 15.59 89.9874 15.63C89.8674 15.65 89.7574 15.66 89.6574 15.66C89.5574 15.66 89.4374 15.64 89.2974 15.6C89.1574 15.56 89.0474 15.48 88.9674 15.36L81.1974 4.08V22.23C81.1974 22.53 81.0974 22.75 80.8974 22.89C80.7174 23.05 80.4874 23.13 80.2074 23.13C79.9274 23.13 79.6974 23.05 79.5174 22.89C79.3374 22.75 79.2474 22.53 79.2474 22.23V2.04C79.2474 1.6 79.3474 1.27 79.5474 1.05C79.7674 0.829999 80.0174 0.719998 80.2974 0.719998C80.3774 0.719998 80.4574 0.719998 80.5374 0.719998C80.6374 0.719998 80.7374 0.739999 80.8374 0.779999C80.9574 0.819999 81.0774 0.909999 81.1974 1.05C81.3374 1.17 81.4974 1.35 81.6774 1.59L89.6274 13.08L97.6074 1.59C97.7874 1.35 97.9374 1.17 98.0574 1.05C98.1974 0.909999 98.3174 0.819999 98.4174 0.779999C98.5374 0.739999 98.6374 0.719998 98.7174 0.719998C98.8174 0.719998 98.9074 0.719998 98.9874 0.719998C99.2674 0.719998 99.5074 0.829999 99.7074 1.05C99.9274 1.27 100.037 1.6 100.037 2.04V22.23C100.037 22.53 99.9474 22.75 99.7674 22.89C99.5874 23.05 99.3574 23.13 99.0774 23.13C98.7974 23.13 98.5574 23.05 98.3574 22.89C98.1774 22.75 98.0874 22.53 98.0874 22.23V4.08L90.3174 15.36ZM108.121 20.82C108.121 21.06 108.161 21.22 108.241 21.3C108.341 21.38 108.471 21.42 108.631 21.42H119.251C119.491 21.42 119.691 21.49 119.851 21.63C120.031 21.79 120.121 22.01 120.121 22.29C120.121 22.57 120.031 22.78 119.851 22.92C119.691 23.08 119.491 23.16 119.251 23.16H108.331C107.851 23.16 107.461 23.09 107.161 22.95C106.881 22.81 106.661 22.63 106.501 22.41C106.361 22.19 106.271 21.94 106.231 21.66C106.191 21.38 106.171 21.1 106.171 20.82V3.36C106.171 3.08 106.191 2.8 106.231 2.52C106.271 2.24 106.361 1.99 106.501 1.77C106.661 1.55 106.881 1.37 107.161 1.23C107.461 1.09 107.851 1.02 108.331 1.02H118.651C118.891 1.02 119.091 1.1 119.251 1.26C119.431 1.4 119.521 1.61 119.521 1.89C119.521 2.17 119.431 2.39 119.251 2.55C119.091 2.69 118.891 2.76 118.651 2.76H108.631C108.471 2.76 108.341 2.8 108.241 2.88C108.161 2.96 108.121 3.12 108.121 3.36V10.89H118.651C118.891 10.89 119.091 10.97 119.251 11.13C119.431 11.27 119.521 11.48 119.521 11.76C119.521 12.04 119.431 12.26 119.251 12.42C119.091 12.56 118.891 12.63 118.651 12.63H108.121V20.82Z" fill="#191919"/>
</svg>
