<svg width="311" height="271" viewBox="0 0 311 271" fill="none" xmlns="http://www.w3.org/2000/svg">
<path d="M196.853 26.1733C191.033 17.7 195.117 6.35275 200.2 3.49341C208.828 -1.36007 214.968 -1.58271 222.81 5.54674C228.145 10.3968 229.545 18.3933 225.684 24.6437C219.243 35.0722 204.414 37.1804 196.853 26.1733Z" fill="#FAC59F"/>
<path d="M114.105 265.53C109.811 259.207 112.824 250.74 116.575 248.607C122.942 244.985 127.472 244.819 133.259 250.139C137.196 253.758 138.229 259.725 135.38 264.388C130.627 272.17 119.684 273.743 114.105 265.53Z" fill="#8AE7DB" fill-opacity="0.54"/>
<path d="M273.684 152.624C270.249 147.566 272.659 140.792 275.66 139.085C280.754 136.188 284.378 136.055 289.007 140.311C292.157 143.206 292.983 147.98 290.704 151.711C286.902 157.936 278.147 159.194 273.684 152.624Z" fill="#8BD0F6"/>
<path d="M19.2739 130.092C14.6356 123.264 17.8899 114.119 21.941 111.815C28.8173 107.904 33.7101 107.725 39.96 113.47C44.2117 117.378 45.3269 123.823 42.2503 128.86C37.1171 137.263 25.2991 138.962 19.2739 130.092Z" fill="#565CEF" fill-opacity="0.38"/>
<path d="M165.179 29.9367C162.774 26.3961 164.461 21.6545 166.562 20.4597C170.127 18.4317 172.665 18.3387 175.905 21.3177C178.11 23.3443 178.688 26.6858 177.093 29.2975C174.431 33.6551 168.303 34.5361 165.179 29.9367Z" fill="#FFBBBB"/>
<path d="M166.179 240.937C163.774 237.396 165.461 232.655 167.562 231.46C171.127 229.432 173.665 229.339 176.905 232.318C179.11 234.344 179.688 237.686 178.093 240.298C175.431 244.655 169.303 245.536 166.179 240.937Z" fill="#FFDB94"/>
<path d="M98.8422 47.8119C97.1243 45.2829 98.3296 41.8961 99.83 41.0427C102.377 39.5941 104.189 39.5276 106.504 41.6555C108.078 43.1031 108.491 45.4898 107.352 47.3554C105.451 50.4679 101.074 51.0972 98.8422 47.8119Z" fill="#B0B0B1" fill-opacity="0.48"/>
<path d="M213.264 255.027C200.487 236.565 209.451 211.842 220.611 205.612C239.553 195.037 253.032 194.552 270.249 210.085C281.961 220.653 285.033 238.076 276.558 251.694C262.417 274.416 229.862 279.01 213.264 255.027Z" fill="#D9D9D9"/>
<path fill-rule="evenodd" clip-rule="evenodd" d="M241.92 221.396C232.481 219.141 226.355 221.698 222.04 229.679C219.124 235.074 220.016 238.75 222.041 243.352C224.937 249.934 230.775 255.367 237.766 257.238C252.325 261.134 268.742 250.471 268.742 235.074C268.742 228.598 265.075 222.06 259.129 219.141C255.124 217.175 250.199 217.601 246.578 220.12C245.857 220.622 244.904 221.432 243.965 222.377C243.374 221.901 242.697 221.553 241.92 221.396ZM243.965 222.377C242.35 224.003 240.776 226.029 240.496 227.567C238.893 236.38 250.288 237.235 247.379 228.339C246.712 226.296 245.708 223.78 243.965 222.377Z" fill="#FFBBBB"/>
<path d="M243.965 222.377C243.374 221.901 242.697 221.553 241.92 221.396C232.481 219.141 226.355 221.698 222.04 229.679C219.124 235.074 220.016 238.75 222.041 243.352C224.937 249.934 230.775 255.367 237.766 257.238C252.325 261.134 268.742 250.471 268.742 235.074C268.742 228.598 265.075 222.06 259.129 219.141C255.124 217.175 250.199 217.601 246.578 220.12C245.857 220.622 244.904 221.432 243.965 222.377ZM243.965 222.377C242.35 224.003 240.776 226.029 240.496 227.567C238.893 236.38 250.288 237.235 247.379 228.339C246.712 226.296 245.708 223.78 243.965 222.377Z" stroke="#191919" stroke-width="1.7" stroke-linecap="round"/>
<path d="M251.652 240.385C247.856 238.641 238.301 242.919 238.301 247.328C239.296 251.312 242.258 250.992 245.243 249.168C248.809 246.989 251.074 247.725 255.124 247.298C260.21 246.763 253.264 241.125 251.652 240.385Z" fill="white" stroke="#191919" stroke-width="1.7" stroke-linecap="round"/>
<path d="M231.891 243.055C231.891 246.272 231.679 250.48 233.493 253.203" stroke="#44B1FF" stroke-width="1.7" stroke-linecap="round"/>
<path d="M261.8 238.249C261.8 239.933 261.846 243.88 263.402 244.658" stroke="#44B1FF" stroke-width="1.7" stroke-linecap="round"/>
<path d="M255.208 232.434C255.42 233.496 258.045 234.469 259.34 235.189" stroke="#191919" stroke-width="1.7" stroke-linecap="round"/>
<path d="M234.547 237.943C233.952 239.108 232.047 241.329 231.792 242.075" stroke="#191919" stroke-width="1.7" stroke-linecap="round"/>
<path d="M6.65861 222.463C2.5698 216.617 -0.0585241 200.833 4.10474 188.699C10.2755 176.866 16.626 171.641 27.3266 171.02C32.8226 170.701 47.016 174.269 52.1281 176.866C65.4131 183.614 71.4696 191.481 69.2486 210.484C66.6591 232.641 55.2283 240 35.5938 240C22.1596 237.077 19.0594 237.077 6.65861 222.463Z" fill="#FFBBBB"/>
<path d="M11.1132 217.868C11.1132 221.513 16.3208 223.726 18.9245 224.377H39.7548L41.0567 220.472L50.1699 217.868L58.6321 215.264L63.1887 210.057L64.4906 203.547L63.1887 196.387L59.934 191.83L54.7265 190.528L45.6133 193.783C40.4057 189.096 29.9906 191.83 25.434 193.783L22.1793 196.387L18.9245 199.641L12.4151 202.245C8.24905 208.494 9.81132 215.264 11.1132 217.868Z" fill="#FFD6A6"/>
<path d="M20.954 197.949C23.4626 193.211 29.8616 191.253 34.8429 191.253C37.6736 191.253 43.9853 190.605 46.0657 193.206C46.9085 194.259 51.5749 191.426 52.7622 191.129C55.8677 190.352 59.1395 190.182 61.2567 192.927C66.3767 199.564 65.5362 206.637 60.5747 213.016C56.2772 218.542 47.0447 219.713 40.4853 219.713" stroke="#191919" stroke-width="1.7" stroke-linecap="round"/>
<path d="M55.5522 192.927C55.4547 193.805 54.7514 194.449 55.0252 195.407C55.463 196.939 57.5431 195.818 57.6914 194.632C58.3437 189.414 48.8094 197.577 55.3042 197.391C59.0315 197.285 58.5553 189.512 56.3893 192.4C56.1411 192.731 54.7974 194.678 56.1103 194.601C57.0168 194.548 57.8815 192.304 56.1103 193.485" stroke="#191919" stroke-width="1.7" stroke-linecap="round"/>
<path d="M29.8824 202.971C30.5347 204.439 30.8432 206.009 31.5566 207.436" stroke="#191919" stroke-width="1.7" stroke-linecap="round"/>
<path d="M39.3691 196.275C40.0135 196.436 40.245 198.903 40.4852 199.623" stroke="#191919" stroke-width="1.7" stroke-linecap="round"/>
<path d="M41.6014 210.784C42.374 212.426 44.4038 217.248 47.0578 215.559C48.6369 214.554 48.2979 211.355 48.2979 209.668" stroke="#191919" stroke-width="1.7" stroke-linecap="round"/>
<path d="M18.7217 199.623C6.42912 199.623 6.78787 222.882 18.1637 224.146C26.3917 225.06 22.0699 209.837 22.0699 205.762" stroke="#191919" stroke-width="1.7" stroke-linecap="round"/>
<path d="M119.773 56.5649C135.73 48 148.005 48 156.816 48C181.322 48 191.021 55.3453 205.414 63.7076C224.779 74.9583 244.282 99.2238 245.883 122.146C247.765 149.081 226.565 178.346 205.731 193.394C183.246 209.636 153.588 210.876 127.329 204.193C93.3946 195.556 65.5681 168.534 70.5879 131.78C73.0728 113.586 79.7748 91.2973 92.4636 78.3015C101.319 69.2321 109.28 63.7334 119.773 56.5649Z" fill="#CEF3CB"/>
<path d="M82.5 112L86 109L99.5 103L115 98.5L135 93L178 84L210 79L215.5 81L219 86.5L222 99L223.5 119L227 148L228 158.5L227 162.5L223.5 166.5L215.5 169L193 175.5L168 183.5L120 192.5L105.5 193L100 191.5L96.5 187.5L94 181L92 172.5L90 166.5L88.5 161.5L87.5 153L86 145L84.5 141.5L81 125.5L80.5 117.5L82.5 112Z" fill="#FFF2AD"/>
<path d="M222.314 92.0461L81.3421 120.44" stroke="#FFBBBB" stroke-opacity="0.38" stroke-width="5"/>
<path d="M223 109L82.3038 137.323" stroke="#FFBBBB" stroke-opacity="0.38" stroke-width="5"/>
<path d="M225 128L87.1298 156.72" stroke="#FFBBBB" stroke-opacity="0.38" stroke-width="5"/>
<path d="M227 149L93.5338 178.559" stroke="#FFBBBB" stroke-opacity="0.38" stroke-width="5"/>
<path d="M87 105L105 192" stroke="#FFBBBB" stroke-opacity="0.38" stroke-width="5"/>
<path d="M103.5 100L120.5 193" stroke="#FFBBBB" stroke-opacity="0.38" stroke-width="5"/>
<path d="M122.5 96L141.5 190" stroke="#FFBBBB" stroke-opacity="0.38" stroke-width="5"/>
<path d="M142 91L162 185" stroke="#FFBBBB" stroke-opacity="0.38" stroke-width="5"/>
<path d="M164 86L182 179" stroke="#FFBBBB" stroke-opacity="0.38" stroke-width="5"/>
<path d="M186 82L204 173" stroke="#FFBBBB" stroke-opacity="0.38" stroke-width="5"/>
<path d="M205 80L221 167" stroke="#FFBBBB" stroke-opacity="0.38" stroke-width="5"/>
<path fill-rule="evenodd" clip-rule="evenodd" d="M180.498 84.0143C182.988 83.624 185.56 83.1137 188.164 82.5872L189.023 82.4132C191.352 81.9413 193.702 81.4649 196.061 81.0515C201.362 80.1224 206.637 79.5247 211.621 80.0176C213.573 80.2106 215.203 81.5058 216.549 83.3236C217.889 85.1324 218.857 87.3389 219.503 89.0955C220.576 92.0133 220.882 95.7017 221.145 98.9485C221.229 99.998 221.415 101.261 221.601 102.526L221.601 102.527C221.645 102.824 221.689 103.12 221.731 103.414C221.959 104.994 222.15 106.502 222.15 107.666C222.15 108.135 222.531 108.516 223 108.516C223.47 108.516 223.85 108.135 223.85 107.666C223.85 106.362 223.639 104.738 223.414 103.172C223.369 102.862 223.324 102.555 223.279 102.252L223.279 102.251C223.094 100.99 222.919 99.7998 222.839 98.8114L222.835 98.7605C222.578 95.5817 222.261 91.6696 221.099 88.5088C220.431 86.693 219.397 84.3113 217.915 82.3116C216.44 80.3207 214.429 78.587 211.788 78.3258C206.571 77.81 201.116 78.4397 195.767 79.377C193.385 79.7945 191.011 80.2756 188.685 80.747L187.827 80.921C185.222 81.4477 182.683 81.951 180.235 82.3348C170.116 83.9211 160.071 86.3284 150.125 88.712L150.124 88.7122C148.189 89.1758 146.259 89.6385 144.332 90.0941C141.615 90.7365 138.877 91.3618 136.135 91.988L136.135 91.9881C132.701 92.7724 129.261 93.5581 125.849 94.3804C124.481 94.7102 123.122 95.053 121.754 95.3984L121.754 95.3984C119.059 96.0788 116.324 96.7691 113.394 97.3891C113.304 97.4081 113.22 97.4408 113.145 97.4844C111.13 97.9878 108.26 98.8054 105.646 99.6042C102.986 100.417 100.521 101.232 99.508 101.682C97.9033 102.396 96.1114 102.973 94.2398 103.568L94.0897 103.616L94.0896 103.616C92.2812 104.191 90.4054 104.788 88.6486 105.538C85.0279 107.081 81.7511 109.34 80.3973 113.623C79.8267 115.428 79.7032 117.731 79.757 119.948C79.8113 122.182 80.0489 124.413 80.2443 126.103C80.8169 131.057 82.3432 136.034 83.7933 140.763L83.7933 140.763C84.0208 141.505 84.2463 142.24 84.4661 142.969C85.6168 146.784 86.2245 150.85 86.834 154.928L86.834 154.928C87.1009 156.714 87.3681 158.502 87.6815 160.272C88.1652 163.005 89.031 165.602 89.8722 168.126L90.0392 168.627C90.9381 171.329 91.7807 173.96 92.153 176.72C93.3684 185.734 99.0751 194.01 109.26 194.01C115.58 194.01 121.556 193.583 127.791 192.297C132.446 191.337 137.139 190.505 141.841 189.672L141.842 189.672L141.842 189.672C151.511 187.959 161.223 186.238 170.729 183.378C174.18 182.339 177.556 181.196 180.914 180.059L180.915 180.059C186.867 178.044 192.764 176.047 198.934 174.681C202.608 173.868 206.188 172.782 209.74 171.705L209.741 171.705C211.833 171.07 213.915 170.439 216.001 169.868C216.571 169.712 217.162 169.566 217.759 169.419L217.76 169.419C218.845 169.152 219.948 168.881 220.97 168.535C222.609 167.979 224.198 167.191 225.614 165.791C229.221 162.224 229.262 157.875 228.766 153.46C228.429 150.461 227.989 147.244 227.537 143.942L227.537 143.941C226.475 136.186 225.35 127.964 225.35 121.014C225.35 120.545 224.969 120.164 224.5 120.164C224.031 120.164 223.65 120.545 223.65 121.014C223.65 128.085 224.803 136.509 225.87 144.314L225.87 144.314L225.871 144.317C226.318 147.584 226.75 150.744 227.076 153.649C227.563 157.981 227.429 161.605 224.418 164.582C223.243 165.744 221.909 166.422 220.424 166.924C219.46 167.251 218.494 167.488 217.467 167.74C216.854 167.89 216.22 168.045 215.552 168.228C213.368 168.826 211.247 169.47 209.143 170.109L209.142 170.109C205.645 171.171 202.192 172.219 198.566 173.022C192.321 174.404 186.253 176.457 180.232 178.494L180.231 178.494C176.893 179.623 173.57 180.747 170.239 181.75C160.826 184.582 151.287 186.272 141.675 187.974C136.948 188.811 132.203 189.651 127.448 190.632C121.355 191.888 115.5 192.31 109.26 192.31C100.268 192.31 94.9921 185.054 93.8377 176.493C93.4415 173.554 92.5484 170.784 91.6523 168.09L91.4944 167.616C90.645 165.067 89.8166 162.581 89.3554 159.976C89.0596 158.304 88.8007 156.573 88.5382 154.818L88.5381 154.818C87.9197 150.683 87.2813 146.415 86.0936 142.478C85.8698 141.736 85.6418 140.992 85.4133 140.246L85.4133 140.246C83.9607 135.505 82.4863 130.694 81.9331 125.908C81.7385 124.224 81.5088 122.059 81.4565 119.907C81.4039 117.737 81.535 115.664 82.0183 114.135C83.1544 110.541 85.8905 108.562 89.3153 107.101C90.9967 106.384 92.8051 105.809 94.6381 105.225L94.6381 105.225L94.7554 105.188C96.6114 104.597 98.4939 103.994 100.199 103.236C101.099 102.835 103.457 102.051 106.143 101.23C108.808 100.416 111.725 99.5864 113.704 99.0972C113.777 99.0792 113.845 99.0522 113.908 99.0178C116.808 98.4001 119.549 97.7084 122.215 97.0357C123.575 96.6925 124.915 96.3542 126.247 96.0331C129.666 95.2091 133.076 94.4306 136.49 93.6508C139.228 93.0256 141.97 92.3995 144.723 91.7485C146.66 91.2904 148.598 90.8261 150.537 90.3615L150.538 90.3611C160.484 87.9777 170.452 85.5891 180.498 84.0143Z" fill="#191919"/>
<path d="M208.5 149.5L206 145L216 137H218.5L219.5 143L217 149.5L212.5 151.5L208.5 149.5Z" fill="white"/>
<path d="M174.265 157.5L172.812 152.48L185.604 151.865L187 153.5L185 159.5L180.5 161L176.5 160L174.265 157.5Z" fill="white"/>
<path d="M145.112 128.111L149.563 125.371L153.571 137.534L152 137L147 137L143.404 135.054L143.3 130.933L145.112 128.111Z" fill="white"/>
<path d="M228.5 120.5L222.05 120.5L219.726 108.58L222.05 108.58L226.164 109.998L229.463 112.413L231.5 116.5L228.5 120.5Z" fill="white"/>
<path fill-rule="evenodd" clip-rule="evenodd" d="M174.491 96.9472C165.769 96.1543 158.569 99.2639 154.068 105.564C146.62 114.502 149.066 125.897 152.958 136.017C155.312 142.137 159.624 145.395 165.168 148.449C172.114 152.274 177.816 153.264 185.752 152.424C201.146 150.794 216.648 141.791 220.382 125.786C221.834 119.563 220.592 111.363 218.163 105.524C216.339 101.141 214.264 96.1619 209.787 93.9604C204.066 91.1464 196.932 92.8124 190.999 94.2228C187.205 95.1246 183.821 97.4045 181.846 100.673C179.842 98.6669 177.393 97.211 174.491 96.9472ZM181.846 100.673C181.246 101.664 180.777 102.747 180.465 103.91C179.735 106.628 180.261 114.442 183.855 115.271C188.07 116.244 187.47 109.738 186.519 107.663C185.395 105.21 183.84 102.669 181.846 100.673Z" fill="#FFBBBB"/>
<path d="M181.846 100.673C179.842 98.6669 177.393 97.211 174.491 96.9472C165.769 96.1543 158.569 99.2639 154.068 105.564C146.62 114.502 149.066 125.897 152.958 136.017C155.312 142.137 159.624 145.395 165.168 148.449C172.114 152.274 177.816 153.264 185.752 152.424C201.146 150.794 216.648 141.791 220.382 125.786C221.834 119.563 220.592 111.363 218.163 105.524C216.339 101.141 214.264 96.1619 209.787 93.9604C204.066 91.1464 196.932 92.8124 190.999 94.2228C187.205 95.1246 183.821 97.4045 181.846 100.673ZM181.846 100.673C181.246 101.664 180.777 102.747 180.465 103.91C179.735 106.628 180.261 114.442 183.855 115.271C188.07 116.244 187.47 109.738 186.519 107.663C185.395 105.21 183.84 102.669 181.846 100.673Z" stroke="#191919" stroke-width="1.7" stroke-linecap="round"/>
<path d="M172.958 123.727C172.397 124.849 171.851 125.784 171.505 126.996" stroke="#191919" stroke-width="1.7" stroke-linecap="round"/>
<path d="M198.022 116.099C199.701 116.192 200.847 117.587 202.018 118.641" stroke="#191919" stroke-width="1.7" stroke-linecap="round"/>
<path d="M183.492 128.449C184.814 129.936 186.3 132.685 188.941 131.638C191.335 130.688 190.917 127.765 191.847 125.906" stroke="#191919" stroke-width="1.7" stroke-linecap="round"/>
<path d="M206.156 145.403C206.434 148.181 209.308 150.749 211.895 151.237C216.413 152.09 219.093 147.936 219.658 144.093C220.17 140.613 220.052 136.402 215.586 136.402" stroke="#191919" stroke-width="1.7" stroke-linecap="round"/>
<path d="M173.151 151.833C173.151 157.706 175.132 161.03 181.2 160.834C185.747 160.687 187 156.84 187 153" stroke="#191919" stroke-width="1.7" stroke-linecap="round"/>
<path d="M122 177.5L124 170L131 173L127 179L124 179.5L122 177.5Z" fill="white"/>
<path d="M124.257 170.14C123.054 172.803 119 180.023 125.223 179.666C127.698 179.524 130.326 175.048 131.056 172.796" stroke="#191919" stroke-width="1.7" stroke-linecap="round"/>
<path d="M94 149.5L97.5 148L103.5 154.5L101 157L95 159L92 158L91 155L94 149.5Z" fill="white"/>
<path d="M97.6939 148C93.5855 148.457 87.4623 157.687 93.5981 158.668C97.0717 159.224 100.496 157.199 102.838 154.858" stroke="#191919" stroke-width="1.7" stroke-linecap="round"/>
<path d="M149.5 126C146.002 126.389 141.277 132.118 144.194 135.116C146.291 137.272 149.824 137.259 152.576 137.259" stroke="#191919" stroke-width="1.7" stroke-linecap="round"/>
<path d="M220.301 108.54C225.165 108.54 231.601 111.1 231.446 116.684C231.334 120.707 223.5 122 221.5 120" stroke="#191919" stroke-width="1.7" stroke-linecap="round"/>
<path d="M93.5 117.5L94.5 129.5L95.5 128L98 124L98.5 122L98 118.5L99 116L102.5 113L103 110L100 109.5L98 111L96 109.5L93 110V113L89.5 116.5L93.5 117.5Z" fill="white"/>
<path d="M98.8058 123C98.4552 120.195 96.5756 118.909 98.8058 116.041C99.8038 114.758 101.839 113.694 102.521 112.398C103.806 109.957 103.029 109.081 100.306 109.421C99.4877 109.524 98.8205 111.064 98.3534 111.064C97.6904 111.064 96.956 109.774 96.4245 109.493C94.5785 108.515 91.0773 110.317 92.3524 112.612C92.9057 113.608 87.1482 115.47 89.6615 117.113C90.3568 117.568 92.5272 117.14 92.9001 117.637C93.5767 118.539 93.424 122.677 93.424 123.971C93.424 126.016 94 128.5 94.5 130" stroke="#191919" stroke-width="1.7" stroke-linecap="round"/>
<path fill-rule="evenodd" clip-rule="evenodd" d="M101 121C107 116 117.028 115.759 121.658 122.436C122.291 123.349 122.801 124.257 123.158 125.146C119.892 126.101 117.38 128.211 117.38 131.719C117.38 133.417 118.006 134.01 119.721 133.192C123.752 131.268 124.441 128.338 123.158 125.146C127.814 123.785 134.003 124.771 136.632 127.4C139.537 130.305 143.782 137.791 143.795 143.588C142.696 143.913 141.63 144.348 140.628 144.877C139.36 145.545 136.621 147.131 137.076 148.953C137.353 150.06 138.448 150.83 139.538 150.406C142.65 149.196 143.803 146.623 143.795 143.588C147.787 142.408 152.227 142.671 155.683 145.159C159.215 147.702 160.062 152.117 160.861 156.278C160.907 156.52 160.953 156.76 161 157C161.973 162.003 157.5 167.417 153.382 170.587C147 175.5 141.906 175.508 134.5 173.5C127.598 171.628 116 166 110 160.5C102 154 93.6874 143 93.6874 136.441C93.6874 130.5 97 124 101 121Z" fill="#FAC59F"/>
<path d="M123.158 125.146C122.801 124.257 122.291 123.349 121.658 122.436C117.028 115.759 107 116 101 121C97 124 93.6874 130.5 93.6874 136.441C93.6874 143 102 154 110 160.5C116 166 127.598 171.628 134.5 173.5C141.906 175.508 147 175.5 153.382 170.587C157.5 167.417 161.973 162.003 161 157C160.953 156.76 160.907 156.52 160.861 156.278C160.062 152.117 159.215 147.702 155.683 145.159C152.227 142.671 147.787 142.408 143.795 143.588M123.158 125.146C127.814 123.785 134.003 124.771 136.632 127.4C139.537 130.305 143.782 137.791 143.795 143.588M123.158 125.146C119.892 126.101 117.38 128.211 117.38 131.719C117.38 133.417 118.006 134.01 119.721 133.192C123.752 131.268 124.441 128.338 123.158 125.146ZM143.795 143.588C142.696 143.913 141.63 144.348 140.628 144.877C139.36 145.545 136.621 147.131 137.076 148.953C137.353 150.06 138.448 150.83 139.538 150.406C142.65 149.196 143.803 146.623 143.795 143.588Z" stroke="#191919" stroke-width="1.7" stroke-linecap="round"/>
<path d="M117.743 141.526C116.584 141.011 115.649 141.233 114.474 141.526" stroke="#191919" stroke-width="1.7" stroke-linecap="round"/>
<path d="M129.367 149.881C128.957 150.804 128.804 151.804 128.641 152.787" stroke="#191919" stroke-width="1.7" stroke-linecap="round"/>
<path d="M116.29 148.428C116.29 151.221 117.887 153.674 121.012 152.424" stroke="#191919" stroke-width="1.7" stroke-linecap="round"/>
<path d="M151 181.5L148.5 173.5L153 171.5L153.5 175L152 181L151 181.5Z" fill="white"/>
<path d="M148.5 173.5C148.7 175.498 150.382 185.845 152.671 180.123C153.709 177.528 153.5 173.314 153.5 170.5" stroke="#191919" stroke-width="1.7" stroke-linecap="round"/>
<path d="M247.679 72.6225C243.572 66.7585 240.932 50.926 245.114 38.7541C251.312 26.884 257.691 21.6428 268.44 21.02C273.96 20.7002 288.217 24.2791 293.352 26.884C306.696 33.6532 312.779 41.5448 310.548 60.6071C307.947 82.8321 296.466 90.2143 276.744 90.2143C263.25 87.2823 260.135 87.2822 247.679 72.6225Z" fill="#FFF2AD"/>
<path d="M254.536 72V61.6785L297.643 58.6428V73.2143L293.393 77.4643L257.571 76.25L254.536 72Z" fill="#FFDEAB"/>
<path d="M254.536 68.9642L266.679 70.1785L286.714 68.9642L297.049 66.6545L297.643 66.5356" stroke="#FE6B57" stroke-opacity="0.76" stroke-width="3"/>
<path d="M254.475 61.546C254.475 67.0132 253.479 76.0194 259.998 76.9004C269.343 78.1632 279.359 77.1607 288.799 77.1607C294.574 77.1607 298.062 76.5383 298.25 69.5714C298.365 65.3334 298.25 62.8565 298.25 58.6428" stroke="#191919" stroke-width="1.7" stroke-linecap="round"/>
<path d="M269.714 48.9285L279.429 45.2856L287.929 45.8928L294 51.3571L298.25 59.2499L269.107 64.1071L255.143 62.2856V59.2499L269.714 48.9285Z" fill="white"/>
<path d="M278.821 44.6785C274.537 46.6948 266.635 50.7826 262.919 53.7386C260.5 55.6628 256.019 57.648 254.591 60.505C252.949 63.788 262.45 64.1284 263.728 64.1484C269.384 64.2368 274.226 62.9407 279.69 62.0665C283.249 61.4969 287.564 61.2993 290.938 60.2447C292.465 59.7677 299.082 60.2944 298.25 58.0356C296.87 54.2907 292.702 49.3208 289.75 47.107" stroke="#191919" stroke-width="1.7" stroke-linecap="round"/>
<path d="M289.348 50.3555C289.348 54.4734 276.696 53.3348 276.336 50.0952C278.382 47.0263 281.613 34.5529 286.485 39.4252C289.573 42.5128 289.348 46.2107 289.348 50.3555Z" fill="#FE6B57" stroke="#191919" stroke-width="1.7" stroke-linecap="round"/>
<path d="M11.4762 69.8451C-15.6624 47.5999 9.45946 3 43.9007 3C56.8162 3 65.8747 9.33276 68.8706 12.0716C74.5408 17.2554 81.9301 25.3102 81.9978 34.2838C82.0674 43.4926 80.473 51.5881 76.0113 59.6733C70.5899 69.4975 61.3698 79.2001 49.5906 79.8567C36.1848 80.604 22.1528 78.5965 11.4762 69.8451Z" fill="#AAE1FF"/>
<path d="M10.5 61L8.5 67C10.5 69.5 16.6667 73.8333 20.5 75.5H21.5L23.5 72L28 75.5H32L34.5 74.5L37 72L38 69.5H39L43 67L43.5 64.5L42 61.5L39 60H36.5L32 61.5L30.5 59.5L28 56H24.5L19.5 58L18.5 60L16.5 59.5H13L10.5 61Z" fill="white"/>
<path d="M32.8789 23.5864C32.6878 24.3335 32.0216 27.008 32.8789 29C29.988 29 23.0203 29.0988 23.0203 33.2308C23.0203 35.8643 24.3053 37.922 27.0685 37.922C31.9507 37.922 28.4481 38.5 31 42.7323C36.2867 51.5 43.1095 41.2227 43.6901 42.7323C47.362 52.2792 60.748 50.5748 63.979 41.7321C64.2699 40.936 68.9622 43.0468 70.5 42.7323C73.9503 42.0265 75.2705 39.0298 74.9093 35.7788C74.1636 29.0678 64.9766 34.1211 64.5 31.5C64.0537 29.0454 63.979 25 59.4783 23.5864C56.0499 22.0865 52.7131 24.4348 50 26C48.7613 24.4846 48.6953 22.6631 47.5 21C46.3047 19.3369 43.5388 18.9618 41.6184 19.0857C38.4507 19.2901 33.7254 20.2774 32.8789 23.5864Z" fill="white" stroke="#191919" stroke-width="1.7" stroke-linecap="round"/>
<path fill-rule="evenodd" clip-rule="evenodd" d="M19.6195 59.8706C19.7024 59.4773 19.9314 59.0897 20.3183 58.709C20.8221 58.2134 21.5515 57.7759 22.4015 57.4334C23.2457 57.0932 24.1669 56.8638 25.0168 56.7599C25.8797 56.6544 26.6058 56.686 27.083 56.8161C27.3389 56.8859 27.7104 57.1506 28.1902 57.6923C28.6485 58.2098 29.1053 58.8614 29.5649 59.5307L29.6879 59.7101L29.6879 59.7101C30.0915 60.2991 30.507 60.9054 30.8917 61.3507C31.1027 61.5949 31.3482 61.8436 31.6211 62.0176C31.8902 62.1892 32.3234 62.3717 32.8143 62.2081C33.3379 62.0335 33.8042 61.8736 34.2262 61.7289L34.2264 61.7288C35.3564 61.3413 36.1687 61.0627 36.9129 60.9042C37.8458 60.7055 38.6264 60.71 39.722 61.0158C40.9792 61.5401 42.0701 62.5822 42.6133 63.6792C43.1596 64.7824 43.0838 65.7376 42.4096 66.3884C41.9581 66.8242 41.1123 67.4938 40.2451 68.0242C39.8127 68.2887 39.3993 68.5035 39.0454 68.6383C38.6629 68.784 38.4661 68.7907 38.4128 68.781C38.099 68.7239 37.7459 68.7327 37.4132 68.9055C37.0813 69.0779 36.8885 69.352 36.7737 69.5897C36.6632 69.8187 36.5993 70.0678 36.5538 70.277C36.5242 70.4131 36.4947 70.572 36.4668 70.7225C36.453 70.7971 36.4395 70.8697 36.4266 70.9364C36.2581 71.8075 36.0134 72.6333 35.0656 73.1968C33.7743 73.9646 32.7648 74.5313 31.6559 74.7638C30.5862 74.9881 29.3499 74.9124 27.6264 74.2124C26.8658 73.9034 26.3515 73.474 25.8076 72.9861C25.7628 72.9459 25.7174 72.9048 25.6712 72.8631C25.1728 72.4127 24.588 71.8843 23.7941 71.5314C23.4697 71.3872 23.0853 71.3753 22.7376 71.5789C22.4527 71.7457 22.2921 72.0024 22.2045 72.1686C22.0542 72.4536 21.9398 72.8395 21.8518 73.1363C21.8386 73.1807 21.8261 73.223 21.8141 73.2628C21.7017 73.6347 21.6072 73.9035 21.4993 74.0781C21.4773 74.1138 21.4603 74.1369 21.4484 74.1515C21.003 74.1781 20.65 74.5478 20.65 74.9999C20.65 75.4694 21.0305 75.8499 21.5 75.8499C22.2371 75.8499 22.6935 75.3797 22.9457 74.9715C23.187 74.5807 23.3359 74.1038 23.4415 73.7543L23.482 73.6196C23.5141 73.5129 23.5421 73.4199 23.5675 73.3386C23.8953 73.5529 24.1963 73.8235 24.5646 74.1547L24.6723 74.2514C25.2458 74.766 25.9408 75.3626 26.9868 75.7874C28.9566 76.5875 30.5398 76.7349 32.0048 76.4276C33.4307 76.1286 34.6712 75.4091 35.9344 74.6581C37.541 73.7028 37.9072 72.2336 38.0956 71.2593C38.1148 71.1603 38.1309 71.0732 38.1457 70.9931L38.1457 70.993C38.1698 70.8627 38.1904 70.7511 38.215 70.6382C38.2294 70.5719 38.2427 70.5178 38.2548 70.4739C38.7355 70.5214 39.2347 70.3854 39.6506 70.227C40.1374 70.0415 40.6491 69.7699 41.1321 69.4744C42.0957 68.8851 43.0418 68.1409 43.5903 67.6115C44.988 66.2623 44.8763 64.4183 44.1367 62.9248C43.4 61.4372 41.9733 60.0958 40.3202 59.4236L40.2772 59.4061L40.2325 59.3934C38.852 59.0008 37.7816 58.981 36.5588 59.2414C35.7063 59.423 34.7542 59.7497 33.578 60.1533L33.5778 60.1534C33.2279 60.2735 32.8582 60.4003 32.4654 60.5322C32.3972 60.4755 32.3018 60.3825 32.1781 60.2393C31.8595 59.8705 31.4994 59.3455 31.0764 58.7288L31.0764 58.7288L30.9663 58.5684C30.5132 57.9085 30.0007 57.1726 29.4628 56.5652C28.9464 55.982 28.2948 55.3845 27.5303 55.176C26.7589 54.9656 25.7891 54.9528 24.8105 55.0724C23.8188 55.1937 22.7529 55.459 21.7661 55.8566C20.785 56.2519 19.8395 56.7953 19.1261 57.4972C18.5911 58.0235 18.1646 58.6634 17.9812 59.407C17.8572 59.365 17.729 59.3168 17.5958 59.2632C17.3573 59.1672 17.1193 59.0606 16.8639 58.9463L16.8639 58.9462L16.7822 58.9097C16.5023 58.7845 16.2022 58.6517 15.8958 58.535C15.2859 58.3027 14.5846 58.1073 13.8242 58.1581C13.0409 58.2105 12.2732 58.518 11.5251 59.1564C9.73342 60.6854 8.1499 63.2945 8.1499 66C8.1499 66.4694 8.53046 66.85 8.9999 66.85C9.46934 66.85 9.8499 66.4694 9.8499 66C9.8499 63.9115 11.1141 61.7421 12.6286 60.4496C13.128 60.0234 13.5559 59.8798 13.9376 59.8543C14.3422 59.8273 14.7753 59.9274 15.2908 60.1237C15.547 60.2213 15.8073 60.3359 16.0881 60.4616L16.1713 60.4988L16.1713 60.4988C16.422 60.6111 16.6903 60.7312 16.9606 60.8401C17.5597 61.0814 18.2501 61.3026 18.9999 61.3026C19.4693 61.3026 19.8499 60.922 19.8499 60.4526C19.8499 60.2274 19.7624 60.0227 19.6195 59.8706ZM21.4274 74.1725C21.4273 74.1727 21.4272 74.1728 21.4272 74.1729C21.4272 74.1734 21.4298 74.1717 21.435 74.1665C21.4307 74.1692 21.4282 74.1715 21.4274 74.1725ZM23.7235 72.9357C23.7235 72.9359 23.7219 72.9387 23.7184 72.9433C23.7217 72.9379 23.7234 72.9355 23.7235 72.9357Z" fill="#191919"/>
</svg>
