<svg width="329" height="204" viewBox="0 0 329 204" fill="none" xmlns="http://www.w3.org/2000/svg">
<path d="M214.5 164.5C214.5 166.839 214.55 177 219 180C221 181 222.5 181 223.5 179.5C226 176.5 223.492 168.955 224.5 167.5" stroke="black" stroke-width="2" stroke-linecap="round"/>
<path d="M260 174.927C260.444 177.224 262.423 187.19 267.362 189.291C269.515 189.893 270.988 189.608 271.685 187.945C273.57 184.525 269.675 177.594 270.388 175.974" stroke="black" stroke-width="2" stroke-linecap="round"/>
<path d="M192 131.5C191.466 131.5 191.238 131.047 190.775 130.734C189.634 129.962 188.456 129.113 187.417 128.208C185.5 126.539 184.285 124.261 181 124.5C179 125 178.842 127.545 178.669 128.617C178.437 130.054 178.459 131.885 179.015 133.224C180.224 136.137 188.608 140.748 191.5 142" stroke="black" stroke-width="2" stroke-linecap="round"/>
<path d="M308.762 159.65C309.886 159.769 314.5 161 315.337 163C316.929 166.803 316.072 167.86 315.337 169.329C314 172 306.5 175.393 303 167.5" stroke="black" stroke-width="2" stroke-linecap="round"/>
<path fill-rule="evenodd" clip-rule="evenodd" d="M191.368 139.386C190.715 132.414 194.559 121.005 203.883 114.292C215.035 106.263 223.184 109.456 229.02 111.743C229.86 112.072 230.653 112.383 231.399 112.638C232.816 113.234 234.058 113.804 235.118 114.397C231.587 116.358 228.942 119.568 227.772 124.353C226.993 127.543 227.917 129.923 230.778 131.597C234.284 133.65 236.901 130.195 237.942 127.514C240.013 119.846 238.466 117.332 235.118 114.397C247.531 107.505 270.891 116.068 279.553 126.025C278.105 126.529 276.879 127.231 276.024 128.159C273.012 131.427 270.449 140.135 276.476 142.474C280.45 144.017 281.392 140.224 281.939 133.044C281.799 130.793 281.531 128.299 279.553 126.025C285.025 124.122 293.66 125.049 297.365 127.321C305.193 132.122 309.29 142.809 309.669 151.789C310.04 160.599 302.956 169.006 292.908 173.455C287.91 176.004 279.84 175.493 273.066 175.064C270.699 174.914 268.49 174.774 266.626 174.778C254.318 174.806 242.45 171.682 230.632 168.571C226.687 167.533 222.747 166.496 218.799 165.578C210.558 163.662 193.214 159.115 191.368 139.386Z" fill="#FAC59F"/>
<path d="M235.118 114.397C234.058 113.804 232.816 113.234 231.399 112.638C230.653 112.383 229.86 112.072 229.02 111.743C223.184 109.456 215.035 106.263 203.883 114.292C194.559 121.005 190.715 132.414 191.368 139.386C193.214 159.115 210.558 163.662 218.799 165.578C222.747 166.496 226.687 167.533 230.632 168.571C242.45 171.682 254.318 174.806 266.626 174.778C268.49 174.774 270.699 174.914 273.066 175.064C279.84 175.493 287.91 176.004 292.908 173.455C302.956 169.006 310.04 160.599 309.669 151.789C309.29 142.809 305.193 132.122 297.365 127.321C293.66 125.049 285.025 124.122 279.553 126.025M235.118 114.397C247.531 107.505 270.891 116.068 279.553 126.025M235.118 114.397C238.466 117.332 240.013 119.846 237.942 127.514C236.901 130.195 234.284 133.65 230.778 131.597C227.917 129.923 226.993 127.543 227.772 124.353C228.942 119.568 231.587 116.358 235.118 114.397ZM279.553 126.025C278.105 126.529 276.879 127.231 276.024 128.159C273.012 131.427 270.449 140.135 276.476 142.474C280.45 144.017 281.392 140.224 281.939 133.044C281.799 130.793 281.531 128.299 279.553 126.025Z" stroke="black" stroke-width="1.95825" stroke-linecap="round"/>
<path fill-rule="evenodd" clip-rule="evenodd" d="M191.55 139.294C190.898 132.322 194.741 120.913 204.065 114.2C215.217 106.171 223.366 109.364 229.202 111.651C230.043 111.98 230.835 112.291 231.582 112.546C232.999 113.143 234.241 113.712 235.3 114.305C231.769 116.266 229.124 119.476 227.955 124.261C227.175 127.451 228.1 129.831 230.96 131.505C234.467 133.558 237.083 130.103 238.124 127.422C240.196 119.754 238.648 117.24 235.3 114.305C247.713 107.413 271.074 115.976 279.736 125.933C278.288 126.437 277.061 127.139 276.206 128.067C273.194 131.335 270.632 140.043 276.658 142.382C280.633 143.925 281.574 140.132 282.122 132.952C281.982 130.701 281.713 128.207 279.736 125.933C285.208 124.03 293.842 124.957 297.547 127.229C305.376 132.03 309.473 142.717 309.851 151.697C310.222 160.507 303.139 168.914 293.091 173.363C288.092 175.912 280.023 175.401 273.249 174.972C270.881 174.822 268.672 174.682 266.808 174.686C254.501 174.714 242.633 171.59 230.814 168.479C226.869 167.441 222.93 166.404 218.981 165.486C210.741 163.571 193.397 159.023 191.55 139.294Z" fill="#FAC59F"/>
<path d="M235.3 114.305C234.241 113.712 232.999 113.143 231.582 112.546C230.835 112.291 230.043 111.98 229.202 111.651C223.366 109.364 215.217 106.171 204.065 114.2C194.741 120.913 190.898 132.322 191.55 139.294C193.397 159.023 210.741 163.571 218.981 165.486C222.93 166.404 226.869 167.441 230.814 168.479C242.633 171.59 254.501 174.714 266.808 174.686C268.672 174.682 270.881 174.822 273.249 174.972C280.023 175.401 288.092 175.912 293.091 173.363C303.139 168.914 310.222 160.507 309.851 151.697C309.473 142.717 305.376 132.03 297.547 127.229C293.842 124.957 285.208 124.03 279.736 125.933M235.3 114.305C247.713 107.413 271.074 115.976 279.736 125.933M235.3 114.305C238.648 117.24 240.196 119.754 238.124 127.422C237.083 130.103 234.467 133.558 230.96 131.505C228.1 129.831 227.175 127.451 227.955 124.261C229.124 119.476 231.769 116.266 235.3 114.305ZM279.736 125.933C278.288 126.437 277.061 127.139 276.206 128.067C273.194 131.335 270.632 140.043 276.658 142.382C280.633 143.925 281.574 140.132 282.122 132.952C281.982 130.701 281.713 128.207 279.736 125.933Z" stroke="black" stroke-width="1.95825" stroke-linecap="round"/>
<path d="M238.04 138.114C237.934 138.411 237.685 138.492 237.412 138.593C236.522 138.922 235.681 140.407 235.067 141.107" stroke="black" stroke-width="1.95825" stroke-linecap="round"/>
<path d="M258.951 142.68C259.337 143.307 261.095 146.341 261.174 146.293" stroke="black" stroke-width="1.95825" stroke-linecap="round"/>
<path d="M240.923 148.462C242.28 152.171 244.987 153.881 248.817 152.819C250.447 152.367 251.738 151.926 252.587 150.416" stroke="black" stroke-width="1.95825" stroke-linecap="round"/>
<path d="M92.8385 74.4256C93.888 74.613 98.149 76.0912 98.8022 78.0485C100.044 81.7705 99.167 82.7185 98.3758 84.0658C96.9372 86.5154 89.1191 88.4218 86.3562 80.684" stroke="black" stroke-width="1.92695" stroke-linecap="round"/>
<path d="M59.1234 88.0468C59.6077 88.9965 61.0018 93.2858 59.836 94.9882C57.6189 98.2257 56.3334 98.0985 54.7816 98.2812C51.9603 98.6133 45.7204 93.532 50.2207 86.6577" stroke="black" stroke-width="1.92695" stroke-linecap="round"/>
<path d="M32.5 73.9998C32.2297 75.031 30.5801 77.8755 28.5772 78.371C24.768 79.3131 23.5 77.9998 22.5 76.4998C20.9242 74.1361 19.0072 67.8932 26.9403 65.7546" stroke="black" stroke-width="1.92695" stroke-linecap="round"/>
<path d="M100 49.0377C101.706 49.2376 103.349 49.4641 105.062 49.2026C106.365 49.0038 107.711 48.7159 108.969 48.316C109.373 48.1878 109.315 47.9356 109.371 47.5325C109.668 45.4208 108.969 43.7891 109.206 41.2024C109.5 37.9997 113.943 39.1281 114.567 40.7591C114.724 41.1674 114.716 43.5791 114.835 43.9996C116.101 42.9079 117.861 39.8903 119.5 40.4996C120.742 40.9612 121.5 41.8805 121.5 42.9998C121.5 43.7678 119.217 45.7542 119 46.4998C118.837 47.061 119.5 46.9998 120.5 48.4998C121.5 49.9998 122.174 52.913 119.805 54.8419C118.895 55.5824 117.896 56.0827 116.774 56.3677C116.147 56.5269 113.5 57.4998 110.464 55.976C110.064 55.8376 109.752 55.5327 109.31 55.5327C108.064 55.5327 104.217 55.7266 103 55.976C102.288 56.1218 100.668 56.1743 100 56.4605" stroke="black" stroke-width="1.78585" stroke-linecap="round"/>
<path d="M40.3927 23.0056C31.1941 24.17 25.4952 32.1898 23.0177 40.5152C20.288 49.6881 22.8302 69.8847 44.8632 83.6486C55.9095 90.5491 71.1326 86.8414 77.8094 84.6394C110.218 71.9915 97.3099 31.8836 93.8046 26.6286C90.8116 22.1417 85.6453 17.2118 80.2457 15.8859C73.5679 14.2462 66.2708 18.0055 61.9436 22.8847C60.7728 24.2048 59.6214 25.7278 58.6163 27.3751C59.4884 28.1246 60.2595 28.9771 60.899 29.9406C63.4305 33.7545 65.6955 41.2806 61.5578 44.8883C57.5873 48.3504 55.573 41.0924 55.3771 38.4343C55.1002 34.6783 56.5486 30.7637 58.6163 27.3751C53.8835 23.3077 46.1764 22.2735 40.3927 23.0056Z" fill="#FFBBBB"/>
<path d="M58.6163 27.3751C53.8835 23.3077 46.1764 22.2735 40.3927 23.0056C31.1941 24.17 25.4952 32.1898 23.0177 40.5152C20.288 49.6881 22.8302 69.8847 44.8632 83.6486C55.9095 90.5491 71.1326 86.8414 77.8094 84.6394C110.218 71.9915 97.3099 31.8836 93.8046 26.6286C90.8116 22.1417 85.6453 17.2118 80.2457 15.8859C73.5679 14.2462 66.2708 18.0055 61.9436 22.8847C60.7728 24.2048 59.6214 25.7278 58.6163 27.3751ZM58.6163 27.3751C56.5486 30.7637 55.1002 34.6783 55.3771 38.4343C55.573 41.0924 57.5873 48.3504 61.5578 44.8883C65.6955 41.2806 63.4305 33.7545 60.899 29.9406C60.2595 28.9771 59.4884 28.1246 58.6163 27.3751Z" stroke="black" stroke-width="1.82704" stroke-linecap="round"/>
<path d="M59.5 58.9999L67.5 57.4999L66.5 65.9999L65 67.4999L61.5 65.9999L59.5 61.4999V58.9999Z" fill="white" stroke="black"/>
<path d="M70.7382 57.1171C67.5765 57.5717 65.0949 58.0281 61.9533 58.3887C61.678 58.5169 59.597 58.6899 59.4336 59.011C58.8048 60.247 60.4775 63.8785 61 64.9999C61.9533 66.4999 63.5 67.4999 65 67.4999C67.6467 66.9999 67.7159 59.6541 67.6467 57.5853" stroke="black" stroke-width="1.7" stroke-linecap="round"/>
<path d="M49.7312 51.6587C48.5002 53.3789 47.5491 54.9607 46.7062 57.0111" stroke="black" stroke-width="1.82704" stroke-linecap="round"/>
<path d="M75.2395 49.7782C76.851 49.6594 78.1594 51.794 78.8913 52.9286" stroke="black" stroke-width="1.82704" stroke-linecap="round"/>
<path d="M162.12 123.496C162.12 116.886 162.316 111.284 162.12 105.011C162.775 103.776 164.252 104.073 165.389 104.073H179.27H184.612C185.777 104.073 186.538 103.612 186.538 105.011C186.538 111.502 186.876 114.682 186.876 121.567C186.876 124.598 187.155 134.952 186.876 138.369C186.432 138.861 171.134 138.962 170.615 138.923C168.994 139.066 166.665 138.97 165.04 138.947C164.372 138.937 162.702 138.943 162.184 138.369C161.812 135.488 162.12 127.03 162.12 123.496Z" fill="#BFC7D6" stroke="black" stroke-width="1.78585" stroke-linecap="round"/>
<path d="M166.081 123.04C166.081 117.941 166.215 113.619 166.081 108.78C166.527 107.827 167.531 108.056 168.305 108.056H177.743H181.376C182.169 108.056 182.686 107.701 182.686 108.78C182.686 113.787 182.916 116.241 182.916 121.552C182.916 123.89 183.105 131.877 182.916 134.513C182.614 134.893 172.211 134.97 171.858 134.941C170.756 135.051 169.172 134.977 168.067 134.959C167.613 134.951 166.477 134.956 166.125 134.513C165.872 132.291 166.081 125.766 166.081 123.04Z" fill="white"/>
<mask id="mask0_1302_4729" style="mask-type:alpha" maskUnits="userSpaceOnUse" x="165" y="107" width="19" height="30">
<path d="M166.081 123.597C166.081 118.309 166.215 113.828 166.081 108.809C166.527 107.821 167.531 108.058 168.305 108.058H177.743H181.376C182.169 108.058 182.686 107.69 182.686 108.808C182.686 114.002 182.916 116.546 182.916 122.054C182.916 124.478 183.105 132.762 182.916 135.495C182.614 135.889 172.211 135.969 171.858 135.939C170.756 136.053 169.172 135.976 168.067 135.957C167.613 135.95 166.477 135.955 166.125 135.495C165.872 133.191 166.081 126.424 166.081 123.597Z" fill="#D9D9D9" stroke="black" stroke-width="1.78585" stroke-linecap="round"/>
</mask>
<g mask="url(#mask0_1302_4729)">
<path d="M168.678 109.949C165.665 110.33 163.799 112.956 162.988 115.682C162.094 118.686 162.927 125.299 170.141 129.806C173.758 132.066 178.743 130.852 180.929 130.131C191.542 125.989 187.315 112.856 186.167 111.135C185.187 109.666 183.495 108.052 181.727 107.618C179.541 107.081 177.151 108.312 175.734 109.909C175.351 110.342 174.974 110.84 174.645 111.38C174.93 111.625 175.183 111.904 175.392 112.22C176.221 113.469 176.963 115.933 175.608 117.114C174.308 118.248 173.648 115.871 173.584 115.001C173.493 113.771 173.968 112.489 174.645 111.38C173.095 110.048 170.571 109.709 168.678 109.949Z" fill="#FFBBBB"/>
<path d="M174.645 111.38C173.095 110.048 170.571 109.709 168.678 109.949C165.665 110.33 163.799 112.956 162.988 115.682C162.094 118.686 162.927 125.299 170.141 129.806C173.758 132.066 178.743 130.852 180.929 130.131C191.542 125.989 187.315 112.856 186.167 111.135C185.187 109.666 183.495 108.052 181.727 107.618C179.541 107.081 177.151 108.312 175.734 109.909C175.351 110.342 174.974 110.84 174.645 111.38ZM174.645 111.38C173.968 112.489 173.493 113.771 173.584 115.001C173.648 115.871 174.308 118.248 175.608 117.114C176.963 115.933 176.221 113.469 175.392 112.22C175.183 111.904 174.93 111.625 174.645 111.38Z" stroke="black" stroke-width="0.510879" stroke-linecap="round"/>
<path d="M174.934 121.735L177.554 121.244L177.226 124.027L176.735 124.518L175.589 124.027L174.934 122.554V121.735Z" fill="white" stroke="black" stroke-width="0.279621"/>
<path d="M178.614 121.118C177.579 121.267 176.766 121.417 175.737 121.535C175.647 121.577 174.966 121.634 174.912 121.739C174.707 122.143 175.254 123.333 175.425 123.7C175.737 124.191 176.244 124.518 176.735 124.518C177.602 124.355 177.624 121.949 177.602 121.272" stroke="black" stroke-width="0.475355" stroke-linecap="round"/>
<path d="M171.735 119.331C171.332 119.895 171.021 120.412 170.745 121.084" stroke="black" stroke-width="0.510879" stroke-linecap="round"/>
<path d="M180.088 118.715C180.616 118.677 181.044 119.376 181.284 119.747" stroke="black" stroke-width="0.510879" stroke-linecap="round"/>
<path d="M166.081 123.04C166.081 117.941 166.215 113.619 166.081 108.78C166.527 107.827 167.531 108.056 168.305 108.056H177.743H181.376C182.169 108.056 182.686 107.701 182.686 108.78C182.686 113.787 182.916 116.241 182.916 121.552C182.916 123.89 183.105 131.877 182.916 134.513C182.614 134.893 172.211 134.97 171.858 134.941C170.756 135.051 169.172 134.977 168.067 134.959C167.613 134.951 166.477 134.956 166.125 134.513C165.872 132.291 166.081 125.766 166.081 123.04Z" stroke="black" stroke-width="1.78585" stroke-linecap="round"/>
</g>
<path d="M296.775 94.9073C297.117 95.7188 297.493 96.721 297.99 97.3723C299.608 96.4532 301.007 94.1686 304.549 96.101C307.383 97.6468 306.862 99.6636 306.398 101.463C305.239 103.839 302.745 106.218 299.88 107.92C299.277 108.236 295.215 111.36 294.569 110.619C293.161 107.404 288.041 100.399 288.969 96.9619C289.561 94.6725 291.536 93.2831 293.183 93.1658C294.83 93.0484 296.02 93.121 296.775 94.9073Z" fill="#FE6B57" stroke="#FE6B57" stroke-linecap="round"/>
<path d="M4.23958 18.7353C4.55277 18.9827 4.92072 19.2985 5.26058 19.4491C5.70824 18.7331 5.77125 17.5236 7.60708 17.5209C9.07574 17.5188 9.30537 18.4316 9.51021 19.246C9.5629 20.4398 9.08216 21.9248 8.30649 23.2218C8.1339 23.4783 7.18813 25.5991 6.76882 25.4451C5.50784 24.4758 1.94023 22.8093 1.56504 21.2445C1.30437 20.2082 1.79251 19.2284 2.42546 18.8243C3.05842 18.4202 3.55017 18.1906 4.23958 18.7353Z" stroke="#FE6B57" stroke-linecap="round"/>
<line x1="99.5" y1="-2.18557e-08" x2="99.5" y2="12" stroke="#FAC59F"/>
<line x1="96" y1="5.5" x2="103" y2="5.5" stroke="#FAC59F"/>
<line x1="26.5" y1="101" x2="26.5" y2="113" stroke="#FAC59F"/>
<line x1="23" y1="106.5" x2="30" y2="106.5" stroke="#FAC59F"/>
<circle cx="200" cy="93" r="2.5" stroke="#8BD0F6"/>
<circle cx="153.5" cy="171.5" r="7" stroke="#BEF0DB"/>
</svg>
