<svg width="269" height="191" viewBox="0 0 269 191" fill="none" xmlns="http://www.w3.org/2000/svg">
<path fill-rule="evenodd" clip-rule="evenodd" d="M106.155 117C111.176 124.311 119.039 129.672 127.068 133.203C128.701 133.546 130.248 133.944 131.759 134.332C135.939 135.406 139.839 136.407 144.5 136C145.355 135.925 146.18 135.858 146.982 135.792C152.284 135.358 156.592 135.005 162 133.203C176.684 128.308 184.347 122.035 192.899 109.643C196.837 102.554 197.143 93.1436 197.433 84.2166C197.438 84.0564 197.443 83.8963 197.449 83.7364C198.72 44.7519 174.787 39.7275 168.042 40.6857C161.7 41.5868 154.278 43.7351 149.455 48.2249C137.429 38.6781 117.043 46.1578 106.155 55.5078C95.776 64.421 93.1039 75.7776 93.5959 89.4156C93.9514 99.2678 99.6983 107.618 105.384 115.878C105.641 116.252 105.899 116.626 106.155 117ZM149.455 48.2249C149.128 48.53 148.812 48.8458 148.51 49.1729C143.704 54.3676 141.791 60.7094 145.911 67.1014C147.955 70.2733 153.661 74.9526 157.078 70.7765C160.813 66.2111 157.002 58.5525 154.601 54.3301C153.16 51.797 151.419 49.7839 149.455 48.2249Z" fill="#FFBBBB"/>
<path d="M149.455 48.2249C137.429 38.6781 117.043 46.1578 106.155 55.5078C95.776 64.421 93.1039 75.7776 93.5959 89.4156C93.9514 99.2678 99.6983 107.618 105.384 115.878C105.641 116.252 105.899 116.626 106.155 117C111.176 124.311 119.039 129.672 127.068 133.203C128.701 133.546 130.248 133.944 131.759 134.332C135.939 135.406 139.839 136.407 144.5 136C145.355 135.925 146.18 135.858 146.982 135.792C152.284 135.358 156.592 135.005 162 133.203C176.684 128.308 184.347 122.035 192.899 109.643C196.837 102.554 197.143 93.1436 197.433 84.2166C197.438 84.0564 197.443 83.8963 197.449 83.7364C198.72 44.7519 174.787 39.7275 168.042 40.6857C161.7 41.5868 154.278 43.7351 149.455 48.2249ZM149.455 48.2249C149.128 48.53 148.812 48.8458 148.51 49.1729C143.704 54.3676 141.791 60.7094 145.911 67.1014C147.955 70.2733 153.661 74.9526 157.078 70.7765C160.813 66.2111 157.002 58.5525 154.601 54.3301C153.16 51.797 151.419 49.7839 149.455 48.2249Z" stroke="black" stroke-width="1.60366" stroke-linecap="round"/>
<path d="M138.511 84C136.998 84.8764 132.601 88.1339 133.029 89.8476" stroke="black" stroke-width="1.60366" stroke-linecap="round"/>
<path d="M169 83C170.941 83.194 174.435 87.1974 174.848 88.8476" stroke="black" stroke-width="1.60366" stroke-linecap="round"/>
<path d="M149.6 98.4177C150.841 99.7965 152.494 102.358 154.696 101.991C156.023 101.77 158.412 99.7187 158.737 98.4177" stroke="black" stroke-width="1.60366" stroke-linecap="round"/>
<path d="M100.455 108.616C100.308 107.293 96.2847 108.59 95.4733 108.616C91.2943 108.753 88.4277 112.16 88.4277 116.23C88.4277 124.69 102.689 125.113 107.5 119.5" stroke="black" stroke-width="1.60366" stroke-linecap="round"/>
<path d="M196.719 96.9947C198.189 94.8751 201.996 94.6141 203.897 96.093C206.403 98.0431 208.589 101.987 207.8 105.25C206.768 109.515 203.165 112.546 199.02 113.359C195.448 114.059 195.338 112.305 193.052 109.78" stroke="black" stroke-width="1.60366" stroke-linecap="round"/>
<path d="M120.357 130C113.226 130 113.203 142.626 120.357 143.94C127.37 145.228 131.948 141.219 133.372 134.811" stroke="black" stroke-width="1.60366" stroke-linecap="round"/>
<path d="M180.66 122.938C184.605 122.938 186.979 127.679 187.726 131.141C188.691 135.615 184.773 138.766 180.782 139.668C173.647 141.282 168.042 138.509 168.844 131.141" stroke="black" stroke-width="1.60366" stroke-linecap="round"/>
<path d="M75.5 103C61.1 103 51.5 108.5 47.5 111.5C47.1 112.7 52.3333 112.667 55 112.5L61 111.5L68 110L77.5 107L79 104.5L75.5 103Z" fill="#92694B"/>
<path d="M50.6033 105.188C56.3582 101.637 60.364 102 66.8158 100.241C70.908 99.1247 78.5337 98.7377 79.1274 104.675C79.4725 108.125 69.9006 109.476 67.4437 110.003C63.1631 110.92 58.7275 112.348 54.3329 112.552C52.6227 112.632 47.4206 113.097 46.417 111.201C45.0911 108.697 49.0002 106.177 50.6033 105.188Z" stroke="black" stroke-width="1.60366" stroke-linecap="round"/>
<path d="M81.8018 107.207L81 105.604L83.4055 104C83.4055 104 87.4146 104 89.0183 105.604C90.6219 107.207 92.2256 111.216 92.2256 111.216V117.631L89.8201 120.037L84.2073 120.838V118.433C86.0782 117.898 89.4994 115.707 88.2165 111.216C86.9335 106.726 83.4055 106.673 81.8018 107.207Z" fill="white"/>
<path d="M45.9309 110.469C45.9309 118.802 48.7827 129.248 56.3547 133.722C63.4636 137.923 75.7158 135.805 81.0491 128.594C85.1422 123.059 83.7591 115.031 81.2013 109.184C80.8797 108.449 80.0019 104.265 79.4887 104.009" stroke="black" stroke-width="1.60366" stroke-linecap="round"/>
<path d="M80.4097 104.055C84.2704 102.429 87.9175 103.439 90.1069 107.167C91.8156 110.077 92.162 112.888 92.162 116.168C92.162 119.341 86.8243 120.893 83.617 120.091" stroke="black" stroke-width="1.60366" stroke-linecap="round"/>
<path d="M80.5161 106.406C85.1255 106.15 88.394 108.156 88.394 113.276C88.394 115.473 85.8873 119.601 83.9413 116.682" stroke="black" stroke-width="1.60366" stroke-linecap="round"/>
<path d="M47.6345 81.7449C45.8975 81.9186 44.3371 84.3761 44 85.8931C44.3273 88.82 46.7328 87.2163 49.6325 89.6228C50.7431 90.826 51.6786 93.6202 50.8313 95.1792C50.3614 96.0438 49.94 96.8383 49.1382 96.8383" stroke="black" stroke-width="1.60366" stroke-linecap="round"/>
<path d="M59.3336 81.6775C58.2236 81.6775 57.7924 82.1186 57.2023 83.1617C55.647 85.9113 56.3065 87.04 58.5724 88.7943C60.0368 89.928 61.2268 91.6794 60.4753 93.5895" stroke="black" stroke-width="1.60366" stroke-linecap="round"/>
<path d="M69.7231 80.2831C69.4516 79.197 67.2288 81.4685 67.9609 83.1292C69.2666 86.0908 71.6985 89.1022 67.5803 90.1317" stroke="black" stroke-width="1.60366" stroke-linecap="round"/>
<path d="M224.36 20.8708V27.8277M224.36 34.7846V27.8277M224.36 27.8277H220.302H228.418" stroke="#64C980" stroke-width="1.15948" stroke-linejoin="round"/>
<path d="M151.892 0V4.05819M151.892 8.11638V4.05819M151.892 4.05819H149.573H154.211" stroke="#FFBBBB" stroke-width="1.15948" stroke-linejoin="round"/>
<path d="M58.5538 163.487V170.444M58.5538 177.401V170.444M58.5538 170.444H54.4956H62.612" stroke="#8BD0F6" stroke-width="1.15948" stroke-linejoin="round"/>
<circle cx="74.7866" cy="23.7696" r="2.31897" stroke="#FE6B57" stroke-width="1.15948"/>
<circle cx="222.041" cy="144.356" r="2.31897" stroke="#FFBBBB" stroke-width="1.15948"/>
<circle cx="2.89871" cy="104.933" r="2.31897" stroke="#FFBBBB" stroke-width="1.15948"/>
<circle cx="151.892" cy="185.517" r="4.05819" stroke="#FE6B57" stroke-width="1.15948"/>
<circle cx="261.463" cy="78.2652" r="6.9569" stroke="#8BD0F6" stroke-width="1.15948"/>
</svg>
