<svg width="20" height="20" viewBox="0 0 20 20" fill="none" xmlns="http://www.w3.org/2000/svg">
<g clip-path="url(#clip0_444_1669)">
<path d="M15.8333 0H4.16667C3.062 0.00132321 2.00296 0.440735 1.22185 1.22185C0.440735 2.00296 0.00132321 3.062 0 4.16667L0 15.8333C0.00132321 16.938 0.440735 17.997 1.22185 18.7782C2.00296 19.5593 3.062 19.9987 4.16667 20H15.8333C16.938 19.9987 17.997 19.5593 18.7782 18.7782C19.5593 17.997 19.9987 16.938 20 15.8333V4.16667C19.9987 3.062 19.5593 2.00296 18.7782 1.22185C17.997 0.440735 16.938 0.00132321 15.8333 0V0ZM4.16667 1.66667H15.8333C16.4964 1.66667 17.1323 1.93006 17.6011 2.3989C18.0699 2.86774 18.3333 3.50363 18.3333 4.16667V15.8333C18.3319 16.2046 18.2464 16.5707 18.0833 16.9042L10.4475 9.26833C10.0606 8.88131 9.6012 8.57429 9.0956 8.36483C8.59001 8.15537 8.0481 8.04756 7.50083 8.04756C6.95357 8.04756 6.41166 8.15537 5.90607 8.36483C5.40047 8.57429 4.94109 8.88131 4.55417 9.26833L1.66667 12.155V4.16667C1.66667 3.50363 1.93006 2.86774 2.3989 2.3989C2.86774 1.93006 3.50363 1.66667 4.16667 1.66667V1.66667ZM4.16667 18.3333C3.50363 18.3333 2.86774 18.0699 2.3989 17.6011C1.93006 17.1323 1.66667 16.4964 1.66667 15.8333V14.5117L5.73167 10.4467C5.96383 10.2144 6.2395 10.0301 6.54292 9.90432C6.84634 9.77858 7.17156 9.71387 7.5 9.71387C7.82844 9.71387 8.15366 9.77858 8.45708 9.90432C8.7605 10.0301 9.03617 10.2144 9.26833 10.4467L16.9042 18.0833C16.5707 18.2464 16.2046 18.3319 15.8333 18.3333H4.16667Z" fill="#B0B0B1"/>
<path d="M13.3334 8.74996C13.9103 8.74996 14.4742 8.5789 14.9538 8.25841C15.4335 7.93793 15.8073 7.4824 16.0281 6.94945C16.2488 6.4165 16.3066 5.83006 16.194 5.26428C16.0815 4.6985 15.8037 4.1788 15.3958 3.7709C14.9879 3.363 14.4682 3.08521 13.9024 2.97267C13.3366 2.86013 12.7502 2.91789 12.2173 3.13865C11.6843 3.3594 11.2288 3.73324 10.9083 4.21288C10.5878 4.69252 10.4167 5.25643 10.4167 5.83329C10.4167 6.60684 10.724 7.34871 11.271 7.89569C11.818 8.44267 12.5599 8.74996 13.3334 8.74996V8.74996ZM13.3334 4.58329C13.5806 4.58329 13.8223 4.65661 14.0279 4.79396C14.2334 4.93131 14.3937 5.12653 14.4883 5.35494C14.5829 5.58335 14.6076 5.83468 14.5594 6.07716C14.5112 6.31963 14.3921 6.54236 14.2173 6.71718C14.0425 6.89199 13.8198 7.01104 13.5773 7.05928C13.3348 7.10751 13.0835 7.08275 12.8551 6.98814C12.6267 6.89353 12.4314 6.73332 12.2941 6.52776C12.1567 6.3222 12.0834 6.08052 12.0834 5.83329C12.0834 5.50177 12.2151 5.18383 12.4495 4.94941C12.684 4.71499 13.0019 4.58329 13.3334 4.58329V4.58329Z" fill="#B0B0B1"/>
</g>
<defs>
<clipPath id="clip0_444_1669">
<rect width="20" height="20" fill="white"/>
</clipPath>
</defs>
</svg>
