<svg width="80" height="80" viewBox="0 0 80 80" fill="none" xmlns="http://www.w3.org/2000/svg">
<mask id="mask0_272_2196" style="mask-type:alpha" maskUnits="userSpaceOnUse" x="0" y="0" width="80" height="80">
<path d="M80 40C80 62.0914 62.0914 80 40 80C17.9086 80 0 62.0914 0 40C0 17.9086 17.9086 0 40 0C62.0914 0 80 17.9086 80 40Z" fill="#C5C5C5"/>
</mask>
<g mask="url(#mask0_272_2196)">
<rect width="80" height="80" fill="#FFBBBB"/>
<path fill-rule="evenodd" clip-rule="evenodd" d="M12.0725 44.7598C10.9953 41.5835 11.5207 35.8409 15.121 31.6788C19.427 26.7008 23.5784 27.2848 26.5514 27.7031C26.9795 27.7634 27.3832 27.8202 27.7594 27.8564C28.4857 27.9772 29.1277 28.1049 29.6871 28.2638C28.2593 29.5689 27.3829 31.3582 27.3686 33.7173C27.3591 35.2903 28.0538 36.2966 29.5726 36.7598C31.4341 37.3274 32.2702 35.4271 32.4579 34.0623C32.5726 30.2598 31.5726 29.2598 29.6871 28.2638C34.7069 23.6755 46.5419 25.0747 51.6824 28.7538C51.0636 29.1492 50.5699 29.6123 50.2744 30.1395C49.2333 31.9964 49.005 36.338 52.0726 36.7598C54.0957 37.0379 54.1137 35.1662 53.5726 31.7598C53.2577 30.7262 52.8561 29.5938 51.6824 28.7538C54.021 27.2599 58.1474 26.7341 60.1255 27.3819C64.306 28.751 67.4003 33.2763 68.5726 37.4187C69.7227 41.4827 67.3543 46.186 63.1657 49.3732C61.1193 51.1156 57.3025 51.7723 54.0984 52.3237C52.9787 52.5164 51.9339 52.6961 51.0656 52.9049C45.3339 54.2829 39.4573 54.1434 33.6052 54.0046C31.6517 53.9583 29.701 53.912 27.7593 53.9223C23.7072 53.9436 15.121 53.748 12.0725 44.7598Z" fill="white"/>
<path d="M29.6871 28.2638C29.1277 28.1049 28.4857 27.9772 27.7594 27.8564C27.3832 27.8202 26.9795 27.7634 26.5514 27.7031C23.5784 27.2848 19.427 26.7008 15.121 31.6788C11.5207 35.8409 10.9953 41.5835 12.0725 44.7598C15.121 53.748 23.7072 53.9436 27.7593 53.9223C29.701 53.912 31.6517 53.9583 33.6052 54.0046C39.4573 54.1434 45.3339 54.2829 51.0656 52.9049C51.9339 52.6961 52.9787 52.5164 54.0984 52.3237C57.3025 51.7723 61.1193 51.1156 63.1657 49.3732C67.3543 46.186 69.7227 41.4827 68.5726 37.4187C67.4003 33.2763 64.306 28.751 60.1255 27.3819C58.1474 26.7341 54.021 27.2599 51.6824 28.7538M29.6871 28.2638C34.7069 23.6755 46.5419 25.0747 51.6824 28.7538M29.6871 28.2638C31.5726 29.2598 32.5726 30.2598 32.4579 34.0623C32.2702 35.4271 31.4341 37.3274 29.5726 36.7598C28.0538 36.2966 27.3591 35.2903 27.3686 33.7173C27.3829 31.3582 28.2593 29.5689 29.6871 28.2638ZM51.6824 28.7538C51.0636 29.1492 50.5699 29.6123 50.2744 30.1395C49.2333 31.9964 49.005 36.338 52.0726 36.7598C54.0957 37.0379 54.1137 35.1662 53.5726 31.7598C53.2577 30.7262 52.8561 29.5938 51.6824 28.7538Z" stroke="black" stroke-linecap="round"/>
<path d="M35.2452 38.1411C35.2275 38.3011 35.1134 38.3708 34.9899 38.4532C34.5867 38.722 34.3442 39.5594 34.1218 39.9794" stroke="black" stroke-linecap="round"/>
<path d="M46.1729 37.9368C46.439 38.2029 47.6711 39.5023 47.7048 39.4687" stroke="black" stroke-linecap="round"/>
<path d="M37.9006 42.9411C39.0135 44.6233 40.5607 45.1526 42.3375 44.1723C43.0941 43.7549 43.6832 43.3828 43.9262 42.5326" stroke="black" stroke-linecap="round"/>
</g>
</svg>
