<svg width="126" height="130" viewBox="0 0 126 130" fill="none" xmlns="http://www.w3.org/2000/svg">
<path fill-rule="evenodd" clip-rule="evenodd" d="M27.3154 117.869C41.1552 124.257 60.2148 131.581 78.4161 127.45C88.7398 125.107 92.4896 122.484 96.1887 119.897C96.6487 119.575 97.1079 119.254 97.5789 118.934C103.966 114.593 110.367 108.724 114.868 100.824C120.801 90.411 123.807 79.2206 124.077 67.2842C124.263 59.1064 122.814 52.0157 119.587 44.5052C117.252 39.0721 113.098 34.4016 109.071 30.1357C103.949 24.71 98.7546 20.6627 91.1581 19.6362C85.3423 18.8502 79.0272 19.9399 73.5718 21.9712C69.1436 23.62 64.4257 25.8949 61.6026 29.8581C60.8413 30.927 60.1779 32.0652 59.6002 33.2496C58.8548 32.7549 58.1092 32.283 57.3734 31.8339C50.1759 27.4406 43.4866 26.401 35.2149 27.9966C25.9754 29.779 16.6637 33.8407 10.6235 41.2884C-0.387877 54.8655 0.564357 75.9363 5.62676 91.6635C8.75694 101.388 17.734 112.546 27.3154 117.869ZM59.6002 33.2496C58.3297 35.8541 57.4735 38.6817 56.8999 41.4844C52.0361 64.0929 68.8244 62.5028 71.1989 56.6408C75.3856 46.3049 67.5075 38.4972 59.6002 33.2496Z" fill="white"/>
<path d="M59.6002 33.2496C58.8548 32.7549 58.1092 32.283 57.3734 31.8339C50.1759 27.4406 43.4866 26.401 35.2149 27.9966C25.9754 29.779 16.6637 33.8407 10.6234 41.2884C-0.387877 54.8655 0.564357 75.9363 5.62676 91.6635C8.75694 101.388 17.734 112.546 27.3154 117.869C41.1552 124.257 60.2148 131.581 78.4161 127.45C88.7398 125.107 92.4896 122.484 96.1887 119.897C96.6487 119.575 97.1079 119.254 97.5789 118.934C103.966 114.593 110.367 108.724 114.868 100.824C120.801 90.411 123.807 79.2206 124.077 67.2842C124.263 59.1064 122.814 52.0157 119.587 44.5052C117.252 39.0721 113.098 34.4016 109.071 30.1357C103.949 24.71 98.7546 20.6627 91.1581 19.6362C85.3423 18.8502 79.0272 19.9399 73.5718 21.9712C69.1436 23.62 64.4257 25.8949 61.6026 29.8581C60.8413 30.927 60.1779 32.0652 59.6002 33.2496ZM59.6002 33.2496C58.3297 35.8541 57.4735 38.6817 56.8999 41.4844C52.0361 64.0929 68.8244 62.5028 71.1989 56.6408C75.3856 46.3049 67.5075 38.4971 59.6002 33.2496Z" stroke="black" stroke-width="2.1292" stroke-linecap="round"/>
<path d="M45.4663 68C44.4208 69.0455 43.3693 70.0826 42.2985 71.1025C41.4954 71.8673 39 73.4716 39 74.7602" stroke="black" stroke-width="2.1292" stroke-linecap="round"/>
<path d="M85 63C87.6328 63.8044 91.0005 65.7674 92.9359 67.7027" stroke="black" stroke-width="2.1292" stroke-linecap="round"/>
<path d="M61 94.0618C61.6534 93.8658 62.014 92.8714 62.4043 92.3962C64.0387 90.4065 66.3936 87.6507 69.0665 87.171C71.081 86.8094 72.9015 87.0313 74.798 87.7425C76.3813 88.3362 77.8436 89.3586 79.1579 90.4041C79.5816 90.7411 81.5746 92.355 81.5746 92.2983" stroke="black" stroke-width="2.1292" stroke-linecap="round"/>
<path d="M41.5622 98.7793C40.0426 94.944 42.009 89.312 42.7052 85.4875C42.9204 84.3059 43.5199 82.3707 43.8388 81.3798C44.3551 79.775 45.2702 83.7311 45.6445 84.4261C47.1406 87.2046 48.7458 90.293 49.4981 93.3908C50.2149 96.3423 49.4701 100.599 46.1017 101.441C43.7999 102.016 42.4102 100.92 41.5622 98.7793Z" fill="#8BD0F6" stroke="black" stroke-width="2.1292" stroke-linecap="round"/>
<path d="M41.3761 9.82323C41.2777 10.0598 41.3685 9.30917 41.4013 9.0551C41.6652 7.00958 41.8879 4.94319 42.2909 2.9193C42.3976 2.38346 42.4639 2.30668 42.9016 2.7406C44.0148 3.84408 44.9466 5.12274 45.9598 6.31443C46.466 6.90995 47.0509 7.74302 47.785 8.09004C48.2414 8.30577 48.4235 6.72653 48.4658 6.53237C48.8429 4.80222 49.164 3.05857 49.5099 1.32187" stroke="black" stroke-width="1.32263" stroke-linecap="round"/>
<path d="M56.988 4.76626C56.6319 6.25974 58.4806 9.52772 60.1095 7.73292C61.051 6.69561 60.7459 5.13922 59.9947 4.1063C59.5727 3.52595 59.0962 3.23089 58.4073 3.09369C57.5513 2.92321 57.3261 3.15973 56.9209 3.94781" stroke="black" stroke-width="1.32263" stroke-linecap="round"/>
<path d="M65.8226 1.55987C64.2652 1.13238 69.0524 1.46253 70.6672 1.48954" stroke="black" stroke-width="1.32263" stroke-linecap="round"/>
<path d="M68.876 1.82275C68.509 3.86179 68.8211 6.03606 69.0138 8.06094" stroke="black" stroke-width="1.32263" stroke-linecap="round"/>
<path d="M77.2412 3.48883C77.1538 4.31671 76.8129 10.0743 77.2909 10.1695" stroke="black" stroke-width="1.32263" stroke-linecap="round"/>
<path d="M77.6641 6.56308C78.9794 6.64942 80.3069 6.74434 81.6021 7.00229" stroke="black" stroke-width="1.32263" stroke-linecap="round"/>
<path d="M82.0201 3.75037C82.0886 5.99372 82.1517 8.23613 82.2911 10.4751" stroke="black" stroke-width="1.32263" stroke-linecap="round"/>
<path d="M89.3062 3.85272C89.1293 4.74065 89.2469 5.67774 89.2887 6.57124C89.3484 7.84682 89.3886 9.1274 89.4909 10.4006C89.5398 11.0085 89.5025 10.6736 89.5771 10.5775" stroke="black" stroke-width="1.32263" stroke-linecap="round"/>
<path d="M95.9217 11.2658C96.0346 10.699 96.1616 10.139 96.3087 9.57936C96.3795 9.30988 96.9292 6.41903 97.2647 6.38323C97.5331 6.35459 98.509 8.16486 98.6551 8.38533C99.2241 9.24425 99.7276 10.1165 100.434 10.8738C101.005 11.4856 101.479 12.0146 101.916 10.9389C102.465 9.59069 102.889 8.04502 103.174 6.61437" stroke="black" stroke-width="1.32263" stroke-linecap="round"/>
<path d="M111.641 9.64928C109.1 9.14333 107.076 11.9344 107.98 14.3003C108.351 15.2717 109.068 15.7293 110.067 15.8852C110.673 15.98 111.542 16.2381 112.157 16.1674C112.642 16.1116 113.473 14.1799 113.207 13.7823C112.779 13.1414 110.529 13.2334 110.427 12.8579" stroke="black" stroke-width="1.32263" stroke-linecap="round"/>
<path d="M118.185 17.3505C118.152 17.7322 118.464 17.8128 118.761 17.9252" stroke="black" stroke-width="1.32263" stroke-linecap="round"/>
<path d="M122.057 18.1217C122.114 18.2964 122.19 18.4162 122.323 18.5197" stroke="black" stroke-width="1.32263" stroke-linecap="round"/>
<path d="M124.779 18.8939C124.849 19.0138 124.9 19.1461 124.934 19.2699" stroke="black" stroke-width="1.32263" stroke-linecap="round"/>
</svg>
