<svg width="50" height="50" viewBox="0 0 50 50" fill="none" xmlns="http://www.w3.org/2000/svg">
<path d="M20.2361 13.7322C19.697 14.8569 18.6351 16.0972 17.8691 17.8561C16.7416 18.4949 16.0647 18.4461 14.082 19.0089C12.0993 19.5717 9.82151 20.4037 7.93889 20.9336C6.98122 21.2032 5.87851 22.133 6.01086 23.34C6.07875 23.9591 10.2949 26.7075 11.7151 27.6434C12.6619 28.2672 13.9053 28.6151 14.5554 29.5621C14.7488 29.8438 14.73 30.0436 14.5554 30.2964C14.2127 31.3286 11.5775 41.0224 12.0777 42.0784C12.3211 42.5922 12.9777 42.6706 13.5195 42.5138C14.4001 42.2588 18.7356 39.9383 19.5128 39.4372C20.8962 38.6725 22.2262 38.0897 23.5498 37.2372C23.8925 37.0165 24.0232 36.7575 24.7767 36.7846C25.1625 36.7984 27.9559 38.9345 28.2837 39.156C29.7039 40.1154 34.5912 43.1591 35.8579 42.9935C36.4763 42.9126 37.4442 42.5219 37.5428 41.7494C37.7515 40.1153 37.5428 39.156 37.0113 36.0248C36.7774 34.4838 36.18 32.5026 35.8579 31.0012C35.7293 30.4015 35.8579 30.5097 36.7726 29.7728C38.2249 28.6027 39.1716 27.8147 40.3466 26.7075C41.0653 26.0305 42.4854 24.7652 43.4322 23.8058C44.3789 22.8464 43.9729 21.6315 43.4322 21.4073C40.519 20.1997 39.1717 19.9683 35.8579 19.0089C34.9436 18.7442 32.9818 18.1055 32.5442 17.8561C32.3353 17.3721 31.5975 15.651 31.1241 14.6916C30.6507 13.7322 28.0971 9.13117 27.337 7.97578C26.5768 6.82039 25.0883 6.53682 24.0232 7.97583C22.6031 9.89465 20.9259 12.2931 20.2361 13.7322Z" fill="#FFDB94" stroke="#FFC450" stroke-width="2.13" stroke-linecap="round"/>
</svg>
