<svg width="50" height="50" viewBox="0 0 50 50" fill="none" xmlns="http://www.w3.org/2000/svg">
<path d="M11.3665 35.4814C12.9814 36.975 21.985 46.0199 34.5127 39.2041C43.0127 34.5796 43.7067 29.8284 44.5127 23.0184C44.5127 19.7812 43.9115 16.4434 42.3239 13.8469C40.9683 11.6298 38.5227 9.12869 35.8231 8.31681C32.4843 7.31273 28.6275 8.82985 26.241 10.9775C25.5953 11.5586 24.9518 12.2358 24.3782 12.9767C24.7941 13.36 25.1548 13.7883 25.4443 14.2642C26.5901 16.1483 27.4609 19.7713 25.2186 21.3268C23.0669 22.8194 22.3137 19.3313 22.3137 18.0726C22.3137 16.2941 23.1981 14.5008 24.3782 12.9767C22.121 10.8969 18.2354 10.1422 15.2629 10.2862C10.5353 10.5153 7.33241 14.0943 5.75838 17.9292C4.02409 22.1544 5.01268 29.6048 11.3665 35.4814Z" fill="#FFBBBB"/>
<path d="M24.3782 12.9767C22.121 10.8969 18.2354 10.1422 15.2629 10.2862C10.5353 10.5153 7.33241 14.0943 5.75838 17.9292C4.02409 22.1544 5.01268 29.6048 11.3665 35.4814C12.9814 36.975 21.985 46.0199 34.5127 39.2041C43.0127 34.5796 43.7067 29.8284 44.5127 23.0184C44.5127 19.7812 43.9115 16.4434 42.3239 13.8469C40.9683 11.6298 38.5227 9.12869 35.8231 8.31681C32.4843 7.31273 28.6275 8.82985 26.241 10.9775C25.5953 11.5586 24.9518 12.2358 24.3782 12.9767ZM24.3782 12.9767C23.1981 14.5008 22.3137 16.2941 22.3137 18.0726C22.3137 19.3313 23.0669 22.8194 25.2186 21.3268C27.4609 19.7713 26.5901 16.1483 25.4443 14.2642C25.1548 13.7883 24.7941 13.36 24.3782 12.9767Z" stroke="black" stroke-width="1.3" stroke-linecap="round"/>
<path d="M18.2106 24.1367C17.6818 24.6674 17.2459 25.1723 16.7895 25.8631" stroke="black" stroke-width="1.3" stroke-linecap="round"/>
<path d="M31.606 24.3975C32.5127 24.8683 33.0459 25.4696 33.3828 26.0408" stroke="black" stroke-width="1.3" stroke-linecap="round"/>
<path d="M21.1584 29.3461C21.4968 30.0565 22.5604 30.539 23.1115 30.7939C24.6031 31.4836 25.8556 31.805 27.2927 30.9243C27.9776 30.5045 28.3207 30.0565 29.0272 29.2288" stroke="black" stroke-width="1.3" stroke-linecap="round"/>
</svg>
