<svg width="80" height="80" viewBox="0 0 80 80" fill="none" xmlns="http://www.w3.org/2000/svg">
<mask id="mask0_272_2734" style="mask-type:alpha" maskUnits="userSpaceOnUse" x="0" y="0" width="80" height="80">
<path d="M80 40C80 62.0914 62.0914 80 40 80C17.9086 80 0 62.0914 0 40C0 17.9086 17.9086 0 40 0C62.0914 0 80 17.9086 80 40Z" fill="#C5C5C5"/>
</mask>
<g mask="url(#mask0_272_2734)">
<rect width="80" height="80" fill="#FFDB94"/>
<path fill-rule="evenodd" clip-rule="evenodd" d="M24.7527 53.765C26.6076 55.6199 28.719 56.7117 29.7915 57.1242C43.6587 62.4577 47.3245 59.8248 49.5215 58.2469C49.6307 58.1685 49.7362 58.0926 49.8392 58.0205C56.1972 53.57 60.8824 44.8436 62.0277 37.2961C62.5822 33.642 62.1344 30.122 60.3108 26.8975C58.7538 24.1441 55.9447 21.0381 52.8438 20.0298C49.0089 18.7829 44.579 20.6669 41.8378 23.334C41.0961 24.0557 40.357 24.8968 39.6981 25.8169C37.1055 23.2339 32.6424 22.2967 29.2282 22.4756C23.798 22.76 20.1192 27.2048 18.3112 31.9672C16.3192 37.2145 18.1573 41.6795 20.2027 46.6482C20.2554 46.7763 20.3083 46.9047 20.3612 47.0335C22.0024 51.0254 23.5053 52.5224 24.6134 53.6261C24.6606 53.673 24.707 53.7193 24.7527 53.765ZM39.6981 25.8169C38.3427 27.7096 37.3268 29.9367 37.3268 32.1454C37.3268 33.7085 38.192 38.0402 40.6635 36.1866C43.239 34.2549 42.2388 29.7556 40.9226 27.4158C40.5902 26.8247 40.1759 26.2928 39.6981 25.8169Z" fill="white"/>
<path d="M39.6981 25.8169C37.1055 23.2339 32.6424 22.2967 29.2282 22.4756C23.798 22.76 20.1192 27.2048 18.3112 31.9672C16.3192 37.2145 18.1573 41.6795 20.2027 46.6482C20.2554 46.7763 20.3083 46.9047 20.3612 47.0335C22.0024 51.0254 23.5053 52.5224 24.6134 53.6261C24.6606 53.673 24.707 53.7193 24.7527 53.765C26.6076 55.6199 28.719 56.7117 29.7915 57.1242C43.6587 62.4577 47.3245 59.8248 49.5215 58.2469C49.6307 58.1685 49.7362 58.0926 49.8392 58.0205C56.1972 53.57 60.8824 44.8436 62.0277 37.2961C62.5822 33.642 62.1344 30.122 60.3108 26.8975C58.7538 24.1441 55.9447 21.0381 52.8438 20.0298C49.0089 18.7829 44.579 20.6669 41.8378 23.334C41.0961 24.0557 40.357 24.8968 39.6981 25.8169ZM39.6981 25.8169C38.3427 27.7096 37.3268 29.9367 37.3268 32.1454C37.3268 33.7085 38.192 38.0402 40.6635 36.1866C43.239 34.2549 42.2388 29.7556 40.9226 27.4158C40.5902 26.8247 40.1759 26.2928 39.6981 25.8169Z" stroke="black" stroke-linecap="round"/>
<path d="M30.4592 33.3763C29.9961 33.8394 29.632 34.2691 29.293 34.8341" stroke="black" stroke-linecap="round"/>
<path d="M49.3866 31.9304C50.3536 31.9304 51.0406 33.262 51.4275 33.9713" stroke="black" stroke-linecap="round"/>
<path d="M35.5614 41.6856C35.95 42.5678 37.1717 43.167 37.8047 43.4835C39.5179 44.3401 40.9566 44.7392 42.6072 43.6454C43.3939 43.1241 43.788 42.5678 44.5995 41.5398" stroke="black" stroke-linecap="round"/>
</g>
</svg>
