<svg width="24" height="24" viewBox="0 0 24 24" fill="none" xmlns="http://www.w3.org/2000/svg">
<path d="M9 11L3 16V5.5L4.5 3H18.5L21 4.5V19L20 20L11 11H9Z" fill="#8BD0F6" stroke="black"/>
<path d="M9 10.5L3.5 15L3 19L5.5 21H19L20 20L11 11L9 10.5Z" fill="#FFDB94"/>
<ellipse cx="15.5" cy="8" rx="1.5" ry="2" fill="#FFDB94"/>
<g clip-path="url(#clip0_444_904)">
<path d="M17.8333 2H6.16667C5.062 2.00132 4.00296 2.44073 3.22185 3.22185C2.44073 4.00296 2.00132 5.062 2 6.16667L2 17.8333C2.00132 18.938 2.44073 19.997 3.22185 20.7782C4.00296 21.5593 5.062 21.9987 6.16667 22H17.8333C18.938 21.9987 19.997 21.5593 20.7782 20.7782C21.5593 19.997 21.9987 18.938 22 17.8333V6.16667C21.9987 5.062 21.5593 4.00296 20.7782 3.22185C19.997 2.44073 18.938 2.00132 17.8333 2V2ZM6.16667 3.66667H17.8333C18.4964 3.66667 19.1323 3.93006 19.6011 4.3989C20.0699 4.86774 20.3333 5.50363 20.3333 6.16667V17.8333C20.3319 18.2046 20.2464 18.5707 20.0833 18.9042L12.4475 11.2683C12.0606 10.8813 11.6012 10.5743 11.0956 10.3648C10.59 10.1554 10.0481 10.0476 9.50083 10.0476C8.95357 10.0476 8.41166 10.1554 7.90606 10.3648C7.40047 10.5743 6.94109 10.8813 6.55417 11.2683L3.66667 14.155V6.16667C3.66667 5.50363 3.93006 4.86774 4.3989 4.3989C4.86774 3.93006 5.50363 3.66667 6.16667 3.66667ZM6.16667 20.3333C5.50363 20.3333 4.86774 20.0699 4.3989 19.6011C3.93006 19.1323 3.66667 18.4964 3.66667 17.8333V16.5117L7.73167 12.4467C7.96383 12.2144 8.2395 12.0301 8.54292 11.9043C8.84634 11.7786 9.17156 11.7139 9.5 11.7139C9.82844 11.7139 10.1537 11.7786 10.4571 11.9043C10.7605 12.0301 11.0362 12.2144 11.2683 12.4467L18.9042 20.0833C18.5707 20.2464 18.2046 20.3319 17.8333 20.3333H6.16667Z" fill="#191919"/>
<path d="M15.3334 10.75C15.9103 10.75 16.4742 10.5789 16.9538 10.2584C17.4335 9.93793 17.8073 9.48241 18.0281 8.94945C18.2488 8.4165 18.3066 7.83006 18.194 7.26428C18.0815 6.6985 17.8037 6.1788 17.3958 5.7709C16.9879 5.363 16.4682 5.08521 15.9024 4.97267C15.3366 4.86013 14.7502 4.91789 14.2173 5.13865C13.6843 5.3594 13.2288 5.73324 12.9083 6.21288C12.5878 6.69252 12.4167 7.25643 12.4167 7.83329C12.4167 8.60684 12.724 9.34871 13.271 9.89569C13.818 10.4427 14.5599 10.75 15.3334 10.75ZM15.3334 6.58329C15.5806 6.58329 15.8223 6.65661 16.0279 6.79396C16.2334 6.93131 16.3937 7.12653 16.4883 7.35494C16.5829 7.58335 16.6076 7.83468 16.5594 8.07716C16.5112 8.31963 16.3921 8.54236 16.2173 8.71718C16.0425 8.89199 15.8198 9.01104 15.5773 9.05928C15.3348 9.10751 15.0835 9.08275 14.8551 8.98814C14.6267 8.89353 14.4314 8.73332 14.2941 8.52776C14.1567 8.3222 14.0834 8.08052 14.0834 7.83329C14.0834 7.50177 14.2151 7.18383 14.4495 6.94941C14.684 6.71499 15.0019 6.58329 15.3334 6.58329Z" fill="#191919"/>
</g>
<defs>
<clipPath id="clip0_444_904">
<rect width="20" height="20" fill="white" transform="translate(2 2)"/>
</clipPath>
</defs>
</svg>
