<svg width="20" height="19" viewBox="0 0 20 19" fill="none" xmlns="http://www.w3.org/2000/svg">
<path d="M14.5833 0.597534C13.645 0.61213 12.7271 0.874079 11.9223 1.35693C11.1176 1.83978 10.4545 2.52643 10 3.34753C9.54554 2.52643 8.88245 1.83978 8.0777 1.35693C7.27296 0.874079 6.35505 0.61213 5.41667 0.597534C3.92079 0.662526 2.51143 1.31691 1.49649 2.41773C0.481556 3.51854 -0.0564529 4.97631 5.93299e-06 6.47254C5.93299e-06 10.2617 3.98834 14.4 7.33334 17.2059C8.08019 17.8335 9.02447 18.1776 10 18.1776C10.9755 18.1776 11.9198 17.8335 12.6667 17.2059C16.0117 14.4 20 10.2617 20 6.47254C20.0565 4.97631 19.5185 3.51854 18.5035 2.41773C17.4886 1.31691 16.0792 0.662526 14.5833 0.597534ZM11.5958 15.9309C11.1492 16.307 10.584 16.5133 10 16.5133C9.41605 16.5133 8.85085 16.307 8.40417 15.9309C4.12251 12.3384 1.66667 8.8917 1.66667 6.47254C1.60971 5.41813 1.97198 4.38398 2.67448 3.59562C3.37697 2.80726 4.3627 2.32866 5.41667 2.2642C6.47065 2.32866 7.45637 2.80726 8.15887 3.59562C8.86137 4.38398 9.22364 5.41813 9.16667 6.47254C9.16667 6.69355 9.25447 6.90551 9.41075 7.06179C9.56703 7.21807 9.77899 7.30587 10 7.30587C10.221 7.30587 10.433 7.21807 10.5893 7.06179C10.7455 6.90551 10.8333 6.69355 10.8333 6.47254C10.7764 5.41813 11.1386 4.38398 11.8411 3.59562C12.5436 2.80726 13.5294 2.32866 14.5833 2.2642C15.6373 2.32866 16.623 2.80726 17.3255 3.59562C18.028 4.38398 18.3903 5.41813 18.3333 6.47254C18.3333 8.8917 15.8775 12.3384 11.5958 15.9275V15.9309Z" fill="#FE6B57"/>
</svg>
