<svg width="256" height="544" viewBox="0 0 256 544" fill="none" xmlns="http://www.w3.org/2000/svg">
<mask id="mask0_653_3127" style="mask-type:alpha" maskUnits="userSpaceOnUse" x="14" y="304" width="229" height="240">
<path d="M114.002 305.672C129.675 305.062 151.012 307.16 166.646 305.673C182.156 304.197 202.837 306.068 230.443 305.672C243.381 305.487 240.705 321.853 240.705 329.026C243.619 373.605 240.705 408.593 240.705 422.07C240.705 445.553 238.028 495.411 238.028 521.682C238.028 538.102 238.92 540.291 226.428 542.979C215.721 542.979 191.698 541.091 181.557 541.277C169.812 541.492 158.083 542.632 146.342 542.979C127.327 543.541 48.3761 541.839 29.3943 542.979C19.2422 539.574 18.6456 538.462 16.0697 531.984C13.1763 524.708 17.1943 478.676 16.0697 470.782C14.2641 458.106 16.7135 415.201 16.0697 402.366C17.4723 389.892 12.7296 319.297 19.2422 308.932C21.3618 305.559 26.2603 305.88 29.3943 305.673C36.9526 305.171 50.3302 306.324 57.8976 305.672C79.6362 303.801 92.1672 306.522 114.002 305.672Z" stroke="black" stroke-width="1.7" stroke-linecap="round"/>
<path d="M224.388 427.58C224.964 439.961 223.358 456.833 224.65 469.178C225.932 481.427 224.509 497.778 224.969 519.59C225.185 529.812 211.816 527.782 205.962 527.819C169.596 530.352 141.029 528.229 130.03 528.299C110.866 528.42 70.1642 526.562 48.7245 526.698C35.3247 526.782 33.5425 527.499 31.2865 517.642C31.233 509.181 32.6541 490.189 32.4519 482.176C32.2177 472.897 31.2283 463.635 30.8863 454.359C30.3326 439.337 31.3275 376.942 30.3021 361.949C33.0306 353.91 33.9344 353.432 39.2084 351.364C45.1323 349.04 82.7177 351.977 89.155 351.048C99.4907 349.556 134.517 351.27 144.987 350.695C155.175 351.739 212.762 347.627 221.254 352.72C224.017 354.377 223.779 358.249 223.964 360.725C224.411 366.695 225.613 372.659 226.182 378.636C227.818 395.803 223.584 410.331 224.388 427.58Z" stroke="black" stroke-width="1.7" stroke-linecap="round"/>
<path d="M37.6996 319.891C37.6996 321.368 38.0822 329.122 38.9471 329.122" stroke="black" stroke-width="1.7" stroke-linecap="round"/>
<path d="M46.2604 328.568C44.2686 328.368 41.5217 324.08 43.2527 322.095C44.2028 319.611 45.6971 319.821 47.3693 321.235C48.9139 322.542 49.0569 328.847 46.2604 328.568Z" stroke="black" stroke-width="1.7" stroke-linecap="round"/>
<path d="M56.91 319.642C56.4177 320.971 52.8358 328.582 53.9162 329.122" stroke="black" stroke-width="1.7" stroke-linecap="round"/>
<path d="M62.3369 321.557C62.3369 321.412 62.2782 321.842 62.2314 321.979C61.8865 322.991 61.4464 323.966 61.1234 324.987C60.7021 326.318 61.9996 325.859 63.0404 325.822C64.6119 325.767 66.1393 325.356 67.7186 325.356" stroke="#191919" stroke-width="1.7" stroke-linecap="round"/>
<path d="M64.8695 321.716C64.8695 323.037 64.9528 324.353 65.0278 325.673C65.0775 326.548 64.9453 328.04 65.3444 328.838" stroke="#191919" stroke-width="1.7" stroke-linecap="round"/>
<path d="M79.3474 322.251C79.3474 323.695 79.226 327.524 81.6865 326.806C83.0194 326.417 83.0694 323.791 82.6714 322.761C82.2975 321.793 80.5241 321.005 79.9806 322.092" stroke="#191919" stroke-width="1.7" stroke-linecap="round"/>
<path d="M84.5708 322.567C85.6413 322.567 86.6804 322.313 87.7365 322.409" stroke="#191919" stroke-width="1.7" stroke-linecap="round"/>
<path d="M85.5206 325.891C86.4778 325.891 87.4147 325.816 88.3698 325.733" stroke="#191919" stroke-width="1.7" stroke-linecap="round"/>
<path d="M88.2114 320.193C88.2114 323.206 88.5254 326.675 89.4777 329.532" stroke="#191919" stroke-width="1.7" stroke-linecap="round"/>
<path d="M98.5842 322.349C99.1705 321.502 100.626 318.388 101.926 319.455C102.863 320.225 103.919 321.328 104.599 322.349" stroke="#191919" stroke-width="1.7" stroke-linecap="round"/>
<path d="M97.1597 326.147C95.176 326.147 101.126 326.008 103.104 325.866C103.384 325.846 105.924 325.315 106.182 325.831" stroke="#191919" stroke-width="1.7" stroke-linecap="round"/>
<path d="M101.433 326.622C101.433 327.893 101.515 329.152 101.592 330.421" stroke="#191919" stroke-width="1.7" stroke-linecap="round"/>
<path d="M114.648 419.841C114.201 416.713 115.118 413.733 115.541 411.797C116.288 408.386 118.14 406.115 120.422 403.381C122.593 400.779 125.991 399.12 129.335 398.771C133.043 398.383 136.306 399.955 137.703 403.494C138.354 405.145 138.728 407.869 137.18 409.148C136.371 409.818 134.755 409.589 134.16 408.74C132.839 406.853 134.256 403.997 135.261 402.347C138.966 396.268 146.714 393.902 153.496 393.571C156.371 393.431 159.668 393.801 162.159 395.319C163.982 396.43 166.669 397.783 167.268 400.02C167.618 401.324 168.437 405.134 166.599 405.685C165.332 406.065 163.801 405.195 163.022 404.221C160.664 401.273 164.971 397.09 167.246 395.694C170.786 393.522 174.993 392.776 179.088 392.946C182.161 393.074 186.252 394.431 188.569 396.455C192.139 399.573 193.168 405.289 192.122 409.796C190.636 416.207 184.688 419.911 178.804 421.751C171.687 423.978 163.927 425.184 156.528 426.043C144.961 427.386 132.745 428.525 121.262 425.941C118.202 425.253 115.815 423.928 114.648 419.841Z" stroke="black" stroke-width="1.7" stroke-linecap="round"/>
<path d="M145.56 394.365C145.56 393.841 145.708 393.427 145.889 392.923C146.851 390.248 147.795 387.55 148.875 384.919C149.94 382.324 151.538 380.137 152.906 377.72C153.362 376.915 153.679 375.251 154.813 376.051C156.978 377.579 158.268 380.612 159.048 383.057C160.095 386.334 160.776 389.615 161.603 392.923C161.833 393.844 162.396 394.774 161.296 394.774" stroke="black" stroke-width="1.7" stroke-linecap="round"/>
<path d="M143.693 411.753C143.693 411.744 142.154 413.759 141.881 414.031" stroke="black" stroke-width="1.7" stroke-linecap="round"/>
<path d="M157.098 410.457C157.84 410.531 159.169 412.335 159.776 412.721" stroke="black" stroke-width="1.7" stroke-linecap="round"/>
<path d="M146.99 415.825C148.662 415.825 150.34 415.336 152.02 415.245C152.9 415.198 151.366 420.419 151.289 421.181C151.139 422.683 149.721 419.956 149.502 419.394C149.243 418.727 148.431 415.797 147.715 415.797" stroke="black" stroke-width="1.7" stroke-linecap="round"/>
<path d="M114.648 412.244C112.591 408.13 108.305 410.06 107.183 414.485C106.133 418.628 110.648 419.903 113.882 419.095" stroke="black" stroke-width="1.7" stroke-linecap="round"/>
<path d="M192.156 401.519C193.024 399.108 196.849 398.318 199.071 398.873C201.803 399.556 202.246 402.288 201.921 404.788C201.589 407.344 199.305 408.52 197.209 409.466C195.613 410.187 194.022 409.279 192.565 408.672" stroke="black" stroke-width="1.7" stroke-linecap="round"/>
<path d="M92.0141 365.549C93.5905 367.213 93.8572 370.687 93.7285 372.827C93.5721 375.427 91.6646 378.039 89.062 378.583C85.2183 379.386 85.6551 374.971 88.6419 373.951C91.3592 373.023 92.8513 375.492 93.1495 377.947C93.7481 382.877 91.1993 387.107 88.131 390.687" stroke="black" stroke-width="1.7" stroke-linecap="round"/>
<path d="M106.729 399.066C106.701 399.34 106.591 399.617 106.524 399.883" stroke="black" stroke-width="1.7" stroke-linecap="round"/>
<path d="M189.908 369.636C189.73 372.311 189.656 376.4 191.839 378.334C193.987 380.237 197.651 379.573 198.844 377.028C200.201 374.133 196.801 373.192 194.836 374.666C191.737 376.99 191.889 380.758 194.246 383.579C195.669 385.284 197.824 386.137 199.9 386.781C200.516 386.972 202.49 387.034 202.784 387.621" stroke="black" stroke-width="1.7" stroke-linecap="round"/>
<path d="M67.4894 407.037C67.2917 407.671 66.0768 410.549 66.5584 411.079C66.6743 411.206 67.545 411.239 67.6484 411.26C68.5665 411.451 69.4265 411.807 70.3052 412.123C71.6828 412.619 71.7603 412.396 71.9856 410.965C72.1113 410.166 72.19 409.388 72.19 408.581C72.19 407.66 68.0363 407.445 67.285 407.445" stroke="black" stroke-width="1.7" stroke-linecap="round"/>
</mask>
<g mask="url(#mask0_653_3127)">
<rect x="7.8504" y="296.063" width="243.98" height="123.331" fill="#B0B0B1"/>
</g>
<path d="M111.777 1.75205C129.314 1.06903 153.19 3.41715 170.683 1.75263C188.038 0.101187 211.179 2.19474 242.069 1.75228C256.546 1.54494 253.55 19.8574 253.55 27.8832C256.812 77.765 253.55 116.914 253.55 131.995C253.55 158.27 250.555 214.059 250.555 243.455C250.555 261.828 251.554 264.277 237.576 267.285C225.595 267.285 198.715 265.172 187.367 265.38C174.226 265.621 161.102 266.897 147.964 267.285C126.687 267.914 38.346 266.009 17.1064 267.285C5.74674 263.475 5.07923 262.231 2.19692 254.982C-1.04058 246.84 3.45534 195.334 2.19696 186.5C0.176521 172.316 2.9173 124.309 2.19692 109.947C3.76632 95.9888 -1.54041 16.9976 5.74677 5.39995C8.1185 1.6253 13.5996 1.98517 17.1064 1.75263C25.5637 1.1918 40.5325 2.48103 49 1.75206C73.3242 -0.342016 87.3456 2.70358 111.777 1.75205Z" fill="#FFFAE1" stroke="black" stroke-width="1.7" stroke-linecap="round"/>
<path d="M235.293 138.16C235.938 152.014 234.141 170.892 235.587 184.706C237.021 198.412 235.428 216.707 235.943 241.114C236.185 252.552 221.226 250.28 214.676 250.321C173.984 253.156 142.019 250.781 129.712 250.859C108.269 250.994 62.7256 248.915 38.7358 249.067C23.7422 249.162 21.7481 249.963 19.2237 238.934C19.1638 229.467 20.7539 208.215 20.5277 199.25C20.2656 188.868 19.1585 178.503 18.7759 168.124C18.1564 151.315 19.2696 81.4995 18.1222 64.7229C21.1752 55.7271 22.1866 55.1932 28.0879 52.8783C34.7163 50.278 76.7722 53.5649 83.9752 52.5249C95.5402 50.8552 134.732 52.7732 146.449 52.1299C157.848 53.298 222.285 48.6971 231.786 54.3955C234.878 56.2501 234.612 60.583 234.819 63.3528C235.319 70.0328 236.663 76.7069 237.301 83.394C239.131 102.604 234.394 118.86 235.293 138.16Z" fill="white"/>
<path d="M223 119L221.5 117L230 112.5H236L235 133.5L236 144.5L235 160.5V183.5C237 191.1 236.5 206.333 236 213V244L234 246.5L231 249L226 250.5H211L213 247.5C217 241.1 219.667 229.833 220.5 225C221.3 221.4 221.5 218.833 221.5 218V211V184L223 119Z" fill="#D5A684"/>
<path d="M34 127.5L36.3204 118.5L23.6275 114L18.5 116V134V147.5V161L19.5 178.5C19.5 185.5 19.7534 193.333 20.5 200V215.5L26.5 212.5L30.5 208L36.3204 204.5L42.5 202.5L49.0134 204.5C51 204.5 52.6636 204.5 52 202.5C50.8053 198.9 49.0134 199.333 49.0134 198.5L41 193L36.3204 185.5L34 127.5Z" fill="#D5A684"/>
<path d="M26.3996 17.6624C26.3996 19.3146 26.8276 27.9913 27.7954 27.9913" stroke="black" stroke-width="1.7" stroke-linecap="round"/>
<path d="M35.9787 27.3708C33.7499 27.1479 30.6763 22.3489 32.6132 20.1281C33.6763 17.3491 35.3483 17.5834 37.2194 19.1666C38.9477 20.629 39.1078 27.6837 35.9787 27.3708Z" stroke="black" stroke-width="1.7" stroke-linecap="round"/>
<path d="M47.8949 17.3833C47.3441 18.8707 43.3361 27.3869 44.545 27.9914" stroke="black" stroke-width="1.7" stroke-linecap="round"/>
<path d="M54.0364 17.9417C54.0364 21.013 53.9058 24.5287 54.8739 27.4331" stroke="black" stroke-width="1.7" stroke-linecap="round"/>
<path d="M70 26.0955C70.0533 25.1369 71.7519 19.5347 72.683 20.4658C74.1382 21.9209 74.4311 24.3495 75.304 26.0955" stroke="black" stroke-width="1.7" stroke-linecap="round"/>
<path d="M76.9789 22.7457C78.4813 22.7457 79.9493 22.6162 81.4455 22.4666" stroke="black" stroke-width="1.7" stroke-linecap="round"/>
<path d="M81.4455 18C81.5602 20.9819 81.6148 24.3704 82.5621 27.2123" stroke="black" stroke-width="1.7" stroke-linecap="round"/>
<path d="M93 16.4085C93.8019 19.9725 98.2256 16.2394 95.7761 15.1678C94.2777 14.5122 93.2792 15.8979 93.2792 17.246" stroke="black" stroke-width="1.7" stroke-linecap="round"/>
<path d="M89 21.5583C92.5456 21.5583 96.0645 21 99.6081 21" stroke="black" stroke-width="1.7" stroke-linecap="round"/>
<path d="M95 22V24.2333" stroke="black" stroke-width="1.7" stroke-linecap="round"/>
<path d="M91 27.0993C93.9156 27.0993 97.0023 26 99.8235 26C100.539 26 100.558 27.0675 100.379 27.5268C99.9108 28.7303 98.6941 28.6815 97.6013 28.8857C96.0598 29.1738 94.7691 29.2921 93.2876 29.7865C92.409 30.0797 91.012 32.0512 92.3235 32.5958C94.699 33.5824 98.5151 32.5106 101 32.0462" stroke="black" stroke-width="1.7" stroke-linecap="round"/>
<path d="M103 165L103.5 175L104 189.5L102 195.5L101 196L88 182L84.5 175V171.5L102 164L103 165Z" fill="#8EDBA4"/>
<path d="M85 171H84L82 168.5V164.5L84.5 162L81 159.5V156L82 154L84.5 152L83.5 151V148L86.5 144L90.5 142V145L92 146.5L98 149L99 151.5L97.5 155C102.3 155.4 103.167 159.833 103 162L101.5 163.5L85 171Z" fill="#D897EF"/>
<path d="M196.231 157.405C194.784 156.299 190.27 157.694 189 158.764L188 173.5L189 174C194.314 174 200.129 170.247 199.998 164.295C199.944 161.88 198.062 158.805 196.231 157.405Z" fill="white"/>
<path d="M102.72 175.407C105.668 172.501 108.569 174.237 111 176.5L114.5 185C111.19 188.263 105.173 187.79 101.977 184.29C100.285 182.437 100.957 177.144 102.72 175.407Z" fill="white"/>
<path fill-rule="evenodd" clip-rule="evenodd" d="M128.653 146.935C126.477 147.86 120.622 150.486 118.495 153.166C113.746 159.15 113.118 161.194 111.862 166.233C109.664 175.051 111.808 180.56 116.719 187.881C132.279 211.077 178.001 204.21 186.494 178.09C189.517 168.793 190.735 161.352 184.722 151.115C181.923 146.35 179.697 142.927 170.275 141.037C163.83 140.818 158.28 141.472 153.555 145.699C152.329 146.795 150.992 148.221 149.81 149.834C147.377 147.694 144.367 146.145 141.474 145.451C137.279 144.446 132.522 145.29 128.653 146.935ZM149.81 149.834C147.172 153.432 145.305 157.963 147.169 161.845C149.43 166.553 155.142 163.783 154.861 159.15C154.643 155.535 152.608 152.294 149.81 149.834Z" fill="#FFBBBB"/>
<path d="M149.81 149.834C147.377 147.694 144.367 146.145 141.474 145.451C137.279 144.446 132.522 145.29 128.653 146.935C126.477 147.86 120.622 150.486 118.495 153.166C113.746 159.15 113.118 161.194 111.862 166.233C109.664 175.051 111.808 180.56 116.719 187.881C132.279 211.077 178.001 204.21 186.494 178.09C189.517 168.793 190.735 161.352 184.722 151.115C181.923 146.35 179.697 142.927 170.275 141.037C163.83 140.818 158.28 141.472 153.555 145.699C152.329 146.795 150.992 148.221 149.81 149.834ZM149.81 149.834C147.172 153.432 145.305 157.963 147.169 161.845C149.43 166.553 155.142 163.783 154.861 159.15C154.643 155.535 152.608 152.294 149.81 149.834Z" stroke="black" stroke-width="1.7" stroke-linecap="round"/>
<path d="M137 171C136.055 172.428 134.622 173.508 134 175" stroke="black" stroke-width="1.7" stroke-linecap="round"/>
<path d="M163 167C164.527 167.339 166.776 170.059 168 171" stroke="black" stroke-width="1.7" stroke-linecap="round"/>
<path d="M147.247 180.384C146.592 180.69 147.416 181.712 147.685 182.026C148.848 183.383 151.011 183.041 152.499 182.662C154.491 182.155 155.54 180.006 156 178" stroke="black" stroke-width="1.7" stroke-linecap="round"/>
<path d="M189 158.764C190.27 157.694 194.784 156.299 196.231 157.405C198.062 158.805 199.944 161.88 199.998 164.295C200.129 170.247 194.314 174 189 174" stroke="black" stroke-width="1.7" stroke-linecap="round"/>
<path d="M131.741 200C128.149 200 126.821 207.144 127.019 210.139C127.26 213.781 133.372 214.202 135.94 213.934C140.696 213.438 147.068 208.426 144.348 202.942" stroke="black" stroke-width="1.7" stroke-linecap="round"/>
<path d="M171 196.751C171 199.842 175.889 202.73 178.537 202.971C181.94 203.282 185.374 201.041 186.598 197.804C188.147 193.708 185.005 189 180.874 189" stroke="black" stroke-width="1.7" stroke-linecap="round"/>
<path d="M111 176.5C108.569 174.237 105.668 172.501 102.72 175.407C100.957 177.144 100.285 182.437 101.977 184.29C105.173 187.79 111.19 188.263 114.5 185" stroke="black" stroke-width="1.7" stroke-linecap="round"/>
<path d="M103.292 174.629C103.292 172.064 104.622 166.545 102.584 164.446C100.624 162.427 91.8809 167.872 90.0327 168.772C86.8598 170.315 83.1575 170.977 84.1703 174.974C85.2458 179.218 89.2583 183.2 92.3147 186.344C94.2486 188.333 95.8777 190.703 97.5475 192.891C98.3205 193.903 100.014 196.155 101.521 195.992C103.428 195.785 104 187.739 104 185.999" stroke="black" stroke-width="1.7" stroke-linecap="round"/>
<path d="M84.036 171C81.3335 171 80.7614 164.954 82.4243 163.572C83.8732 162.368 84.6987 162.199 83.1927 161.128C81.6514 160.033 81 159.096 81 156.972C81 155.21 81.4768 154.052 82.9491 152.988C84.8644 151.604 84.4497 152.428 83.4363 150.737C81.5608 147.607 86.7715 143.906 88.6838 142.597C92.0946 140.262 89.5187 145.446 91.7949 146.676C93.9052 147.817 99.5573 147.859 98.8603 151.795C98.7427 152.459 96.4849 154.487 97.8295 154.797C99.7156 155.232 100.673 155.726 101.746 157.318C102.725 158.77 104.073 162.867 101.578 163.38" stroke="black" stroke-width="1.7" stroke-linecap="round"/>
<path d="M24.5 121L19 116.5L18 65L23.5 55L32 52L83.5 53L86.5 55L87.5 60.5L84.5 65L81 68L81.5 76L80 82L75.5 84.5H69.5L67 83.5L66.5 91L65 96.5L61.5 101L54 102.5L50 101L51 108L49 114L44 119L36.5 123L28.5 122.5L24.5 121Z" fill="#FD7B69" stroke="black"/>
<path d="M86.0565 55.2083C89.6374 59.585 86.0241 64.6776 81.8549 67.0074C81.2838 67.3266 81.0734 66.8775 81.0898 67.5846C81.1308 69.3481 81.7793 71.0144 81.8952 72.766C82.2297 77.8212 80.5735 83.9622 74.9419 84.9276C73.0481 85.2522 70.6837 85.4429 68.9014 84.5517C67.5978 83.9 66.9816 82.2917 66.9684 84.6323C66.9426 89.2237 67.1937 93.2477 64.5522 97.21C62.8678 99.7366 59.2691 102.642 56.0821 102.794C54.1612 102.886 52.4738 102.916 50.8335 101.841C49.9172 101.241 49.3274 99.9279 49.8402 102.016C50.417 104.364 50.8351 106.658 50.7798 109.09C50.7193 111.755 49.0571 113.965 47.4911 115.989C43.8215 120.733 36.4127 123.387 30.4837 123.09C28.8975 123.011 24.3359 121.815 23.7183 119.963" stroke="black" stroke-width="1.7" stroke-linecap="round"/>
<path d="M34.0115 128.027C32.6537 135.375 33.5493 142.829 33.9506 150.213C34.2206 155.18 34.4347 160.155 34.6202 165.126C34.8952 172.498 35.0441 180.128 37.3136 187.221C39.074 192.722 43.9817 195.594 48.6654 198.557C50.0595 199.439 52.8927 202.825 54.2804 201.159" stroke="black" stroke-width="1.7" stroke-linecap="round"/>
<path d="M49.0762 203.898C48.1077 203.302 47.3165 203.338 46.185 203.229C43.8208 203.001 41.5098 202.511 39.2309 203.351C36.4538 204.374 33.5778 205.711 31.2116 207.52C29.9153 208.511 25.7944 211.764 25.7944 213.759" stroke="black" stroke-width="1.7" stroke-linecap="round"/>
<path d="M135.5 59.9999L141 52.5002C159 51.0003 221 51.5 225 52.5001C228.881 53.4702 233.5 55.9999 234.5 57.9999L236.5 79.4999L237.5 99.4999L236 113.5L228 114L219 115.5L212.5 113.5L207.5 110.5L203.5 114L198.5 115L190.5 113.5L183.5 109L179.5 101.5L177.5 95L176.5 90L173 91L165.5 90C159.9 89.2 154.833 82.9999 153 79.9999L151 72.4999L150 71.4999L147 72.4999L142 71.4999L135.5 67.9999L134.5 63.9999L135.5 59.9999Z" fill="#FFD37F"/>
<path d="M138.643 56.5378C136.581 58.0998 134.619 60.7677 134.321 63.3855C133.939 66.7539 136.752 68.958 139.282 70.5678C141.476 71.9639 144.397 72.8021 147.012 72.3026C147.728 72.1659 150.574 70.759 150.695 71.7243C152.019 82.3216 159.209 89.9334 169.929 90.9281C171.34 91.059 172.745 91.0414 174.129 90.715C174.764 90.5651 175.866 89.8785 176.533 89.9998C177.088 90.1008 177.921 97.5618 178.085 98.2017C180.055 105.861 184.365 112.311 192.267 114.286C196.705 115.395 202.203 115.931 205.734 112.399C206.001 112.133 207.329 110.151 207.636 110.345C209.909 111.78 211.294 113.449 213.967 114.332C218.415 115.801 223.566 115.806 227.936 114.058" stroke="black" stroke-width="1.7" stroke-linecap="round"/>
<path d="M138.643 96.2539C141.194 94.6138 145.559 96.1166 146.86 98.7191C149.31 99.5359 151.75 100.656 152.612 103.497C154.778 110.633 145.179 111.899 140.408 111.532C137.749 111.327 132.504 112.184 130.608 109.797C129.8 108.779 132.127 105.319 132.556 104.471C134.105 101.409 135.677 98.1604 138.643 96.2539Z" fill="#FFD37F" stroke="black" stroke-width="1.7" stroke-linecap="round"/>
<path d="M146.586 98.719C148.3 98.719 149.12 96.9046 150.421 96.2539" stroke="black" stroke-width="1.7" stroke-linecap="round"/>
<path d="M55.376 182.427C56.3286 178.903 59.9906 177.211 63.3193 178.973C63.6862 178.79 64.4261 175.661 64.6279 175.078C65.1607 173.539 66.5875 173.179 68.0974 173.221C70.0687 173.276 72.7728 174.958 73.7885 176.569C75.6196 179.473 75.8188 183.704 75.2037 187.053C74.7529 189.508 73.6576 193.49 70.7147 193.49C67.0728 193.49 63.714 192.411 60.352 191.01C56.832 189.543 54.3272 186.308 55.376 182.427Z" fill="#FD7B69" stroke="black" stroke-width="1.7" stroke-linecap="round"/>
<path d="M63.8671 178.973C62.7204 176.807 62.2236 174.636 62.2236 172.125" stroke="black" stroke-width="1.7" stroke-linecap="round"/>
<path d="M221.857 117.499C223.421 117.89 222.553 125.645 222.55 126.273C222.499 138.032 221.857 149.764 221.857 161.523C221.857 177.109 221.857 192.694 221.857 208.28C221.857 218.987 220.628 227.426 217.162 237.565C216.303 240.08 214.666 245.218 212.852 247.032" stroke="black" stroke-width="1.7" stroke-linecap="round"/>
<path d="M235.293 138.16C235.938 152.014 234.141 170.892 235.587 184.706C237.021 198.412 235.428 216.707 235.943 241.114C236.185 252.552 221.226 250.28 214.676 250.321C173.984 253.156 142.019 250.781 129.712 250.859C108.269 250.994 62.7256 248.915 38.7358 249.067C23.7422 249.162 21.7481 249.963 19.2237 238.934C19.1638 229.467 20.7539 208.215 20.5277 199.25C20.2656 188.868 19.1585 178.503 18.7759 168.124C18.1564 151.315 19.2696 81.4995 18.1222 64.7229C21.1752 55.7271 22.1866 55.1932 28.0879 52.8783C34.7163 50.278 76.7722 53.5649 83.9752 52.5249C95.5402 50.8552 134.732 52.7732 146.449 52.1299C157.848 53.298 222.285 48.6971 231.786 54.3955C234.878 56.2501 234.612 60.583 234.819 63.3528C235.319 70.0328 236.663 76.7069 237.301 83.394C239.131 102.604 234.394 118.86 235.293 138.16Z" stroke="black" stroke-width="1.7" stroke-linecap="round"/>
</svg>
