<svg width="50" height="50" viewBox="0 0 50 50" fill="none" xmlns="http://www.w3.org/2000/svg">
<path d="M8.61606 14.0929C10.0628 13.0689 12.4187 12.4538 14.5496 12.3192C17.3137 11.9118 19.2623 15.2159 20.8384 17.3823L16.1692 23.2192L23.0731 28.8286L17.9654 35.7008L23.9009 41.9307C17.8788 41.0893 9.9464 35.6529 8.90357 34.5901C6.74965 32.395 4.98015 28.3104 4.77475 25.0595C4.60036 23.0136 4.51066 20.8799 5.3382 18.0301C6.66755 15.1485 6.9838 15.2481 8.61606 14.0929Z" fill="#DFDFDF"/>
<path d="M38.7241 12.1905C37.16 11.3568 34.7455 11.0431 32.6145 11.1778C31.4236 11.3406 28.2208 13.0232 26.86 17.0019L23.6962 22.7436L30.0983 28.3848L24.5206 35.7904L28.8837 41.0566C34.6226 39.2006 40.1505 33.7038 41.0188 32.5609C42.8793 30.1121 44.1207 25.8373 43.9152 22.5865C43.8307 20.5349 43.6512 18.4068 42.4715 15.6838C40.79 12.9925 40.4888 13.1311 38.7241 12.1905Z" fill="#DFDFDF"/>
<path d="M8.61606 14.0929C10.0628 13.0689 12.4187 12.4538 14.5496 12.3192C17.3137 11.9118 19.2623 15.2159 20.8384 17.3823L16.1692 23.2192L23.0731 28.8286L17.9654 35.7008L23.9009 41.9307C17.8788 41.0893 9.9464 35.6529 8.90357 34.5901C6.74965 32.395 4.98015 28.3104 4.77475 25.0595C4.60036 23.0136 4.51066 20.8799 5.3382 18.0301C6.66755 15.1485 6.9838 15.2481 8.61606 14.0929Z" stroke="#B0B0B1" stroke-width="2.13" stroke-linecap="round" stroke-linejoin="round"/>
<path d="M38.7241 12.1905C37.16 11.3568 34.7455 11.0431 32.6145 11.1778C31.4236 11.3406 28.2208 13.0232 26.86 17.0019L23.6962 22.7436L30.0983 28.3848L24.5206 35.7904L28.8837 41.0566C34.6226 39.2006 40.1505 33.7038 41.0188 32.5609C42.8793 30.1121 44.1207 25.8373 43.9152 22.5865C43.8307 20.5349 43.6512 18.4068 42.4715 15.6838C40.79 12.9925 40.4888 13.1311 38.7241 12.1905Z" stroke="#B0B0B1" stroke-width="2.13" stroke-linecap="round" stroke-linejoin="round"/>
<path d="M25.0001 8.00005V13.0001L27.5001 8.50005C27.5001 7.30005 25.8335 7.66672 25.0001 8.00005Z" fill="#DFDFDF"/>
<path d="M19.5001 7L21.5001 10C20.6668 9.50002 18.9001 8.40005 18.5001 8.00005C18.1001 7.60005 19.0001 7.16668 19.5001 7Z" fill="#DFDFDF"/>
<path d="M25.0001 8.00005V13.0001L27.5001 8.50005C27.5001 7.30005 25.8335 7.66672 25.0001 8.00005Z" stroke="#B0B0B1" stroke-width="1.7" stroke-linejoin="round"/>
<path d="M19.5001 7L21.5001 10C20.6668 9.50002 18.9001 8.40005 18.5001 8.00005C18.1001 7.60005 19.0001 7.16668 19.5001 7Z" stroke="#B0B0B1" stroke-width="1.7" stroke-linejoin="round"/>
</svg>
