<svg width="168" height="118" viewBox="0 0 168 118" fill="none" xmlns="http://www.w3.org/2000/svg">
<path fill-rule="evenodd" clip-rule="evenodd" d="M5.74999 76.1893C2.76119 67.3769 4.21904 51.4446 14.2076 39.8972C26.1542 26.0861 37.672 27.7066 45.9202 28.8671C47.108 29.0342 48.228 29.1918 49.2717 29.2924C51.2868 29.6275 53.0679 29.9818 54.6199 30.4228C50.6587 34.0434 48.2271 39.0079 48.1875 45.5529C48.1611 49.917 50.0885 52.709 54.3024 53.9939C59.4668 55.5687 61.7866 50.2966 62.3072 46.51C62.6256 35.9603 59.8512 33.1859 54.6199 30.4228C68.5469 17.6929 101.382 21.5748 115.644 31.7822C113.927 32.879 112.557 34.164 111.737 35.6265C108.849 40.7785 108.216 52.8239 116.727 53.9939C122.339 54.7656 122.389 49.5726 120.888 40.1219C120.014 37.2543 118.9 34.1127 115.644 31.7822C122.132 27.6375 133.58 26.1787 139.069 27.976C150.667 31.7742 159.252 44.3293 162.504 55.822C165.695 67.0973 159.124 80.146 147.503 88.9887C141.826 93.8227 131.236 95.6449 122.347 97.1745C119.24 97.7091 116.342 98.2079 113.933 98.7871C98.0305 102.61 81.7266 102.223 65.4903 101.838C60.0706 101.71 54.6585 101.581 49.2714 101.61C38.0292 101.669 14.2076 101.126 5.74999 76.1893Z" fill="#FAC59F"/>
<path d="M54.6199 30.4228C53.0679 29.9818 51.2868 29.6275 49.2717 29.2924C48.228 29.1918 47.108 29.0342 45.9202 28.8671C37.672 27.7066 26.1542 26.0861 14.2076 39.8972C4.21904 51.4446 2.76119 67.3769 5.74999 76.1893C14.2076 101.126 38.0292 101.669 49.2713 101.61C54.6585 101.581 60.0706 101.71 65.4903 101.838C81.7266 102.223 98.0305 102.61 113.933 98.7871C116.342 98.2079 119.24 97.7091 122.347 97.1745C131.236 95.6449 141.826 93.8227 147.503 88.9887C159.124 80.146 165.695 67.0973 162.504 55.822C159.252 44.3293 150.667 31.7742 139.069 27.976C133.58 26.1787 122.132 27.6375 115.644 31.7822M54.6199 30.4228C68.5469 17.6929 101.382 21.5748 115.644 31.7822M54.6199 30.4228C59.8512 33.1859 62.6256 35.9603 62.3072 46.51C61.7866 50.2966 59.4668 55.5687 54.3024 53.9939C50.0885 52.709 48.1611 49.917 48.1875 45.5529C48.2271 39.0079 50.6587 34.0434 54.6199 30.4228ZM115.644 31.7822C113.927 32.879 112.557 34.164 111.737 35.6265C108.849 40.7785 108.216 52.8239 116.727 53.9939C122.339 54.7656 122.389 49.5726 120.888 40.1219C120.014 37.2543 118.9 34.1127 115.644 31.7822Z" stroke="black" stroke-width="2.12608" stroke-linecap="round"/>
<path d="M102 60.6163C104.633 61.4208 108.001 63.3837 109.936 65.3191" stroke="black" stroke-width="2.1292" stroke-linecap="round"/>
<path d="M64.4663 62.6163C63.4208 63.6618 62.3693 64.699 61.2985 65.7188C60.4954 66.4836 58 68.0879 58 69.3765" stroke="black" stroke-width="2.1292" stroke-linecap="round"/>
<path d="M74 80.6781C74.6534 80.4821 75.014 79.4878 75.4043 79.0126C77.0387 77.0229 79.3936 74.267 82.0665 73.7873C84.081 73.4257 85.9015 73.6476 87.798 74.3588C89.3813 74.9525 90.8436 75.975 92.1579 77.0204C92.5816 77.3575 94.5746 78.9714 94.5746 78.9146" stroke="black" stroke-width="2.1292" stroke-linecap="round"/>
<path d="M54.9739 91.2819C54.041 87.2633 56.8224 81.986 58.0791 78.3074C58.4674 77.1708 59.3479 75.3462 59.8104 74.4137C60.5595 72.9035 60.8766 76.9516 61.1434 77.6945C62.2101 80.6644 63.3386 83.957 63.6223 87.1322C63.8926 90.1575 62.5237 94.2561 59.0675 94.5884C56.7058 94.8155 55.4945 93.5243 54.9739 91.2819Z" fill="#8BD0F6" stroke="black" stroke-width="2.1292" stroke-linecap="round"/>
<path d="M81.4524 9.82323C81.354 10.0598 81.4448 9.30917 81.4776 9.0551C81.7415 7.00958 81.9642 4.94319 82.3672 2.9193C82.4739 2.38346 82.5402 2.30668 82.9779 2.7406C84.0911 3.84408 85.0229 5.12274 86.0361 6.31443C86.5423 6.90995 87.1272 7.74302 87.8613 8.09004C88.3177 8.30577 88.4998 6.72653 88.5421 6.53237C88.9192 4.80222 89.2403 3.05857 89.5862 1.32187" stroke="black" stroke-width="1.32263" stroke-linecap="round"/>
<path d="M97.0642 4.76626C96.7082 6.25974 98.5569 9.52772 100.186 7.73292C101.127 6.69561 100.822 5.13922 100.071 4.1063C99.6489 3.52595 99.1725 3.23089 98.4836 3.09369C97.6276 2.92321 97.4024 3.15973 96.9972 3.94781" stroke="black" stroke-width="1.32263" stroke-linecap="round"/>
<path d="M105.899 1.55987C104.341 1.13238 109.129 1.46253 110.743 1.48954" stroke="black" stroke-width="1.32263" stroke-linecap="round"/>
<path d="M108.952 1.82275C108.585 3.86179 108.897 6.03606 109.09 8.06094" stroke="black" stroke-width="1.32263" stroke-linecap="round"/>
<path d="M117.318 3.48877C117.23 4.31665 116.889 10.0743 117.367 10.1695" stroke="black" stroke-width="1.32263" stroke-linecap="round"/>
<path d="M117.74 6.56308C119.056 6.64942 120.383 6.74434 121.678 7.00229" stroke="black" stroke-width="1.32263" stroke-linecap="round"/>
<path d="M122.096 3.75037C122.165 5.99372 122.228 8.23613 122.367 10.4751" stroke="black" stroke-width="1.32263" stroke-linecap="round"/>
<path d="M129.382 3.85266C129.206 4.74059 129.323 5.67768 129.365 6.57118C129.425 7.84676 129.465 9.12733 129.567 10.4005C129.616 11.0085 129.579 10.6735 129.653 10.5774" stroke="black" stroke-width="1.32263" stroke-linecap="round"/>
<path d="M135.998 11.2659C136.111 10.699 136.238 10.1391 136.385 9.57942C136.456 9.30994 137.005 6.41909 137.341 6.38329C137.609 6.35465 138.585 8.16492 138.731 8.38539C139.3 9.24431 139.804 10.1165 140.51 10.8739C141.081 11.4857 141.555 12.0146 141.993 10.939C142.541 9.59076 142.965 8.04508 143.25 6.61443" stroke="black" stroke-width="1.32263" stroke-linecap="round"/>
<path d="M151.717 9.64934C149.176 9.14339 147.153 11.9345 148.056 14.3003C148.427 15.2718 149.145 15.7293 150.143 15.8852C150.75 15.98 151.618 16.2382 152.234 16.1674C152.719 16.1117 153.549 14.18 153.284 13.7823C152.856 13.1415 150.606 13.2334 150.503 12.858" stroke="black" stroke-width="1.32263" stroke-linecap="round"/>
<path d="M158.262 17.3506C158.229 17.7323 158.54 17.8128 158.837 17.9253" stroke="black" stroke-width="1.32263" stroke-linecap="round"/>
<path d="M162.134 18.1217C162.191 18.2964 162.266 18.4162 162.399 18.5197" stroke="black" stroke-width="1.32263" stroke-linecap="round"/>
<path d="M164.855 18.8939C164.925 19.0138 164.977 19.1461 165.01 19.2699" stroke="black" stroke-width="1.32263" stroke-linecap="round"/>
</svg>
