<svg width="80" height="16" viewBox="0 0 80 16" fill="none" xmlns="http://www.w3.org/2000/svg">
<path d="M7.52539 10.24C7.45872 10.3333 7.38539 10.3933 7.30539 10.42C7.22539 10.4333 7.15206 10.44 7.08539 10.44C7.01872 10.44 6.93872 10.4267 6.84539 10.4C6.75206 10.3733 6.67872 10.32 6.62539 10.24L1.44539 2.72V14.82C1.44539 15.02 1.37872 15.1667 1.24539 15.26C1.12539 15.3667 0.972058 15.42 0.785391 15.42C0.598724 15.42 0.445391 15.3667 0.325391 15.26C0.205391 15.1667 0.145391 15.02 0.145391 14.82V1.36C0.145391 1.06667 0.212057 0.846666 0.345391 0.7C0.492057 0.553332 0.658724 0.479999 0.845391 0.479999C0.898724 0.479999 0.952057 0.479999 1.00539 0.479999C1.07206 0.479999 1.13872 0.493332 1.20539 0.52C1.28539 0.546666 1.36539 0.606666 1.44539 0.7C1.53872 0.779999 1.64539 0.899999 1.76539 1.06L7.06539 8.72L12.3854 1.06C12.5054 0.899999 12.6054 0.779999 12.6854 0.7C12.7787 0.606666 12.8587 0.546666 12.9254 0.52C13.0054 0.493332 13.0721 0.479999 13.1254 0.479999C13.1921 0.479999 13.2521 0.479999 13.3054 0.479999C13.4921 0.479999 13.6521 0.553332 13.7854 0.7C13.9321 0.846666 14.0054 1.06667 14.0054 1.36V14.82C14.0054 15.02 13.9454 15.1667 13.8254 15.26C13.7054 15.3667 13.5521 15.42 13.3654 15.42C13.1787 15.42 13.0187 15.3667 12.8854 15.26C12.7654 15.1667 12.7054 15.02 12.7054 14.82V2.72L7.52539 10.24ZM18.5746 1.22C18.5746 1.02 18.6346 0.873333 18.7546 0.78C18.8746 0.673333 19.0279 0.619999 19.2146 0.619999C19.4013 0.619999 19.5546 0.673333 19.6746 0.78C19.8079 0.873333 19.8746 1.02 19.8746 1.22V14.82C19.8746 15.02 19.8079 15.1667 19.6746 15.26C19.5546 15.3667 19.4013 15.42 19.2146 15.42C19.0279 15.42 18.8746 15.3667 18.7546 15.26C18.6346 15.1667 18.5746 15.02 18.5746 14.82V1.22ZM24.618 1.44C24.618 1.24 24.6714 1.06 24.778 0.899999C24.898 0.739999 25.098 0.659999 25.378 0.659999C25.538 0.659999 25.678 0.679999 25.798 0.719999C25.9314 0.746666 26.0514 0.799999 26.158 0.88C26.278 0.959999 26.398 1.07333 26.518 1.22C26.638 1.36667 26.7714 1.55333 26.918 1.78L34.638 13.42V1.24C34.638 1.04 34.698 0.893332 34.818 0.799999C34.938 0.693333 35.0914 0.639999 35.278 0.639999C35.4647 0.639999 35.618 0.693333 35.738 0.799999C35.8714 0.893332 35.938 1.04 35.938 1.24V14.78C35.938 14.94 35.878 15.0867 35.758 15.22C35.638 15.3667 35.4647 15.44 35.238 15.44C34.998 15.44 34.7914 15.4 34.618 15.32C34.4447 15.2533 34.2847 15.1133 34.138 14.9L25.918 2.56V14.82C25.918 15.02 25.8514 15.1667 25.718 15.26C25.598 15.3667 25.4447 15.42 25.258 15.42C25.0714 15.42 24.918 15.3667 24.798 15.26C24.678 15.1667 24.618 15.02 24.618 14.82V1.44ZM41.4845 13.88C41.4845 14.04 41.5111 14.1467 41.5645 14.2C41.6311 14.2533 41.7178 14.28 41.8245 14.28H48.9045C49.0645 14.28 49.1978 14.3267 49.3045 14.42C49.4245 14.5267 49.4845 14.6733 49.4845 14.86C49.4845 15.0467 49.4245 15.1867 49.3045 15.28C49.1978 15.3867 49.0645 15.44 48.9045 15.44H41.6245C41.3045 15.44 41.0445 15.3933 40.8445 15.3C40.6578 15.2067 40.5111 15.0867 40.4045 14.94C40.3111 14.7933 40.2511 14.6267 40.2245 14.44C40.1978 14.2533 40.1845 14.0667 40.1845 13.88V2.24C40.1845 2.05333 40.1978 1.86667 40.2245 1.68C40.2511 1.49333 40.3111 1.32667 40.4045 1.18C40.5111 1.03333 40.6578 0.913333 40.8445 0.819999C41.0445 0.726666 41.3045 0.68 41.6245 0.68H48.5045C48.6645 0.68 48.7978 0.733333 48.9045 0.839999C49.0245 0.933333 49.0845 1.07333 49.0845 1.26C49.0845 1.44667 49.0245 1.59333 48.9045 1.7C48.7978 1.79333 48.6645 1.84 48.5045 1.84H41.8245C41.7178 1.84 41.6311 1.86667 41.5645 1.92C41.5111 1.97333 41.4845 2.08 41.4845 2.24V7.26H48.5045C48.6645 7.26 48.7978 7.31333 48.9045 7.42C49.0245 7.51333 49.0845 7.65333 49.0845 7.84C49.0845 8.02667 49.0245 8.17333 48.9045 8.28C48.7978 8.37333 48.6645 8.42 48.5045 8.42H41.4845V13.88ZM60.0449 10.24C59.9783 10.3333 59.9049 10.3933 59.8249 10.42C59.7449 10.4333 59.6716 10.44 59.6049 10.44C59.5383 10.44 59.4583 10.4267 59.3649 10.4C59.2716 10.3733 59.1983 10.32 59.1449 10.24L53.9649 2.72V14.82C53.9649 15.02 53.8983 15.1667 53.7649 15.26C53.6449 15.3667 53.4916 15.42 53.3049 15.42C53.1183 15.42 52.9649 15.3667 52.8449 15.26C52.7249 15.1667 52.6649 15.02 52.6649 14.82V1.36C52.6649 1.06667 52.7316 0.846666 52.8649 0.7C53.0116 0.553332 53.1783 0.479999 53.3649 0.479999C53.4183 0.479999 53.4716 0.479999 53.5249 0.479999C53.5916 0.479999 53.6583 0.493332 53.7249 0.52C53.8049 0.546666 53.8849 0.606666 53.9649 0.7C54.0583 0.779999 54.1649 0.899999 54.2849 1.06L59.5849 8.72L64.9049 1.06C65.0249 0.899999 65.1249 0.779999 65.2049 0.7C65.2983 0.606666 65.3783 0.546666 65.4449 0.52C65.5249 0.493332 65.5916 0.479999 65.6449 0.479999C65.7116 0.479999 65.7716 0.479999 65.8249 0.479999C66.0116 0.479999 66.1716 0.553332 66.3049 0.7C66.4516 0.846666 66.5249 1.06667 66.5249 1.36V14.82C66.5249 15.02 66.4649 15.1667 66.3449 15.26C66.2249 15.3667 66.0716 15.42 65.8849 15.42C65.6983 15.42 65.5383 15.3667 65.4049 15.26C65.2849 15.1667 65.2249 15.02 65.2249 14.82V2.72L60.0449 10.24ZM71.9141 13.88C71.9141 14.04 71.9408 14.1467 71.9941 14.2C72.0608 14.2533 72.1475 14.28 72.2541 14.28H79.3341C79.4941 14.28 79.6275 14.3267 79.7341 14.42C79.8541 14.5267 79.9141 14.6733 79.9141 14.86C79.9141 15.0467 79.8541 15.1867 79.7341 15.28C79.6275 15.3867 79.4941 15.44 79.3341 15.44H72.0541C71.7341 15.44 71.4741 15.3933 71.2741 15.3C71.0875 15.2067 70.9408 15.0867 70.8341 14.94C70.7408 14.7933 70.6808 14.6267 70.6541 14.44C70.6275 14.2533 70.6141 14.0667 70.6141 13.88V2.24C70.6141 2.05333 70.6275 1.86667 70.6541 1.68C70.6808 1.49333 70.7408 1.32667 70.8341 1.18C70.9408 1.03333 71.0875 0.913333 71.2741 0.819999C71.4741 0.726666 71.7341 0.68 72.0541 0.68H78.9341C79.0941 0.68 79.2275 0.733333 79.3341 0.839999C79.4541 0.933333 79.5141 1.07333 79.5141 1.26C79.5141 1.44667 79.4541 1.59333 79.3341 1.7C79.2275 1.79333 79.0941 1.84 78.9341 1.84H72.2541C72.1475 1.84 72.0608 1.86667 71.9941 1.92C71.9408 1.97333 71.9141 2.08 71.9141 2.24V7.26H78.9341C79.0941 7.26 79.2275 7.31333 79.3341 7.42C79.4541 7.51333 79.5141 7.65333 79.5141 7.84C79.5141 8.02667 79.4541 8.17333 79.3341 8.28C79.2275 8.37333 79.0941 8.42 78.9341 8.42H71.9141V13.88Z" fill="#191919"/>
</svg>
