<svg width="206" height="80" viewBox="0 0 206 80" fill="none" xmlns="http://www.w3.org/2000/svg">
<path fill-rule="evenodd" clip-rule="evenodd" d="M52.4377 5.27043C52.9262 7.51877 53.3124 9.9436 53.3534 10.5662C53.4522 12.0654 53.9567 13.5987 54.5415 15.0013C54.9357 15.9466 55.3879 16.8794 55.792 17.7131C55.9823 18.1059 56.162 18.4766 56.32 18.8162C56.3635 18.9098 56.4258 18.9933 56.5031 19.0617C56.674 19.2129 56.8907 19.2777 56.9837 19.305C57.1174 19.3442 57.2756 19.3783 57.446 19.409C57.7896 19.4709 58.2465 19.5304 58.7928 19.5883C59.8888 19.7044 61.3977 19.8194 63.1944 19.9327C66.7906 20.1594 71.5755 20.381 76.5947 20.5891C80.7158 20.7599 84.9929 20.9216 88.9055 21.0694C94.5362 21.2822 99.412 21.4665 101.982 21.6086C102.002 21.6097 102.022 21.61 102.042 21.6095L102.023 20.8597C102.042 21.6095 102.041 21.6095 102.042 21.6095L102.043 21.6095L103.091 21.5842C103.768 21.568 104.748 21.545 105.961 21.5174C108.388 21.4621 111.749 21.3883 115.482 21.3146C122.951 21.1671 131.907 21.0198 137.874 21.0198C145.182 21.0198 152.461 20.5763 159.715 20.1344L159.729 20.1335C166.996 19.6908 174.236 19.25 181.5 19.25C185.538 19.25 189.993 19.697 193.835 22.1668C197.648 24.6181 200.981 29.1459 202.601 37.5734C202.653 37.8487 202.704 38.1112 202.753 38.3622C203.286 41.1251 203.553 42.5069 203.562 44.557C203.571 46.8274 203.262 49.9015 202.591 56.4232C201.929 62.8616 200.616 66.7205 198.737 69.4496C196.878 72.1496 194.415 73.8218 191.22 75.7917C183.711 77.3255 179.848 78.0888 172.301 78.1678C160.548 78.2908 149.079 78.2501 137.511 78.2091C131.69 78.1885 125.843 78.1678 119.923 78.1678H96.1944C88.7015 78.1678 81.1902 77.7769 73.6711 77.3856C71.2566 77.2599 68.8413 77.1343 66.4255 77.0215C59.2457 76.6862 52.06 76.9749 44.9045 77.3452C43.789 77.4029 42.6745 77.4625 41.5609 77.5222C35.5202 77.8456 29.5048 78.1678 23.4989 78.1678C20.4641 78.1678 18.1445 78.0591 15.8854 77.5177C13.6367 76.9788 11.4077 76.0006 8.58876 74.2099C7.06056 73.2391 5.50177 71.4577 3.55209 65.3005C3.50116 65.0547 3.45131 64.8144 3.40253 64.5792C1.91127 57.3905 1.42757 55.0588 1.95769 49.2262C2.03554 48.3696 2.10223 47.3234 2.17461 46.1881C2.18921 45.9591 2.20404 45.7264 2.21924 45.4909C2.31023 44.0814 2.41507 42.56 2.56403 41.0692C2.71313 39.5769 2.90514 38.1293 3.16779 36.8668C3.43304 35.5918 3.75949 34.5616 4.15216 33.8704C4.48468 33.2851 4.94066 32.2892 5.44011 31.1985C5.69807 30.6352 5.96764 30.0465 6.23776 29.476C6.64424 28.6175 7.06 27.7808 7.46155 27.0734C7.8718 26.3507 8.23514 25.8215 8.52672 25.5339C10.1105 23.9716 11.8383 23.2029 13.6373 22.8909C16.2593 22.4361 18.8414 22.25 21.5 22.25C21.5097 22.25 21.5193 22.2498 21.529 22.2494C24.0523 22.1519 27.7561 21.8355 30.8158 21.5452C32.3485 21.3997 33.7244 21.2603 34.7173 21.1573C35.2137 21.1058 35.6145 21.0634 35.8912 21.0338L36.2928 20.9906L36.2976 20.9899L36.3536 20.987L36.5679 20.9756C36.7536 20.9656 37.0217 20.9508 37.3518 20.9318C38.0117 20.8938 38.92 20.839 39.9128 20.7713C41.8874 20.6369 44.2327 20.4497 45.612 20.2416C45.9067 20.1971 46.1471 19.9823 46.2244 19.6944C46.6421 18.1386 48.309 12.7643 48.8102 11.2432C48.9971 10.6758 49.2236 9.79491 49.4732 8.82163L49.4921 8.74766C49.7404 7.77934 50.017 6.70104 50.316 5.66785C50.6239 4.60398 50.9482 3.61498 51.2789 2.85972C51.3961 2.59205 51.5093 2.3652 51.6167 2.18068C51.6399 2.24404 51.6639 2.31231 51.6886 2.38558C51.9336 3.11179 52.1945 4.15103 52.4377 5.27043ZM36.1582 19.4964L35.7319 19.5423C35.4565 19.5717 35.0572 19.614 34.5624 19.6653C33.5728 19.768 32.2013 19.9069 30.6741 20.0519C27.6197 20.3417 23.9619 20.6537 21.4854 20.75C18.7602 20.7506 16.0957 20.9421 13.381 21.4129C11.3068 21.7727 9.29298 22.6711 7.47334 24.466C7.02484 24.9084 6.5773 25.5926 6.15707 26.3329C5.72818 27.0884 5.2939 27.9643 4.88203 28.8341C4.58011 29.4718 4.29379 30.0975 4.0291 30.676C3.55424 31.7138 3.14896 32.5995 2.8479 33.1295C2.3389 34.0256 1.97453 35.238 1.69923 36.5612C1.42136 37.8969 1.22304 39.403 1.07146 40.9201C0.919708 42.4389 0.813477 43.9826 0.722351 45.3943C0.706909 45.6334 0.691925 45.8684 0.677246 46.0987C0.604828 47.2346 0.539703 48.2558 0.463852 49.0904C-0.0865784 55.1465 0.436584 57.6679 1.92567 64.8448C1.97954 65.1044 2.03467 65.3701 2.09105 65.6423C2.09621 65.6672 2.10265 65.6919 2.11032 65.7161C4.0961 72 5.79614 74.2129 7.78444 75.476C10.7027 77.3298 13.0851 78.3891 15.5358 78.9764C17.9762 79.5613 20.4441 79.6678 23.4989 79.6678C29.5487 79.6678 35.6102 79.3431 41.6503 79.0196C42.7616 78.9601 43.8723 78.9006 44.982 78.8431C52.1332 78.4731 59.2553 78.1883 66.3555 78.5198C68.7533 78.6318 71.157 78.7569 73.5647 78.8822C81.0929 79.274 88.6588 79.6678 96.1944 79.6678H119.923C125.832 79.6678 131.673 79.6885 137.492 79.7091C149.066 79.7501 160.554 79.7908 172.317 79.6677C180.056 79.5867 184.034 78.7906 191.65 77.2348C191.736 77.2172 191.818 77.1847 191.893 77.1387C195.143 75.139 197.894 73.3186 199.972 70.3003C202.052 67.2795 203.408 63.1383 204.083 56.5767C204.749 50.0984 205.071 46.9225 205.062 44.5509C205.053 42.3549 204.759 40.8362 204.231 38.1071C204.181 37.8465 204.128 37.5747 204.074 37.2903C202.398 28.571 198.889 23.6329 194.646 20.905C190.431 18.1955 185.615 17.75 181.5 17.75C174.186 17.75 166.902 18.1937 159.646 18.6358L159.638 18.6363C152.372 19.079 145.133 19.5198 137.874 19.5198C131.891 19.5198 122.921 19.6674 115.453 19.8149C111.717 19.8887 108.355 19.9624 105.927 20.0178C104.713 20.0454 103.733 20.0685 103.056 20.0846L102.035 20.1092C99.4463 19.9668 94.5601 19.7821 88.9351 19.5695C85.0248 19.4217 80.7575 19.2604 76.6568 19.0904C71.639 18.8824 66.8678 18.6613 63.2888 18.4357C61.4979 18.3228 60.0144 18.2093 58.9508 18.0966C58.4172 18.0401 58.0024 17.9851 57.7122 17.9328C57.6484 17.9213 57.5936 17.9105 57.547 17.9004C57.4085 17.608 57.2635 17.3091 57.1154 17.0036C56.7213 16.1911 56.3046 15.3319 55.926 14.4241C55.3639 13.0758 54.9328 11.722 54.8502 10.4676C54.8014 9.72665 54.3941 7.20978 53.9035 4.95197C53.6573 3.81829 53.3823 2.71335 53.1098 1.90599C52.9765 1.51088 52.8285 1.13978 52.6636 0.867477C52.5852 0.737943 52.4657 0.566917 52.2922 0.438584C52.0947 0.292488 51.7496 0.157768 51.3722 0.329615C50.9992 0.499411 50.719 0.820912 50.5107 1.12426C50.2912 1.44381 50.09 1.83527 49.9049 2.25799C49.534 3.10493 49.1881 4.16938 48.8751 5.25082C48.5694 6.30718 48.2878 7.40555 48.0407 8.36897L48.0202 8.44901C47.7647 9.44526 47.5527 10.2663 47.3855 10.7738C46.924 12.1747 45.4789 16.8246 44.9094 18.8247C43.5672 18.9968 41.5705 19.155 39.8109 19.2748C38.8247 19.342 37.9219 19.3965 37.2656 19.4343C36.9375 19.4531 36.6712 19.4678 36.487 19.4778L36.2749 19.4891L36.2026 19.4928L36.2015 19.4929C36.1871 19.4936 36.1726 19.4948 36.1582 19.4964Z" fill="#191919"/>
<path d="M21.756 43.88C21.756 44.48 21.564 44.912 21.18 45.176C20.804 45.448 20.224 45.584 19.44 45.584H15.252C14.468 45.584 13.884 45.448 13.5 45.176C13.124 44.912 12.936 44.48 12.936 43.88C12.936 43.28 13.124 42.848 13.5 42.584C13.884 42.312 14.468 42.176 15.252 42.176H19.44C20.224 42.176 20.804 42.312 21.18 42.584C21.564 42.848 21.756 43.28 21.756 43.88ZM20.976 43.88C20.976 43.504 20.848 43.244 20.592 43.1C20.344 42.948 19.904 42.872 19.272 42.872H15.42C14.788 42.872 14.344 42.948 14.088 43.1C13.84 43.244 13.716 43.504 13.716 43.88C13.716 44.256 13.84 44.516 14.088 44.66C14.344 44.812 14.788 44.888 15.42 44.888H19.272C19.904 44.888 20.344 44.812 20.592 44.66C20.848 44.516 20.976 44.256 20.976 43.88ZM15.756 36.764C15.756 37.18 15.804 37.548 15.9 37.868C16.004 38.188 16.152 38.472 16.344 38.72C16.544 38.968 16.792 39.188 17.088 39.38C17.384 39.572 17.724 39.748 18.108 39.908C18.356 40.012 18.448 40.18 18.384 40.412C18.352 40.524 18.288 40.604 18.192 40.652C18.096 40.7 17.976 40.7 17.832 40.652C17.568 40.572 17.308 40.456 17.052 40.304C16.804 40.144 16.572 39.972 16.356 39.788C16.148 39.596 15.96 39.396 15.792 39.188C15.632 38.98 15.508 38.784 15.42 38.6C15.324 38.808 15.192 39.02 15.024 39.236C14.856 39.452 14.664 39.66 14.448 39.86C14.232 40.052 13.992 40.228 13.728 40.388C13.472 40.548 13.2 40.676 12.912 40.772C12.768 40.82 12.648 40.82 12.552 40.772C12.456 40.724 12.392 40.644 12.36 40.532C12.328 40.42 12.336 40.32 12.384 40.232C12.44 40.136 12.524 40.068 12.636 40.028C13.012 39.884 13.344 39.716 13.632 39.524C13.928 39.332 14.172 39.112 14.364 38.864C14.564 38.608 14.716 38.32 14.82 38C14.924 37.672 14.976 37.3 14.976 36.884V35.9C14.976 35.78 15.012 35.692 15.084 35.636C15.156 35.572 15.248 35.54 15.36 35.54C15.472 35.54 15.564 35.572 15.636 35.636C15.716 35.692 15.756 35.78 15.756 35.9V36.764ZM23.436 38.228C23.436 38.34 23.4 38.428 23.328 38.492C23.264 38.548 23.184 38.576 23.088 38.576H21.492V40.892C21.492 41.012 21.452 41.104 21.372 41.168C21.3 41.224 21.208 41.252 21.096 41.252C20.984 41.252 20.892 41.224 20.82 41.168C20.748 41.104 20.712 41.012 20.712 40.892V35.84C20.712 35.72 20.748 35.632 20.82 35.576C20.892 35.512 20.984 35.48 21.096 35.48C21.208 35.48 21.3 35.512 21.372 35.576C21.452 35.632 21.492 35.72 21.492 35.84V37.88H23.088C23.184 37.88 23.264 37.912 23.328 37.976C23.4 38.032 23.436 38.116 23.436 38.228Z" fill="#191919"/>
<path d="M30.6024 35.84C30.6024 35.72 30.6384 35.632 30.7104 35.576C30.7824 35.512 30.8744 35.48 30.9864 35.48C31.0984 35.48 31.1904 35.512 31.2624 35.576C31.3424 35.632 31.3824 35.72 31.3824 35.84V39.944H33.2064V35.84C33.2064 35.72 33.2424 35.632 33.3144 35.576C33.3864 35.512 33.4784 35.48 33.5904 35.48C33.7024 35.48 33.7944 35.512 33.8664 35.576C33.9464 35.632 33.9864 35.72 33.9864 35.84V45.428C33.9864 45.548 33.9464 45.636 33.8664 45.692C33.7944 45.756 33.7024 45.788 33.5904 45.788C33.4784 45.788 33.3864 45.756 33.3144 45.692C33.2424 45.636 33.2064 45.548 33.2064 45.428V40.64H31.3824V45.428C31.3824 45.548 31.3424 45.636 31.2624 45.692C31.1904 45.756 31.0984 45.788 30.9864 45.788C30.8744 45.788 30.7824 45.756 30.7104 45.692C30.6384 45.636 30.6024 45.548 30.6024 45.428V35.84ZM25.7304 44.48C25.7304 44.576 25.7464 44.64 25.7784 44.672C25.8184 44.704 25.8704 44.72 25.9344 44.72H28.2144C28.3104 44.72 28.3904 44.748 28.4544 44.804C28.5264 44.868 28.5624 44.956 28.5624 45.068C28.5624 45.18 28.5264 45.264 28.4544 45.32C28.3904 45.384 28.3104 45.416 28.2144 45.416H25.8144C25.6224 45.416 25.4664 45.388 25.3464 45.332C25.2344 45.276 25.1464 45.204 25.0824 45.116C25.0264 45.028 24.9904 44.928 24.9744 44.816C24.9584 44.704 24.9504 44.592 24.9504 44.48V36.56C24.9504 36.448 24.9584 36.336 24.9744 36.224C24.9904 36.112 25.0264 36.012 25.0824 35.924C25.1464 35.836 25.2344 35.764 25.3464 35.708C25.4664 35.652 25.6224 35.624 25.8144 35.624H27.9744C28.0704 35.624 28.1504 35.656 28.2144 35.72C28.2864 35.776 28.3224 35.86 28.3224 35.972C28.3224 36.084 28.2864 36.172 28.2144 36.236C28.1504 36.292 28.0704 36.32 27.9744 36.32H25.9344C25.8704 36.32 25.8184 36.336 25.7784 36.368C25.7464 36.4 25.7304 36.464 25.7304 36.56V44.48Z" fill="#191919"/>
<path d="M36.6647 37.712C36.6647 37.424 36.7047 37.152 36.7847 36.896C36.8647 36.64 36.9887 36.416 37.1567 36.224C37.3327 36.032 37.5527 35.88 37.8167 35.768C38.0887 35.656 38.4167 35.6 38.8007 35.6C39.1847 35.6 39.5127 35.656 39.7847 35.768C40.0567 35.88 40.2807 36.032 40.4567 36.224C40.6327 36.416 40.7607 36.64 40.8407 36.896C40.9207 37.152 40.9607 37.424 40.9607 37.712V43.448C40.9607 43.736 40.9207 44.008 40.8407 44.264C40.7607 44.52 40.6327 44.744 40.4567 44.936C40.2807 45.128 40.0567 45.28 39.7847 45.392C39.5127 45.504 39.1847 45.56 38.8007 45.56C38.4167 45.56 38.0887 45.504 37.8167 45.392C37.5527 45.28 37.3327 45.128 37.1567 44.936C36.9887 44.744 36.8647 44.52 36.7847 44.264C36.7047 44.008 36.6647 43.736 36.6647 43.448V37.712ZM37.4447 43.112C37.4447 43.736 37.5447 44.184 37.7447 44.456C37.9447 44.728 38.2967 44.864 38.8007 44.864C39.3127 44.864 39.6687 44.728 39.8687 44.456C40.0767 44.184 40.1807 43.736 40.1807 43.112V38.048C40.1807 37.424 40.0767 36.976 39.8687 36.704C39.6687 36.432 39.3127 36.296 38.8007 36.296C38.2967 36.296 37.9447 36.432 37.7447 36.704C37.5447 36.976 37.4447 37.424 37.4447 38.048V43.112ZM41.4047 40.172C41.4047 40.06 41.4367 39.976 41.5007 39.92C41.5727 39.856 41.6567 39.824 41.7527 39.824H42.9887V35.84C42.9887 35.72 43.0247 35.632 43.0967 35.576C43.1687 35.512 43.2607 35.48 43.3727 35.48C43.4847 35.48 43.5767 35.512 43.6487 35.576C43.7287 35.632 43.7687 35.72 43.7687 35.84V45.428C43.7687 45.548 43.7287 45.636 43.6487 45.692C43.5767 45.756 43.4847 45.788 43.3727 45.788C43.2607 45.788 43.1687 45.756 43.0967 45.692C43.0247 45.636 42.9887 45.548 42.9887 45.428V40.52H41.7527C41.6567 40.52 41.5727 40.492 41.5007 40.436C41.4367 40.372 41.4047 40.284 41.4047 40.172ZM45.1847 35.84C45.1847 35.72 45.2207 35.632 45.2927 35.576C45.3647 35.512 45.4567 35.48 45.5687 35.48C45.6807 35.48 45.7727 35.512 45.8447 35.576C45.9247 35.632 45.9647 35.72 45.9647 35.84V45.428C45.9647 45.548 45.9247 45.636 45.8447 45.692C45.7727 45.756 45.6807 45.788 45.5687 45.788C45.4567 45.788 45.3647 45.756 45.2927 45.692C45.2207 45.636 45.1847 45.548 45.1847 45.428V35.84Z" fill="#191919"/>
<path d="M48.2831 35.972C48.2831 35.86 48.315 35.776 48.379 35.72C48.451 35.656 48.535 35.624 48.6311 35.624H51.295C51.487 35.624 51.639 35.652 51.751 35.708C51.871 35.764 51.959 35.836 52.015 35.924C52.079 36.012 52.119 36.112 52.135 36.224C52.151 36.336 52.159 36.448 52.159 36.56V39.608C52.159 39.952 52.155 40.36 52.147 40.832C52.139 41.296 52.111 41.792 52.063 42.32C52.015 42.84 51.935 43.368 51.823 43.904C51.711 44.432 51.551 44.928 51.343 45.392C51.279 45.528 51.187 45.612 51.0671 45.644C50.9551 45.684 50.8511 45.676 50.7551 45.62C50.659 45.564 50.5951 45.484 50.563 45.38C50.5391 45.284 50.555 45.18 50.611 45.068C50.7951 44.66 50.939 44.22 51.043 43.748C51.147 43.268 51.223 42.78 51.271 42.284C51.319 41.78 51.347 41.288 51.355 40.808C51.371 40.32 51.379 39.868 51.379 39.452V36.56C51.379 36.464 51.3591 36.4 51.319 36.368C51.287 36.336 51.239 36.32 51.175 36.32H48.6311C48.535 36.32 48.451 36.292 48.379 36.236C48.315 36.172 48.2831 36.084 48.2831 35.972ZM52.879 40.172C52.879 40.06 52.911 39.976 52.975 39.92C53.047 39.856 53.1311 39.824 53.2271 39.824H54.655V35.84C54.655 35.72 54.6911 35.632 54.7631 35.576C54.835 35.512 54.9271 35.48 55.0391 35.48C55.1511 35.48 55.243 35.512 55.315 35.576C55.3951 35.632 55.4351 35.72 55.4351 35.84V45.428C55.4351 45.548 55.3951 45.636 55.315 45.692C55.243 45.756 55.1511 45.788 55.0391 45.788C54.9271 45.788 54.835 45.756 54.7631 45.692C54.6911 45.636 54.655 45.548 54.655 45.428V40.52H53.2271C53.1311 40.52 53.047 40.492 52.975 40.436C52.911 40.372 52.879 40.284 52.879 40.172ZM56.851 35.84C56.851 35.72 56.8871 35.632 56.959 35.576C57.031 35.512 57.1231 35.48 57.2351 35.48C57.347 35.48 57.4391 35.512 57.5111 35.576C57.591 35.632 57.6311 35.72 57.6311 35.84V45.428C57.6311 45.548 57.591 45.636 57.5111 45.692C57.4391 45.756 57.347 45.788 57.2351 45.788C57.1231 45.788 57.031 45.756 56.959 45.692C56.8871 45.636 56.851 45.548 56.851 45.428V35.84Z" fill="#191919"/>
<path d="M73.4607 38.6C73.4607 38.712 73.4527 38.824 73.4367 38.936C73.4207 39.048 73.3807 39.148 73.3167 39.236C73.2607 39.324 73.1727 39.396 73.0527 39.452C72.9407 39.508 72.7887 39.536 72.5967 39.536H65.8767C65.6847 39.536 65.5287 39.508 65.4087 39.452C65.2967 39.396 65.2087 39.324 65.1447 39.236C65.0887 39.148 65.0527 39.048 65.0367 38.936C65.0207 38.824 65.0127 38.712 65.0127 38.6V35.96C65.0127 35.84 65.0487 35.752 65.1207 35.696C65.1927 35.632 65.2847 35.6 65.3967 35.6C65.5087 35.6 65.6007 35.632 65.6727 35.696C65.7527 35.752 65.7927 35.84 65.7927 35.96V36.932H72.6807V35.96C72.6807 35.84 72.7167 35.752 72.7887 35.696C72.8607 35.632 72.9527 35.6 73.0647 35.6C73.1767 35.6 73.2687 35.632 73.3407 35.696C73.4207 35.752 73.4607 35.84 73.4607 35.96V38.6ZM72.4767 38.84C72.5407 38.84 72.5887 38.824 72.6207 38.792C72.6607 38.76 72.6807 38.696 72.6807 38.6V37.628H65.7927V38.6C65.7927 38.696 65.8087 38.76 65.8407 38.792C65.8807 38.824 65.9327 38.84 65.9967 38.84H72.4767ZM74.3727 41.576C74.3727 41.688 74.3367 41.776 74.2647 41.84C74.2007 41.896 74.1207 41.924 74.0247 41.924H64.4247C64.3287 41.924 64.2447 41.896 64.1727 41.84C64.1087 41.776 64.0767 41.688 64.0767 41.576C64.0767 41.464 64.1087 41.38 64.1727 41.324C64.2447 41.26 64.3287 41.228 64.4247 41.228H68.8407V40.376C68.8407 40.256 68.8767 40.168 68.9487 40.112C69.0207 40.048 69.1127 40.016 69.2247 40.016C69.3367 40.016 69.4287 40.048 69.5007 40.112C69.5807 40.168 69.6207 40.256 69.6207 40.376V41.228H74.0247C74.1207 41.228 74.2007 41.26 74.2647 41.324C74.3367 41.38 74.3727 41.464 74.3727 41.576ZM72.6807 43.952C72.6807 43.856 72.6607 43.792 72.6207 43.76C72.5887 43.728 72.5407 43.712 72.4767 43.712H65.2287C65.1327 43.712 65.0487 43.684 64.9767 43.628C64.9127 43.564 64.8807 43.476 64.8807 43.364C64.8807 43.252 64.9127 43.168 64.9767 43.112C65.0487 43.048 65.1327 43.016 65.2287 43.016H72.5967C72.7887 43.016 72.9407 43.044 73.0527 43.1C73.1727 43.156 73.2607 43.228 73.3167 43.316C73.3807 43.404 73.4207 43.504 73.4367 43.616C73.4527 43.728 73.4607 43.84 73.4607 43.952V45.284C73.4607 45.404 73.4247 45.492 73.3527 45.548C73.2807 45.612 73.1887 45.644 73.0767 45.644C72.9647 45.644 72.8687 45.612 72.7887 45.548C72.7167 45.492 72.6807 45.404 72.6807 45.284V43.952Z" fill="#191919"/>
<path d="M78.2271 35.84C78.2271 35.72 78.2631 35.632 78.3351 35.576C78.4071 35.512 78.4991 35.48 78.6111 35.48C78.7231 35.48 78.8151 35.512 78.8871 35.576C78.9671 35.632 79.0071 35.72 79.0071 35.84V40.952C79.0151 41.352 79.0871 41.728 79.2231 42.08C79.3591 42.424 79.5391 42.756 79.7631 43.076C79.9871 43.388 80.2471 43.692 80.5431 43.988C80.8391 44.276 81.1551 44.556 81.4911 44.828C81.5871 44.908 81.6391 45 81.6471 45.104C81.6551 45.208 81.6271 45.304 81.5631 45.392C81.4991 45.48 81.4031 45.528 81.2751 45.536C81.1551 45.544 81.0391 45.5 80.9271 45.404C80.4231 44.98 79.9711 44.528 79.5711 44.048C79.1791 43.568 78.8671 43.076 78.6351 42.572C78.4271 43.076 78.1311 43.576 77.7471 44.072C77.3711 44.576 76.9271 45.044 76.4151 45.476C76.3031 45.58 76.1831 45.624 76.0551 45.608C75.9351 45.592 75.8431 45.54 75.7791 45.452C75.7151 45.364 75.6911 45.268 75.7071 45.164C75.7311 45.06 75.7871 44.964 75.8751 44.876C76.1951 44.604 76.4951 44.316 76.7751 44.012C77.0631 43.716 77.3151 43.4 77.5311 43.064C77.7471 42.728 77.9151 42.376 78.0351 42.008C78.1631 41.632 78.2271 41.236 78.2271 40.82V35.84ZM86.7351 40.292C86.7351 40.404 86.6991 40.492 86.6271 40.556C86.5631 40.612 86.4831 40.64 86.3871 40.64H84.6231V45.428C84.6231 45.548 84.5831 45.636 84.5031 45.692C84.4311 45.756 84.3391 45.788 84.2271 45.788C84.1151 45.788 84.0231 45.756 83.9511 45.692C83.8791 45.636 83.8431 45.548 83.8431 45.428V35.84C83.8431 35.72 83.8791 35.632 83.9511 35.576C84.0231 35.512 84.1151 35.48 84.2271 35.48C84.3391 35.48 84.4311 35.512 84.5031 35.576C84.5831 35.632 84.6231 35.72 84.6231 35.84V39.944H86.3871C86.4831 39.944 86.5631 39.976 86.6271 40.04C86.6991 40.096 86.7351 40.18 86.7351 40.292Z" fill="#191919"/>
<path d="M88.2374 41.648C88.2374 41.36 88.2734 41.088 88.3454 40.832C88.4174 40.576 88.5334 40.352 88.6934 40.16C88.8614 39.968 89.0774 39.816 89.3414 39.704C89.6054 39.592 89.9294 39.536 90.3134 39.536C90.6974 39.536 91.0214 39.592 91.2854 39.704C91.5574 39.816 91.7734 39.968 91.9334 40.16C92.1014 40.352 92.2214 40.576 92.2934 40.832C92.3734 41.088 92.4134 41.36 92.4134 41.648V43.448C92.4134 43.736 92.3734 44.008 92.2934 44.264C92.2214 44.52 92.1014 44.744 91.9334 44.936C91.7734 45.128 91.5574 45.28 91.2854 45.392C91.0214 45.504 90.6974 45.56 90.3134 45.56C89.9294 45.56 89.6054 45.504 89.3414 45.392C89.0774 45.28 88.8614 45.128 88.6934 44.936C88.5334 44.744 88.4174 44.52 88.3454 44.264C88.2734 44.008 88.2374 43.736 88.2374 43.448V41.648ZM94.1054 35.84C94.1054 35.72 94.1414 35.632 94.2134 35.576C94.2854 35.512 94.3774 35.48 94.4894 35.48C94.6014 35.48 94.6934 35.512 94.7654 35.576C94.8454 35.632 94.8854 35.72 94.8854 35.84V40.1H96.5414V35.84C96.5414 35.72 96.5774 35.632 96.6494 35.576C96.7214 35.512 96.8134 35.48 96.9254 35.48C97.0374 35.48 97.1294 35.512 97.2014 35.576C97.2814 35.632 97.3214 35.72 97.3214 35.84V45.428C97.3214 45.548 97.2814 45.636 97.2014 45.692C97.1294 45.756 97.0374 45.788 96.9254 45.788C96.8134 45.788 96.7214 45.756 96.6494 45.692C96.5774 45.636 96.5414 45.548 96.5414 45.428V40.796H94.8854V45.428C94.8854 45.548 94.8454 45.636 94.7654 45.692C94.6934 45.756 94.6014 45.788 94.4894 45.788C94.3774 45.788 94.2854 45.756 94.2134 45.692C94.1414 45.636 94.1054 45.548 94.1054 45.428V35.84ZM89.0174 43.112C89.0174 43.728 89.1054 44.172 89.2814 44.444C89.4654 44.724 89.8094 44.864 90.3134 44.864C90.8254 44.864 91.1734 44.724 91.3574 44.444C91.5414 44.172 91.6334 43.728 91.6334 43.112V41.984C91.6334 41.368 91.5414 40.924 91.3574 40.652C91.1734 40.372 90.8254 40.232 90.3134 40.232C89.8094 40.232 89.4654 40.372 89.2814 40.652C89.1054 40.924 89.0174 41.368 89.0174 41.984V43.112ZM92.9534 37.916C92.9534 38.028 92.9174 38.116 92.8454 38.18C92.7814 38.236 92.7014 38.264 92.6054 38.264H88.0214C87.9254 38.264 87.8414 38.236 87.7694 38.18C87.7054 38.116 87.6734 38.028 87.6734 37.916C87.6734 37.804 87.7054 37.72 87.7694 37.664C87.8414 37.6 87.9254 37.568 88.0214 37.568H92.6054C92.7014 37.568 92.7814 37.6 92.8454 37.664C92.9174 37.72 92.9534 37.804 92.9534 37.916ZM92.1974 35.912C92.1974 36.024 92.1614 36.112 92.0894 36.176C92.0254 36.232 91.9454 36.26 91.8494 36.26H88.7774C88.6814 36.26 88.5974 36.232 88.5254 36.176C88.4614 36.112 88.4294 36.024 88.4294 35.912C88.4294 35.8 88.4614 35.716 88.5254 35.66C88.5974 35.596 88.6814 35.564 88.7774 35.564H91.8494C91.9454 35.564 92.0254 35.596 92.0894 35.66C92.1614 35.716 92.1974 35.8 92.1974 35.912Z" fill="#191919"/>
<path d="M101.992 35.84C101.992 35.72 102.028 35.632 102.1 35.576C102.172 35.512 102.264 35.48 102.376 35.48C102.488 35.48 102.58 35.512 102.652 35.576C102.732 35.632 102.772 35.72 102.772 35.84V40.952C102.78 41.352 102.852 41.728 102.988 42.08C103.124 42.424 103.304 42.756 103.528 43.076C103.752 43.388 104.012 43.692 104.308 43.988C104.604 44.276 104.92 44.556 105.256 44.828C105.352 44.908 105.404 45 105.412 45.104C105.42 45.208 105.392 45.304 105.328 45.392C105.264 45.48 105.168 45.528 105.04 45.536C104.92 45.544 104.804 45.5 104.692 45.404C104.188 44.98 103.736 44.528 103.336 44.048C102.944 43.568 102.632 43.076 102.4 42.572C102.192 43.076 101.896 43.576 101.512 44.072C101.136 44.576 100.692 45.044 100.18 45.476C100.068 45.58 99.9478 45.624 99.8198 45.608C99.6998 45.592 99.6078 45.54 99.5438 45.452C99.4798 45.364 99.4558 45.268 99.4718 45.164C99.4958 45.06 99.5518 44.964 99.6398 44.876C99.9598 44.604 100.26 44.316 100.54 44.012C100.828 43.716 101.08 43.4 101.296 43.064C101.512 42.728 101.68 42.376 101.8 42.008C101.928 41.632 101.992 41.236 101.992 40.82V35.84ZM105.376 40.172C105.376 40.06 105.408 39.976 105.472 39.92C105.544 39.856 105.628 39.824 105.724 39.824H108.28V35.84C108.28 35.72 108.316 35.632 108.388 35.576C108.46 35.512 108.552 35.48 108.664 35.48C108.776 35.48 108.868 35.512 108.94 35.576C109.02 35.632 109.06 35.72 109.06 35.84V45.428C109.06 45.548 109.02 45.636 108.94 45.692C108.868 45.756 108.776 45.788 108.664 45.788C108.552 45.788 108.46 45.756 108.388 45.692C108.316 45.636 108.28 45.548 108.28 45.428V40.52H105.724C105.628 40.52 105.544 40.492 105.472 40.436C105.408 40.372 105.376 40.284 105.376 40.172Z" fill="#191919"/>
<path d="M121.205 36.092C121.205 36.204 121.169 36.292 121.097 36.356C121.033 36.412 120.953 36.44 120.857 36.44H118.829V37.184C118.829 37.6 118.877 37.968 118.973 38.288C119.077 38.608 119.225 38.892 119.417 39.14C119.617 39.388 119.865 39.608 120.161 39.8C120.457 39.992 120.797 40.168 121.181 40.328C121.429 40.432 121.521 40.6 121.457 40.832C121.425 40.944 121.361 41.024 121.265 41.072C121.169 41.12 121.049 41.12 120.905 41.072C120.641 40.992 120.381 40.876 120.125 40.724C119.877 40.564 119.645 40.392 119.429 40.208C119.221 40.016 119.033 39.816 118.865 39.608C118.705 39.4 118.581 39.204 118.493 39.02C118.397 39.228 118.265 39.44 118.097 39.656C117.929 39.872 117.737 40.08 117.521 40.28C117.305 40.472 117.065 40.648 116.801 40.808C116.545 40.968 116.273 41.096 115.985 41.192C115.841 41.24 115.721 41.24 115.625 41.192C115.529 41.144 115.465 41.064 115.433 40.952C115.401 40.84 115.409 40.74 115.457 40.652C115.513 40.556 115.597 40.488 115.709 40.448C116.085 40.304 116.417 40.136 116.705 39.944C117.001 39.752 117.245 39.532 117.437 39.284C117.637 39.028 117.789 38.74 117.893 38.42C117.997 38.092 118.049 37.72 118.049 37.304V36.44H116.021C115.925 36.44 115.841 36.412 115.769 36.356C115.705 36.292 115.673 36.204 115.673 36.092C115.673 35.98 115.705 35.896 115.769 35.84C115.841 35.776 115.925 35.744 116.021 35.744H120.857C120.953 35.744 121.033 35.776 121.097 35.84C121.169 35.896 121.205 35.98 121.205 36.092ZM117.089 44.648C117.089 44.744 117.105 44.808 117.137 44.84C117.177 44.872 117.229 44.888 117.293 44.888H124.937C125.033 44.888 125.113 44.916 125.177 44.972C125.249 45.036 125.285 45.124 125.285 45.236C125.285 45.348 125.249 45.432 125.177 45.488C125.113 45.552 125.033 45.584 124.937 45.584H117.173C116.981 45.584 116.825 45.556 116.705 45.5C116.593 45.444 116.505 45.372 116.441 45.284C116.385 45.196 116.349 45.096 116.333 44.984C116.317 44.872 116.309 44.76 116.309 44.648V42.824C116.309 42.704 116.345 42.616 116.417 42.56C116.489 42.496 116.581 42.464 116.693 42.464C116.805 42.464 116.897 42.496 116.969 42.56C117.049 42.616 117.089 42.704 117.089 42.824V44.648ZM121.601 38.396C121.601 38.284 121.633 38.2 121.697 38.144C121.769 38.08 121.853 38.048 121.949 38.048H124.145V35.84C124.145 35.72 124.181 35.632 124.253 35.576C124.325 35.512 124.417 35.48 124.529 35.48C124.641 35.48 124.733 35.512 124.805 35.576C124.885 35.632 124.925 35.72 124.925 35.84V41.84C124.925 41.96 124.885 42.052 124.805 42.116C124.733 42.172 124.641 42.2 124.529 42.2C124.417 42.2 124.325 42.172 124.253 42.116C124.181 42.052 124.145 41.96 124.145 41.84V38.744H121.949C121.853 38.744 121.769 38.716 121.697 38.66C121.633 38.596 121.601 38.508 121.601 38.396Z" fill="#191919"/>
<path d="M128.84 44.648C128.84 44.744 128.856 44.808 128.888 44.84C128.928 44.872 128.98 44.888 129.044 44.888H136.472C136.568 44.888 136.648 44.916 136.712 44.972C136.784 45.036 136.82 45.124 136.82 45.236C136.82 45.348 136.784 45.432 136.712 45.488C136.648 45.552 136.568 45.584 136.472 45.584H128.924C128.732 45.584 128.576 45.564 128.456 45.524C128.344 45.492 128.256 45.444 128.192 45.38C128.136 45.316 128.1 45.236 128.084 45.14C128.068 45.052 128.06 44.952 128.06 44.84V43.904C128.06 43.792 128.068 43.688 128.084 43.592C128.1 43.488 128.136 43.4 128.192 43.328C128.256 43.256 128.344 43.2 128.456 43.16C128.576 43.112 128.732 43.088 128.924 43.088H135.476C135.54 43.088 135.588 43.072 135.62 43.04C135.66 43.008 135.68 42.944 135.68 42.848V42.284C135.68 42.188 135.66 42.124 135.62 42.092C135.588 42.06 135.54 42.044 135.476 42.044H128.408C128.312 42.044 128.228 42.016 128.156 41.96C128.092 41.896 128.06 41.808 128.06 41.696C128.06 41.584 128.092 41.5 128.156 41.444C128.228 41.38 128.312 41.348 128.408 41.348H135.596C135.788 41.348 135.94 41.368 136.052 41.408C136.172 41.44 136.26 41.492 136.316 41.564C136.38 41.628 136.42 41.708 136.436 41.804C136.452 41.892 136.46 41.992 136.46 42.104V43.04C136.46 43.152 136.452 43.256 136.436 43.352C136.42 43.44 136.38 43.516 136.316 43.58C136.26 43.644 136.172 43.696 136.052 43.736C135.94 43.768 135.788 43.784 135.596 43.784H129.044C128.98 43.784 128.928 43.8 128.888 43.832C128.856 43.864 128.84 43.928 128.84 44.024V44.648ZM128.732 39.092C128.732 39.188 128.748 39.252 128.78 39.284C128.82 39.316 128.872 39.332 128.936 39.332H132.452C132.548 39.332 132.628 39.364 132.692 39.428C132.764 39.484 132.8 39.568 132.8 39.68C132.8 39.792 132.764 39.88 132.692 39.944C132.628 40 132.548 40.028 132.452 40.028H128.816C128.624 40.028 128.468 40 128.348 39.944C128.236 39.888 128.148 39.816 128.084 39.728C128.028 39.64 127.992 39.54 127.976 39.428C127.96 39.316 127.952 39.204 127.952 39.092V36.56C127.952 36.448 127.96 36.336 127.976 36.224C127.992 36.112 128.028 36.012 128.084 35.924C128.148 35.836 128.236 35.764 128.348 35.708C128.468 35.652 128.624 35.624 128.816 35.624H131.972C132.068 35.624 132.148 35.656 132.212 35.72C132.284 35.776 132.32 35.86 132.32 35.972C132.32 36.084 132.284 36.172 132.212 36.236C132.148 36.292 132.068 36.32 131.972 36.32H128.936C128.872 36.32 128.82 36.336 128.78 36.368C128.748 36.4 128.732 36.464 128.732 36.56V39.092ZM138.392 37.844C138.392 37.956 138.356 38.044 138.284 38.108C138.22 38.164 138.14 38.192 138.044 38.192H136.448V40.052C136.448 40.172 136.408 40.264 136.328 40.328C136.256 40.384 136.164 40.412 136.052 40.412C135.94 40.412 135.848 40.384 135.776 40.328C135.704 40.264 135.668 40.172 135.668 40.052V35.84C135.668 35.72 135.704 35.632 135.776 35.576C135.848 35.512 135.94 35.48 136.052 35.48C136.164 35.48 136.256 35.512 136.328 35.576C136.408 35.632 136.448 35.72 136.448 35.84V37.496H138.044C138.14 37.496 138.22 37.528 138.284 37.592C138.356 37.648 138.392 37.732 138.392 37.844Z" fill="#191919"/>
<path d="M139.774 41.648C139.774 41.36 139.81 41.088 139.882 40.832C139.954 40.576 140.07 40.352 140.23 40.16C140.398 39.968 140.614 39.816 140.878 39.704C141.142 39.592 141.466 39.536 141.85 39.536C142.234 39.536 142.558 39.592 142.822 39.704C143.094 39.816 143.31 39.968 143.47 40.16C143.638 40.352 143.758 40.576 143.83 40.832C143.91 41.088 143.95 41.36 143.95 41.648V43.448C143.95 43.736 143.91 44.008 143.83 44.264C143.758 44.52 143.638 44.744 143.47 44.936C143.31 45.128 143.094 45.28 142.822 45.392C142.558 45.504 142.234 45.56 141.85 45.56C141.466 45.56 141.142 45.504 140.878 45.392C140.614 45.28 140.398 45.128 140.23 44.936C140.07 44.744 139.954 44.52 139.882 44.264C139.81 44.008 139.774 43.736 139.774 43.448V41.648ZM145.642 35.84C145.642 35.72 145.678 35.632 145.75 35.576C145.822 35.512 145.914 35.48 146.026 35.48C146.138 35.48 146.23 35.512 146.302 35.576C146.382 35.632 146.422 35.72 146.422 35.84V40.1H148.078V35.84C148.078 35.72 148.114 35.632 148.186 35.576C148.258 35.512 148.35 35.48 148.462 35.48C148.574 35.48 148.666 35.512 148.738 35.576C148.818 35.632 148.858 35.72 148.858 35.84V45.428C148.858 45.548 148.818 45.636 148.738 45.692C148.666 45.756 148.574 45.788 148.462 45.788C148.35 45.788 148.258 45.756 148.186 45.692C148.114 45.636 148.078 45.548 148.078 45.428V40.796H146.422V45.428C146.422 45.548 146.382 45.636 146.302 45.692C146.23 45.756 146.138 45.788 146.026 45.788C145.914 45.788 145.822 45.756 145.75 45.692C145.678 45.636 145.642 45.548 145.642 45.428V35.84ZM140.554 43.112C140.554 43.728 140.642 44.172 140.818 44.444C141.002 44.724 141.346 44.864 141.85 44.864C142.362 44.864 142.71 44.724 142.894 44.444C143.078 44.172 143.17 43.728 143.17 43.112V41.984C143.17 41.368 143.078 40.924 142.894 40.652C142.71 40.372 142.362 40.232 141.85 40.232C141.346 40.232 141.002 40.372 140.818 40.652C140.642 40.924 140.554 41.368 140.554 41.984V43.112ZM144.49 37.916C144.49 38.028 144.454 38.116 144.382 38.18C144.318 38.236 144.238 38.264 144.142 38.264H139.558C139.462 38.264 139.378 38.236 139.306 38.18C139.242 38.116 139.21 38.028 139.21 37.916C139.21 37.804 139.242 37.72 139.306 37.664C139.378 37.6 139.462 37.568 139.558 37.568H144.142C144.238 37.568 144.318 37.6 144.382 37.664C144.454 37.72 144.49 37.804 144.49 37.916ZM143.734 35.912C143.734 36.024 143.698 36.112 143.626 36.176C143.562 36.232 143.482 36.26 143.386 36.26H140.314C140.218 36.26 140.134 36.232 140.062 36.176C139.998 36.112 139.966 36.024 139.966 35.912C139.966 35.8 139.998 35.716 140.062 35.66C140.134 35.596 140.218 35.564 140.314 35.564H143.386C143.482 35.564 143.562 35.596 143.626 35.66C143.698 35.716 143.734 35.8 143.734 35.912Z" fill="#191919"/>
<path d="M164.604 35.972C164.604 36.084 164.568 36.172 164.496 36.236C164.432 36.292 164.352 36.32 164.256 36.32H160.812V36.572C160.812 36.988 160.924 37.36 161.148 37.688C161.372 38.016 161.668 38.304 162.036 38.552C162.404 38.792 162.828 38.996 163.308 39.164C163.788 39.324 164.284 39.452 164.796 39.548C165.036 39.62 165.132 39.768 165.084 39.992C165.068 40.096 165.016 40.18 164.928 40.244C164.848 40.3 164.736 40.312 164.592 40.28C163.536 40.072 162.656 39.772 161.952 39.38C161.256 38.988 160.744 38.516 160.416 37.964C160.096 38.516 159.584 38.988 158.88 39.38C158.176 39.772 157.3 40.072 156.252 40.28C156.108 40.312 155.992 40.3 155.904 40.244C155.824 40.18 155.776 40.096 155.76 39.992C155.712 39.768 155.808 39.62 156.048 39.548C156.56 39.452 157.056 39.324 157.536 39.164C158.016 38.996 158.44 38.792 158.808 38.552C159.176 38.304 159.472 38.016 159.696 37.688C159.92 37.36 160.032 36.988 160.032 36.572V36.32H156.576C156.48 36.32 156.396 36.292 156.324 36.236C156.26 36.172 156.228 36.084 156.228 35.972C156.228 35.86 156.26 35.776 156.324 35.72C156.396 35.656 156.48 35.624 156.576 35.624H164.256C164.352 35.624 164.432 35.656 164.496 35.72C164.568 35.776 164.604 35.86 164.604 35.972ZM165.564 42.152C165.564 42.264 165.528 42.352 165.456 42.416C165.392 42.472 165.312 42.5 165.216 42.5H160.812V45.428C160.812 45.548 160.772 45.636 160.692 45.692C160.62 45.756 160.528 45.788 160.416 45.788C160.304 45.788 160.212 45.756 160.14 45.692C160.068 45.636 160.032 45.548 160.032 45.428V42.5H155.616C155.52 42.5 155.436 42.472 155.364 42.416C155.3 42.352 155.268 42.264 155.268 42.152C155.268 42.04 155.3 41.956 155.364 41.9C155.436 41.836 155.52 41.804 155.616 41.804H165.216C165.312 41.804 165.392 41.836 165.456 41.9C165.528 41.956 165.564 42.04 165.564 42.152Z" fill="#191919"/>
<path d="M169.082 35.84C169.082 35.72 169.118 35.632 169.19 35.576C169.262 35.512 169.354 35.48 169.466 35.48C169.578 35.48 169.67 35.512 169.742 35.576C169.822 35.632 169.862 35.72 169.862 35.84V40.832C169.87 41.232 169.926 41.608 170.03 41.96C170.142 42.304 170.29 42.636 170.474 42.956C170.658 43.276 170.878 43.588 171.134 43.892C171.398 44.188 171.69 44.484 172.01 44.78C172.098 44.868 172.142 44.964 172.142 45.068C172.15 45.172 172.118 45.268 172.046 45.356C171.974 45.444 171.878 45.484 171.758 45.476C171.638 45.476 171.522 45.424 171.41 45.32C170.97 44.904 170.586 44.464 170.258 44C169.938 43.544 169.686 43.084 169.502 42.62C169.318 43.092 169.07 43.564 168.758 44.036C168.454 44.516 168.086 44.984 167.654 45.44C167.55 45.552 167.434 45.608 167.306 45.608C167.186 45.608 167.09 45.564 167.018 45.476C166.946 45.388 166.91 45.292 166.91 45.188C166.918 45.084 166.966 44.988 167.054 44.9C167.342 44.596 167.606 44.284 167.846 43.964C168.094 43.644 168.31 43.312 168.494 42.968C168.678 42.624 168.822 42.264 168.926 41.888C169.03 41.512 169.082 41.116 169.082 40.7V35.84ZM171.362 40.172C171.362 40.06 171.394 39.976 171.458 39.92C171.53 39.856 171.614 39.824 171.71 39.824H173.618V35.84C173.618 35.72 173.654 35.632 173.726 35.576C173.798 35.512 173.89 35.48 174.002 35.48C174.114 35.48 174.206 35.512 174.278 35.576C174.358 35.632 174.398 35.72 174.398 35.84V45.428C174.398 45.548 174.358 45.636 174.278 45.692C174.206 45.756 174.114 45.788 174.002 45.788C173.89 45.788 173.798 45.756 173.726 45.692C173.654 45.636 173.618 45.548 173.618 45.428V40.52H171.71C171.614 40.52 171.53 40.492 171.458 40.436C171.394 40.372 171.362 40.284 171.362 40.172ZM175.814 35.84C175.814 35.72 175.85 35.632 175.922 35.576C175.994 35.512 176.086 35.48 176.198 35.48C176.31 35.48 176.402 35.512 176.474 35.576C176.554 35.632 176.594 35.72 176.594 35.84V45.428C176.594 45.548 176.554 45.636 176.474 45.692C176.402 45.756 176.31 45.788 176.198 45.788C176.086 45.788 175.994 45.756 175.922 45.692C175.85 45.636 175.814 45.548 175.814 45.428V35.84Z" fill="#191919"/>
<path d="M188.525 38.24C188.525 38.6 188.469 38.94 188.357 39.26C188.253 39.58 188.096 39.86 187.889 40.1C187.681 40.332 187.425 40.52 187.121 40.664C186.825 40.8 186.48 40.868 186.089 40.868H182.261C181.869 40.868 181.521 40.8 181.217 40.664C180.921 40.52 180.669 40.332 180.461 40.1C180.253 39.86 180.093 39.58 179.981 39.26C179.877 38.94 179.825 38.6 179.825 38.24C179.825 37.88 179.877 37.54 179.981 37.22C180.093 36.9 180.253 36.62 180.461 36.38C180.669 36.14 180.921 35.952 181.217 35.816C181.521 35.672 181.869 35.6 182.261 35.6H186.089C186.48 35.6 186.825 35.672 187.121 35.816C187.425 35.952 187.681 36.14 187.889 36.38C188.096 36.62 188.253 36.9 188.357 37.22C188.469 37.54 188.525 37.88 188.525 38.24ZM187.745 38.24C187.745 37.96 187.709 37.704 187.637 37.472C187.564 37.232 187.452 37.024 187.301 36.848C187.157 36.672 186.969 36.536 186.737 36.44C186.505 36.344 186.232 36.296 185.921 36.296H182.429C182.117 36.296 181.844 36.344 181.613 36.44C181.381 36.536 181.189 36.672 181.037 36.848C180.893 37.024 180.785 37.232 180.713 37.472C180.641 37.704 180.605 37.96 180.605 38.24C180.605 38.52 180.641 38.78 180.713 39.02C180.785 39.252 180.893 39.456 181.037 39.632C181.189 39.8 181.381 39.932 181.613 40.028C181.844 40.124 182.117 40.172 182.429 40.172H185.921C186.232 40.172 186.505 40.124 186.737 40.028C186.969 39.932 187.157 39.8 187.301 39.632C187.452 39.456 187.564 39.252 187.637 39.02C187.709 38.78 187.745 38.52 187.745 38.24ZM189.329 45.116C189.329 45.228 189.293 45.312 189.221 45.368C189.157 45.432 189.077 45.464 188.981 45.464H179.381C179.285 45.464 179.201 45.432 179.129 45.368C179.065 45.312 179.033 45.228 179.033 45.116C179.033 45.004 179.065 44.916 179.129 44.852C179.201 44.796 179.285 44.768 179.381 44.768H181.457V42.416C181.457 42.296 181.493 42.208 181.565 42.152C181.637 42.088 181.729 42.056 181.841 42.056C181.953 42.056 182.044 42.088 182.117 42.152C182.197 42.208 182.237 42.296 182.237 42.416V44.768H186.137V42.416C186.137 42.296 186.173 42.208 186.245 42.152C186.317 42.088 186.409 42.056 186.521 42.056C186.633 42.056 186.725 42.088 186.797 42.152C186.877 42.208 186.917 42.296 186.917 42.416V44.768H188.981C189.077 44.768 189.157 44.796 189.221 44.852C189.293 44.916 189.329 45.004 189.329 45.116Z" fill="#191919"/>
<path d="M191.215 44.168C191.215 43.936 191.291 43.744 191.443 43.592C191.603 43.432 191.799 43.352 192.031 43.352C192.263 43.352 192.459 43.432 192.619 43.592C192.779 43.744 192.859 43.936 192.859 44.168C192.859 44.4 192.779 44.592 192.619 44.744C192.459 44.896 192.263 44.972 192.031 44.972C191.799 44.972 191.603 44.896 191.443 44.744C191.291 44.592 191.215 44.4 191.215 44.168Z" fill="#191919"/>
<path d="M22.836 59.092C22.836 59.204 22.8 59.292 22.728 59.356C22.664 59.412 22.584 59.44 22.488 59.44H18.084V62.428C18.084 62.548 18.044 62.636 17.964 62.692C17.892 62.756 17.8 62.788 17.688 62.788C17.576 62.788 17.484 62.756 17.412 62.692C17.34 62.636 17.304 62.548 17.304 62.428V59.44H12.888C12.792 59.44 12.708 59.412 12.636 59.356C12.572 59.292 12.54 59.204 12.54 59.092C12.54 58.98 12.572 58.896 12.636 58.84C12.708 58.776 12.792 58.744 12.888 58.744H22.488C22.584 58.744 22.664 58.776 22.728 58.84C22.8 58.896 22.836 58.98 22.836 59.092ZM14.256 55.828C14.256 55.924 14.272 55.988 14.304 56.02C14.344 56.052 14.396 56.068 14.46 56.068H21.708C21.804 56.068 21.884 56.1 21.948 56.164C22.02 56.22 22.056 56.304 22.056 56.416C22.056 56.528 22.02 56.616 21.948 56.68C21.884 56.736 21.804 56.764 21.708 56.764H14.34C14.148 56.764 13.992 56.736 13.872 56.68C13.76 56.624 13.672 56.552 13.608 56.464C13.552 56.376 13.516 56.276 13.5 56.164C13.484 56.052 13.476 55.94 13.476 55.828V52.828C13.476 52.708 13.512 52.62 13.584 52.564C13.656 52.5 13.748 52.468 13.86 52.468C13.972 52.468 14.064 52.5 14.136 52.564C14.216 52.62 14.256 52.708 14.256 52.828V55.828Z" fill="#191919"/>
<path d="M34.7184 62.116C34.7184 62.228 34.6824 62.312 34.6104 62.368C34.5464 62.432 34.4664 62.464 34.3704 62.464H24.7704C24.6744 62.464 24.5904 62.432 24.5184 62.368C24.4544 62.312 24.4224 62.228 24.4224 62.116C24.4224 62.004 24.4544 61.916 24.5184 61.852C24.5904 61.796 24.6744 61.768 24.7704 61.768H34.3704C34.4664 61.768 34.5464 61.796 34.6104 61.852C34.6824 61.916 34.7184 62.004 34.7184 62.116ZM26.3424 55.912C26.2784 55.912 26.2264 55.928 26.1864 55.96C26.1544 55.992 26.1384 56.056 26.1384 56.152V57.58C26.1384 57.676 26.1544 57.74 26.1864 57.772C26.2264 57.804 26.2784 57.82 26.3424 57.82H33.4584C33.5544 57.82 33.6344 57.852 33.6984 57.916C33.7704 57.972 33.8064 58.056 33.8064 58.168C33.8064 58.28 33.7704 58.368 33.6984 58.432C33.6344 58.488 33.5544 58.516 33.4584 58.516H26.2224C26.0304 58.516 25.8744 58.488 25.7544 58.432C25.6424 58.376 25.5544 58.304 25.4904 58.216C25.4344 58.128 25.3984 58.028 25.3824 57.916C25.3664 57.804 25.3584 57.692 25.3584 57.58V56.152C25.3584 56.04 25.3664 55.928 25.3824 55.816C25.3984 55.704 25.4344 55.604 25.4904 55.516C25.5544 55.428 25.6424 55.356 25.7544 55.3C25.8744 55.244 26.0304 55.216 26.2224 55.216H32.8224C32.8864 55.216 32.9344 55.2 32.9664 55.168C33.0064 55.136 33.0264 55.072 33.0264 54.976V53.656C33.0264 53.56 33.0064 53.496 32.9664 53.464C32.9344 53.432 32.8864 53.416 32.8224 53.416H25.7904C25.6944 53.416 25.6104 53.388 25.5384 53.332C25.4744 53.268 25.4424 53.18 25.4424 53.068C25.4424 52.956 25.4744 52.872 25.5384 52.816C25.6104 52.752 25.6944 52.72 25.7904 52.72H32.9424C33.1344 52.72 33.2864 52.748 33.3984 52.804C33.5184 52.86 33.6064 52.932 33.6624 53.02C33.7264 53.108 33.7664 53.208 33.7824 53.32C33.7984 53.432 33.8064 53.544 33.8064 53.656V54.976C33.8064 55.088 33.7984 55.2 33.7824 55.312C33.7664 55.424 33.7264 55.524 33.6624 55.612C33.6064 55.7 33.5184 55.772 33.3984 55.828C33.2864 55.884 33.1344 55.912 32.9424 55.912H26.3424Z" fill="#191919"/>
<path d="M40.4087 52.744C40.6007 52.744 40.7527 52.772 40.8647 52.828C40.9847 52.884 41.0727 52.956 41.1287 53.044C41.1927 53.132 41.2327 53.232 41.2487 53.344C41.2647 53.456 41.2727 53.568 41.2727 53.68V57.112C41.2727 57.224 41.2647 57.336 41.2487 57.448C41.2327 57.56 41.1927 57.66 41.1287 57.748C41.0727 57.836 40.9847 57.908 40.8647 57.964C40.7527 58.02 40.6007 58.048 40.4087 58.048H37.6247C37.4327 58.048 37.2767 58.02 37.1567 57.964C37.0447 57.908 36.9567 57.836 36.8927 57.748C36.8367 57.66 36.8007 57.56 36.7847 57.448C36.7687 57.336 36.7607 57.224 36.7607 57.112V53.68C36.7607 53.568 36.7687 53.456 36.7847 53.344C36.8007 53.232 36.8367 53.132 36.8927 53.044C36.9567 52.956 37.0447 52.884 37.1567 52.828C37.2767 52.772 37.4327 52.744 37.6247 52.744H40.4087ZM40.2887 57.352C40.3527 57.352 40.4007 57.336 40.4327 57.304C40.4727 57.272 40.4927 57.208 40.4927 57.112V53.68C40.4927 53.584 40.4727 53.52 40.4327 53.488C40.4007 53.456 40.3527 53.44 40.2887 53.44H37.7447C37.6807 53.44 37.6287 53.456 37.5887 53.488C37.5567 53.52 37.5407 53.584 37.5407 53.68V57.112C37.5407 57.208 37.5567 57.272 37.5887 57.304C37.6287 57.336 37.6807 57.352 37.7447 57.352H40.2887ZM42.6167 54.196C42.6167 54.084 42.6487 54 42.7127 53.944C42.7847 53.88 42.8687 53.848 42.9647 53.848H44.8367V52.84C44.8367 52.72 44.8727 52.632 44.9447 52.576C45.0167 52.512 45.1087 52.48 45.2207 52.48C45.3327 52.48 45.4247 52.512 45.4967 52.576C45.5767 52.632 45.6167 52.72 45.6167 52.84V58.732C45.6167 58.852 45.5767 58.944 45.4967 59.008C45.4247 59.064 45.3327 59.092 45.2207 59.092C45.1087 59.092 45.0167 59.064 44.9447 59.008C44.8727 58.944 44.8367 58.852 44.8367 58.732V57.028H42.9647C42.8687 57.028 42.7847 57 42.7127 56.944C42.6487 56.88 42.6167 56.792 42.6167 56.68C42.6167 56.568 42.6487 56.484 42.7127 56.428C42.7847 56.364 42.8687 56.332 42.9647 56.332H44.8367V54.544H42.9647C42.8687 54.544 42.7847 54.516 42.7127 54.46C42.6487 54.396 42.6167 54.308 42.6167 54.196ZM37.7807 61.648C37.7807 61.744 37.7967 61.808 37.8287 61.84C37.8687 61.872 37.9207 61.888 37.9847 61.888H45.5087C45.6047 61.888 45.6847 61.916 45.7487 61.972C45.8207 62.036 45.8567 62.124 45.8567 62.236C45.8567 62.348 45.8207 62.432 45.7487 62.488C45.6847 62.552 45.6047 62.584 45.5087 62.584H37.8647C37.6727 62.584 37.5167 62.556 37.3967 62.5C37.2847 62.444 37.1967 62.372 37.1327 62.284C37.0767 62.196 37.0407 62.096 37.0247 61.984C37.0087 61.872 37.0007 61.76 37.0007 61.648V59.812C37.0007 59.692 37.0367 59.604 37.1087 59.548C37.1807 59.484 37.2727 59.452 37.3847 59.452C37.4967 59.452 37.5887 59.484 37.6607 59.548C37.7407 59.604 37.7807 59.692 37.7807 59.812V61.648Z" fill="#191919"/>
<path d="M61.5784 55.6C61.5784 55.712 61.5704 55.824 61.5544 55.936C61.5384 56.048 61.4984 56.148 61.4344 56.236C61.3784 56.324 61.2904 56.396 61.1704 56.452C61.0584 56.508 60.9064 56.536 60.7144 56.536H53.9944C53.8024 56.536 53.6464 56.508 53.5264 56.452C53.4144 56.396 53.3264 56.324 53.2624 56.236C53.2064 56.148 53.1704 56.048 53.1544 55.936C53.1384 55.824 53.1304 55.712 53.1304 55.6V52.96C53.1304 52.84 53.1664 52.752 53.2384 52.696C53.3104 52.632 53.4024 52.6 53.5144 52.6C53.6264 52.6 53.7184 52.632 53.7904 52.696C53.8704 52.752 53.9104 52.84 53.9104 52.96V53.932H60.7984V52.96C60.7984 52.84 60.8344 52.752 60.9064 52.696C60.9784 52.632 61.0704 52.6 61.1824 52.6C61.2944 52.6 61.3864 52.632 61.4584 52.696C61.5384 52.752 61.5784 52.84 61.5784 52.96V55.6ZM60.5944 55.84C60.6584 55.84 60.7064 55.824 60.7384 55.792C60.7784 55.76 60.7984 55.696 60.7984 55.6V54.628H53.9104V55.6C53.9104 55.696 53.9264 55.76 53.9584 55.792C53.9984 55.824 54.0504 55.84 54.1144 55.84H60.5944ZM62.4904 58.576C62.4904 58.688 62.4544 58.776 62.3824 58.84C62.3184 58.896 62.2384 58.924 62.1424 58.924H52.5424C52.4464 58.924 52.3624 58.896 52.2904 58.84C52.2264 58.776 52.1944 58.688 52.1944 58.576C52.1944 58.464 52.2264 58.38 52.2904 58.324C52.3624 58.26 52.4464 58.228 52.5424 58.228H56.9584V57.376C56.9584 57.256 56.9944 57.168 57.0664 57.112C57.1384 57.048 57.2304 57.016 57.3424 57.016C57.4544 57.016 57.5464 57.048 57.6184 57.112C57.6984 57.168 57.7384 57.256 57.7384 57.376V58.228H62.1424C62.2384 58.228 62.3184 58.26 62.3824 58.324C62.4544 58.38 62.4904 58.464 62.4904 58.576ZM60.7984 60.952C60.7984 60.856 60.7784 60.792 60.7384 60.76C60.7064 60.728 60.6584 60.712 60.5944 60.712H53.3464C53.2504 60.712 53.1664 60.684 53.0944 60.628C53.0304 60.564 52.9984 60.476 52.9984 60.364C52.9984 60.252 53.0304 60.168 53.0944 60.112C53.1664 60.048 53.2504 60.016 53.3464 60.016H60.7144C60.9064 60.016 61.0584 60.044 61.1704 60.1C61.2904 60.156 61.3784 60.228 61.4344 60.316C61.4984 60.404 61.5384 60.504 61.5544 60.616C61.5704 60.728 61.5784 60.84 61.5784 60.952V62.284C61.5784 62.404 61.5424 62.492 61.4704 62.548C61.3984 62.612 61.3064 62.644 61.1944 62.644C61.0824 62.644 60.9864 62.612 60.9064 62.548C60.8344 62.492 60.7984 62.404 60.7984 62.284V60.952Z" fill="#191919"/>
<path d="M66.3447 52.84C66.3447 52.72 66.3807 52.632 66.4527 52.576C66.5247 52.512 66.6167 52.48 66.7287 52.48C66.8407 52.48 66.9327 52.512 67.0047 52.576C67.0847 52.632 67.1247 52.72 67.1247 52.84V57.952C67.1327 58.352 67.2047 58.728 67.3407 59.08C67.4767 59.424 67.6567 59.756 67.8807 60.076C68.1047 60.388 68.3647 60.692 68.6607 60.988C68.9567 61.276 69.2727 61.556 69.6087 61.828C69.7047 61.908 69.7567 62 69.7647 62.104C69.7727 62.208 69.7447 62.304 69.6807 62.392C69.6167 62.48 69.5207 62.528 69.3927 62.536C69.2727 62.544 69.1567 62.5 69.0447 62.404C68.5407 61.98 68.0887 61.528 67.6887 61.048C67.2967 60.568 66.9847 60.076 66.7527 59.572C66.5447 60.076 66.2487 60.576 65.8647 61.072C65.4887 61.576 65.0447 62.044 64.5327 62.476C64.4207 62.58 64.3007 62.624 64.1727 62.608C64.0527 62.592 63.9607 62.54 63.8967 62.452C63.8327 62.364 63.8087 62.268 63.8247 62.164C63.8487 62.06 63.9047 61.964 63.9927 61.876C64.3127 61.604 64.6127 61.316 64.8927 61.012C65.1807 60.716 65.4327 60.4 65.6487 60.064C65.8647 59.728 66.0327 59.376 66.1527 59.008C66.2807 58.632 66.3447 58.236 66.3447 57.82V52.84ZM74.8527 57.292C74.8527 57.404 74.8167 57.492 74.7447 57.556C74.6807 57.612 74.6007 57.64 74.5047 57.64H72.7407V62.428C72.7407 62.548 72.7007 62.636 72.6207 62.692C72.5487 62.756 72.4567 62.788 72.3447 62.788C72.2327 62.788 72.1407 62.756 72.0687 62.692C71.9967 62.636 71.9607 62.548 71.9607 62.428V52.84C71.9607 52.72 71.9967 52.632 72.0687 52.576C72.1407 52.512 72.2327 52.48 72.3447 52.48C72.4567 52.48 72.5487 52.512 72.6207 52.576C72.7007 52.632 72.7407 52.72 72.7407 52.84V56.944H74.5047C74.6007 56.944 74.6807 56.976 74.7447 57.04C74.8167 57.096 74.8527 57.18 74.8527 57.292Z" fill="#191919"/>
<path d="M85.2711 61.66C85.2711 61.772 85.2631 61.884 85.2471 61.996C85.2311 62.108 85.1911 62.208 85.1271 62.296C85.0711 62.384 84.9831 62.456 84.8631 62.512C84.7511 62.568 84.5991 62.596 84.4071 62.596H77.6871C77.4951 62.596 77.3391 62.568 77.2191 62.512C77.1071 62.456 77.0191 62.384 76.9551 62.296C76.8991 62.208 76.8631 62.108 76.8471 61.996C76.8311 61.884 76.8231 61.772 76.8231 61.66V59.488C76.8231 59.368 76.8591 59.28 76.9311 59.224C77.0031 59.16 77.0951 59.128 77.2071 59.128C77.3191 59.128 77.4111 59.16 77.4831 59.224C77.5631 59.28 77.6031 59.368 77.6031 59.488V60.124H84.4911V59.488C84.4911 59.368 84.5271 59.28 84.5991 59.224C84.6711 59.16 84.7631 59.128 84.8751 59.128C84.9871 59.128 85.0791 59.16 85.1511 59.224C85.2311 59.28 85.2711 59.368 85.2711 59.488V61.66ZM77.2431 54.64C77.2431 54.736 77.2591 54.8 77.2911 54.832C77.3311 54.864 77.3831 54.88 77.4471 54.88H81.6591C81.7551 54.88 81.8351 54.912 81.8991 54.976C81.9711 55.032 82.0071 55.116 82.0071 55.228C82.0071 55.34 81.9711 55.428 81.8991 55.492C81.8351 55.548 81.7551 55.576 81.6591 55.576H77.3271C77.1351 55.576 76.9791 55.548 76.8591 55.492C76.7471 55.436 76.6591 55.364 76.5951 55.276C76.5391 55.188 76.5031 55.088 76.4871 54.976C76.4711 54.864 76.4631 54.752 76.4631 54.64V53.56C76.4631 53.448 76.4711 53.336 76.4871 53.224C76.5031 53.112 76.5391 53.012 76.5951 52.924C76.6591 52.836 76.7471 52.764 76.8591 52.708C76.9791 52.652 77.1351 52.624 77.3271 52.624H81.4191C81.5151 52.624 81.5951 52.656 81.6591 52.72C81.7311 52.776 81.7671 52.86 81.7671 52.972C81.7671 53.084 81.7311 53.172 81.6591 53.236C81.5951 53.292 81.5151 53.32 81.4191 53.32H77.4471C77.3831 53.32 77.3311 53.336 77.2911 53.368C77.2591 53.4 77.2431 53.464 77.2431 53.56V54.64ZM84.2871 61.9C84.3511 61.9 84.3991 61.884 84.4311 61.852C84.4711 61.82 84.4911 61.756 84.4911 61.66V60.82H77.6031V61.66C77.6031 61.756 77.6191 61.82 77.6511 61.852C77.6911 61.884 77.7431 61.9 77.8071 61.9H84.2871ZM82.7271 57.724C82.7271 57.836 82.6911 57.924 82.6191 57.988C82.5551 58.044 82.4751 58.072 82.3791 58.072H76.3071C76.2111 58.072 76.1271 58.044 76.0551 57.988C75.9911 57.924 75.9591 57.836 75.9591 57.724C75.9591 57.612 75.9911 57.528 76.0551 57.472C76.1271 57.408 76.2111 57.376 76.3071 57.376H78.9351V56.404C78.9351 56.284 78.9711 56.196 79.0431 56.14C79.1151 56.076 79.2071 56.044 79.3191 56.044C79.4311 56.044 79.5231 56.076 79.5951 56.14C79.6751 56.196 79.7151 56.284 79.7151 56.404V57.376H82.3791C82.4751 57.376 82.5551 57.408 82.6191 57.472C82.6911 57.528 82.7271 57.612 82.7271 57.724ZM84.4911 52.84C84.4911 52.72 84.5271 52.632 84.5991 52.576C84.6711 52.512 84.7631 52.48 84.8751 52.48C84.9871 52.48 85.0791 52.512 85.1511 52.576C85.2311 52.632 85.2711 52.72 85.2711 52.84V58.012C85.2711 58.132 85.2311 58.224 85.1511 58.288C85.0791 58.344 84.9871 58.372 84.8751 58.372C84.7631 58.372 84.6711 58.344 84.5991 58.288C84.5271 58.224 84.4911 58.132 84.4911 58.012V52.84Z" fill="#191919"/>
<path d="M96.2534 52.84C96.2534 52.72 96.2894 52.632 96.3614 52.576C96.4334 52.512 96.5254 52.48 96.6374 52.48C96.7494 52.48 96.8414 52.512 96.9134 52.576C96.9934 52.632 97.0334 52.72 97.0334 52.84V62.428C97.0334 62.548 96.9934 62.636 96.9134 62.692C96.8414 62.756 96.7494 62.788 96.6374 62.788C96.5254 62.788 96.4334 62.756 96.3614 62.692C96.2894 62.636 96.2534 62.548 96.2534 62.428V52.84ZM93.2294 62.068C93.2294 62.18 93.1934 62.264 93.1214 62.32C93.0574 62.384 92.9774 62.416 92.8814 62.416H89.4854C89.2934 62.416 89.1374 62.388 89.0174 62.332C88.9054 62.276 88.8174 62.204 88.7534 62.116C88.6974 62.028 88.6614 61.928 88.6454 61.816C88.6294 61.704 88.6214 61.592 88.6214 61.48V52.948C88.6214 52.828 88.6574 52.74 88.7294 52.684C88.8014 52.62 88.8934 52.588 89.0054 52.588C89.1174 52.588 89.2094 52.62 89.2814 52.684C89.3614 52.74 89.4014 52.828 89.4014 52.948V61.48C89.4014 61.576 89.4174 61.64 89.4494 61.672C89.4894 61.704 89.5414 61.72 89.6054 61.72H92.8814C92.9774 61.72 93.0574 61.748 93.1214 61.804C93.1934 61.868 93.2294 61.956 93.2294 62.068Z" fill="#191919"/>
<path d="M101.128 61.48C101.128 61.576 101.144 61.64 101.176 61.672C101.216 61.704 101.268 61.72 101.332 61.72H104.488C104.584 61.72 104.664 61.748 104.728 61.804C104.8 61.868 104.836 61.956 104.836 62.068C104.836 62.18 104.8 62.264 104.728 62.32C104.664 62.384 104.584 62.416 104.488 62.416H101.212C101.02 62.416 100.864 62.388 100.744 62.332C100.632 62.276 100.544 62.204 100.48 62.116C100.424 62.028 100.388 61.928 100.372 61.816C100.356 61.704 100.348 61.592 100.348 61.48V53.56C100.348 53.448 100.356 53.336 100.372 53.224C100.388 53.112 100.424 53.012 100.48 52.924C100.544 52.836 100.632 52.764 100.744 52.708C100.864 52.652 101.02 52.624 101.212 52.624H104.248C104.344 52.624 104.424 52.656 104.488 52.72C104.56 52.776 104.596 52.86 104.596 52.972C104.596 53.084 104.56 53.172 104.488 53.236C104.424 53.292 104.344 53.32 104.248 53.32H101.332C101.268 53.32 101.216 53.336 101.176 53.368C101.144 53.4 101.128 53.464 101.128 53.56V61.48ZM110.596 57.292C110.596 57.404 110.56 57.492 110.488 57.556C110.424 57.612 110.344 57.64 110.248 57.64H108.532V62.428C108.532 62.548 108.492 62.636 108.412 62.692C108.34 62.756 108.248 62.788 108.136 62.788C108.024 62.788 107.932 62.756 107.86 62.692C107.788 62.636 107.752 62.548 107.752 62.428V52.84C107.752 52.72 107.788 52.632 107.86 52.576C107.932 52.512 108.024 52.48 108.136 52.48C108.248 52.48 108.34 52.512 108.412 52.576C108.492 52.632 108.532 52.72 108.532 52.84V56.944H110.248C110.344 56.944 110.424 56.976 110.488 57.04C110.56 57.096 110.596 57.18 110.596 57.292Z" fill="#191919"/>
<path d="M113.046 59.524C113.038 59.644 113.006 59.716 112.95 59.74C112.902 59.764 112.854 59.776 112.806 59.776C112.75 59.776 112.694 59.764 112.638 59.74C112.582 59.716 112.55 59.644 112.542 59.524L112.338 53.32C112.346 53.096 112.386 52.944 112.458 52.864C112.53 52.784 112.646 52.744 112.806 52.744C112.95 52.744 113.062 52.784 113.142 52.864C113.222 52.936 113.266 53.088 113.274 53.32L113.046 59.524ZM112.23 61.504C112.23 61.28 112.286 61.12 112.398 61.024C112.518 60.928 112.658 60.88 112.818 60.88C112.986 60.88 113.126 60.928 113.238 61.024C113.358 61.12 113.418 61.28 113.418 61.504C113.418 61.712 113.358 61.864 113.238 61.96C113.126 62.056 112.986 62.104 112.818 62.104C112.658 62.104 112.518 62.056 112.398 61.96C112.286 61.864 112.23 61.712 112.23 61.504Z" fill="#191919"/>
</svg>
