<svg width="50" height="50" viewBox="0 0 50 50" fill="none" xmlns="http://www.w3.org/2000/svg">
<path d="M14.6324 40.3842C16.0383 41.5093 23.9189 48.3682 33.7496 42.0703C40.4197 37.7972 40.7085 33.8772 40.9684 28.2695C40.7791 25.6263 40.093 22.936 38.6449 20.9087C37.4083 19.1776 35.2652 17.2784 33.0133 16.7734C30.2284 16.1488 27.168 17.6131 25.3449 19.5062C24.8516 20.0184 24.3658 20.6091 23.9408 21.2476C24.3028 21.5362 24.6224 21.8648 24.8865 22.2365C25.9323 23.7079 26.8553 26.6153 25.1153 28.0165C23.4456 29.3611 22.6266 26.557 22.553 25.5293C22.449 24.0771 23.0664 22.5611 23.9408 21.2476C21.9761 19.6813 18.7592 19.2924 16.3405 19.5838C12.4937 20.0472 10.0878 23.1569 9.02677 26.3802C7.85776 29.9317 9.10066 35.9574 14.6324 40.3842Z" fill="#FFBBBB"/>
<path d="M23.9408 21.2476C21.9761 19.6813 18.7592 19.2924 16.3405 19.5838C12.4937 20.0472 10.0878 23.1569 9.02677 26.3802C7.85776 29.9317 9.10066 35.9574 14.6324 40.3842C16.0383 41.5093 23.9189 48.3682 33.7496 42.0703C40.4196 37.7972 40.7085 33.8772 40.9684 28.2695C40.7791 25.6263 40.093 22.936 38.6449 20.9087C37.4083 19.1776 35.2652 17.2784 33.0133 16.7734C30.2284 16.1488 27.168 17.6131 25.3449 19.5062C24.8516 20.0184 24.3658 20.6091 23.9408 21.2476ZM23.9408 21.2476C23.0664 22.5611 22.449 24.0771 22.553 25.5293C22.6266 26.557 23.4456 29.3611 25.1153 28.0165C26.8553 26.6153 25.9323 23.7079 24.8865 22.2365C24.6224 21.8648 24.3028 21.5362 23.9408 21.2476Z" stroke="black" stroke-linecap="round"/>
<path d="M18.2715 32.7588C17.5442 34.0039 17.1856 35.2543 16.7331 36.5361C16.3823 37.5299 16.5654 39.1101 16.4817 40.3971" stroke="#72C7F7" stroke-linecap="round"/>
<path d="M31.9111 31.7083C32.2679 34.1786 33.2174 36.4475 33.0547 38.9463C33.0051 39.7076 32.9555 40.469 32.9059 41.2304" stroke="#72C7F7" stroke-linecap="round"/>
<path d="M19.5575 30.7212C19.1567 31.1854 18.8304 31.6232 18.4981 32.2139" stroke="black" stroke-linecap="round"/>
<path d="M30.5103 30.1504C31.2782 30.4818 31.7487 30.9417 32.0572 31.3883" stroke="black" stroke-linecap="round"/>
<path d="M23.8118 36.997C23.4017 36.7067 21.6461 35.5119 21.5 34.3458C22.799 33.5703 27.7483 32.58 28.5677 33.4292C28.6477 34.0668 27.9134 34.9195 27.0712 36.563C26.229 38.2065 25.778 38.3891 23.8118 36.997Z" fill="white" stroke="black" stroke-linecap="round" stroke-linejoin="round"/>
<path d="M7.49595 9.56823C7.54991 9.91743 7.49773 10.3817 7.60054 10.9147C7.43492 11.2522 7.26525 11.3556 6.88292 11.8205C6.5006 12.2853 6.09153 12.8619 5.72778 13.3022C5.54274 13.5262 5.43035 13.9262 5.65813 14.1805C5.77497 14.311 7.22914 14.2272 7.72059 14.2012C8.04822 14.1839 8.40187 14.0531 8.71113 14.1602C8.80312 14.192 8.83111 14.241 8.83046 14.3286C8.91632 14.6233 9.86203 17.2924 10.1532 17.4498C10.2948 17.5264 10.4645 17.4332 10.5685 17.3055C10.7375 17.0979 11.3963 15.8315 11.5006 15.585C11.7069 15.1753 11.93 14.8165 12.1078 14.3968C12.1538 14.2882 12.1429 14.2066 12.3274 14.0852C12.4218 14.0231 13.4365 14.0398 13.5508 14.035C14.0461 14.0145 15.7086 13.8847 15.9844 13.6322C16.119 13.509 16.2868 13.2555 16.1848 13.0616C15.9691 12.6516 15.7634 12.4669 15.1275 11.8389C14.8211 11.5252 14.3564 11.1721 14.0354 10.8824C13.9072 10.7666 13.9556 10.7697 14.0544 10.4458C14.2112 9.93151 14.3094 9.59046 14.4103 9.13759C14.4719 8.86063 14.6057 8.32998 14.676 7.94965C14.7463 7.56931 14.4518 7.35949 14.2862 7.39967C13.3938 7.61613 13.0342 7.79124 12.0865 8.13248C11.825 8.22663 11.2524 8.41243 11.1073 8.42934C10.9787 8.35374 10.5227 8.08405 10.2536 7.94423C9.9846 7.80441 8.62665 7.18186 8.25724 7.04566C7.88783 6.90946 7.48605 7.09653 7.4654 7.60688C7.43788 8.28739 7.42691 9.12142 7.49595 9.56823Z" fill="#FFC85D" stroke="#191919" stroke-linecap="round"/>
<path d="M41.1475 8.94893C40.8364 9.11631 40.3813 9.22201 39.9131 9.49679C39.5397 9.45325 39.3856 9.32782 38.8198 9.12249C38.2541 8.91717 37.5741 8.72392 37.0376 8.52794C36.7647 8.42824 36.3501 8.45574 36.1864 8.75533C36.1023 8.90901 36.6666 10.2519 36.855 10.7065C36.9806 11.0096 37.2219 11.2993 37.2242 11.6266C37.2249 11.7239 37.188 11.7667 37.1053 11.7953C36.8561 11.9745 34.6554 13.7566 34.6042 14.0836C34.5792 14.2427 34.7237 14.3715 34.8788 14.4269C35.1309 14.517 36.5445 14.7156 36.8117 14.7316C37.2667 14.7894 37.6795 14.88 38.1344 14.9075C38.2522 14.9147 38.3254 14.8772 38.5014 15.0106C38.5915 15.0789 38.9143 16.041 38.9569 16.1472C39.1415 16.6072 39.8186 18.1312 40.1486 18.3069C40.3097 18.3927 40.6047 18.4663 40.7534 18.3055C41.068 17.9653 41.1734 17.7097 41.5532 16.9008C41.7468 16.5073 41.9246 15.9514 42.0906 15.5521C42.157 15.3927 42.1702 15.4392 42.5085 15.4243C43.0457 15.4006 43.3999 15.3794 43.8605 15.3233C44.1422 15.2891 44.687 15.2381 45.069 15.1775C45.451 15.1169 45.5506 14.7693 45.4574 14.6265C44.9556 13.8575 44.6706 13.577 44.0327 12.7974C43.8566 12.5822 43.4905 12.1045 43.4261 11.9733C43.4545 11.8269 43.5565 11.307 43.5986 11.0067C43.6406 10.7065 43.7744 9.21861 43.7796 8.82493C43.7847 8.43124 43.4743 8.1149 42.9863 8.26572C42.3356 8.46683 41.5457 8.73476 41.1475 8.94893Z" fill="#FFC85D" stroke="#191919" stroke-linecap="round"/>
<path d="M24.1696 3.89212C24.0117 4.20823 23.7007 4.55682 23.4763 5.05117C23.1461 5.23071 22.9479 5.21699 22.3671 5.37516C21.7864 5.53334 21.1193 5.7672 20.5679 5.91613C20.2874 5.99188 19.9644 6.25321 20.0032 6.59244C20.0231 6.76645 21.2579 7.53891 21.6739 7.80193C21.9512 7.97727 22.3154 8.07505 22.5058 8.34121C22.5624 8.42038 22.5569 8.47653 22.5058 8.54758C22.4054 8.83769 21.6336 11.5622 21.7801 11.859C21.8514 12.0034 22.0437 12.0254 22.2024 11.9814C22.4603 11.9097 23.7301 11.2575 23.9577 11.1166C24.363 10.9017 24.7525 10.7379 25.1402 10.4983C25.2405 10.4363 25.2788 10.3635 25.4995 10.3711C25.6125 10.375 26.4307 10.9754 26.5267 11.0376C26.9426 11.3073 28.3741 12.1627 28.7451 12.1162C28.9262 12.0935 29.2097 11.9836 29.2386 11.7665C29.2997 11.3073 29.2386 11.0376 29.0829 10.1576C29.0144 9.72448 28.8394 9.16766 28.7451 8.74567C28.7074 8.57712 28.7451 8.60753 29.013 8.40042C29.4383 8.07157 29.7156 7.85008 30.0598 7.53891C30.2703 7.34862 30.6862 6.993 30.9635 6.72336C31.2408 6.45372 31.1219 6.11225 30.9635 6.04925C30.1103 5.70985 29.7156 5.6448 28.7451 5.37516C28.4773 5.30077 27.9027 5.12127 27.7745 5.05117C27.7133 4.91512 27.4972 4.43141 27.3586 4.16177C27.2199 3.89212 26.472 2.59897 26.2494 2.27424C26.0267 1.94951 25.5908 1.86982 25.2788 2.27426C24.8629 2.81355 24.3716 3.48766 24.1696 3.89212Z" fill="#FFC85D" stroke="#191919" stroke-linecap="round"/>
</svg>
