<svg width="50" height="50" viewBox="0 0 50 50" fill="none" xmlns="http://www.w3.org/2000/svg">
<path d="M17.4671 12.4673C17.21 12.2103 16.6437 11.0662 15.4998 11.5001C14.4998 12.0001 14.3155 12.767 13.9998 13.5001C13.727 14.1332 10.98 19.8659 10.7096 20.5C8.49996 22 8.05391 26.6252 8.5 29.5C8.74534 31.0811 10.7096 34.5 12.5 36C13.5 36.8378 16.5 39 21.0577 39.5347C23.6614 39.5347 26.3335 39.7322 28.8783 39.096C30.4595 38.7007 35 37.4643 38 34.5C40.0739 32.4508 41 23.5 39 21.5C38.7925 20.902 36.8186 14.5027 36.58 13.917C36.3025 13.2359 35.4787 11.5798 34.9998 11C34.7987 10.7566 34.3358 10.808 33.9998 11C33.1584 11.9339 30.9306 16.1516 30.4998 16.9055C29.4218 17.0252 27.866 17.2454 26.7819 17.2549C25.4064 17.2668 24.0905 17.3414 22.7155 17.1842C21.9273 17.0942 21.1333 17.0227 20.3403 16.991C20.2311 16.9866 20.0157 17.0316 19.9575 16.9055C19.8657 16.7066 17.54 12.6716 17.4671 12.4673Z" fill="white" stroke="black" stroke-width="1.3" stroke-linecap="round"/>
<path d="M30.8501 29.0649C30.4855 29.3798 30.421 30.0003 30.9723 30.1171C31.1517 30.1551 31.3461 30.1723 31.5302 30.1649C31.7422 30.1564 31.7109 29.7539 31.7109 29.6149C31.7109 29.2723 30.9889 28.988 30.8979 29.3519" stroke="#539BEF" stroke-width="1.3" stroke-linecap="round"/>
<path d="M17.6982 29.3038C17.3486 29.4576 17.4562 30.0461 17.8416 30.0663C18.083 30.079 18.4634 30.0995 18.4634 29.7608C18.4634 29.4346 18.2919 28.8602 17.8416 29.1603" stroke="#539BEF" stroke-width="1.3" stroke-linecap="round"/>
<path d="M24.8242 31.4561C24.4531 31.5147 24.059 31.6034 24.059 32.03C24.059 32.393 24.1314 32.3842 24.4868 32.4365C24.8619 32.4917 25.2743 32.4198 25.6133 32.2691C25.877 32.1519 25.5198 31.4788 25.329 31.4189C24.8486 31.2679 24.0926 31.4249 24.059 32.03C24.0483 32.2225 24.0334 32.4546 24.1839 32.5986C24.4212 32.8255 24.9111 32.8657 25.228 32.8403C25.5742 32.8126 25.972 32.5764 25.972 32.2C25.972 31.8467 26.0701 31.4924 25.6372 31.4189C25.2888 31.3597 24.9481 31.3604 24.5957 31.3604C24.4989 31.3604 24.2501 31.313 24.2025 31.4082" stroke="#F98F8F" stroke-width="1.3" stroke-linecap="round"/>
<path d="M36.3938 29.5253C37.9695 29.1384 39.5095 28.6252 41.0801 28.2193C41.4232 28.1306 41.7703 28.0732 42.1082 27.9668C42.3054 27.9047 42.489 27.9019 42.6926 27.9019" stroke="black" stroke-width="1.3" stroke-linecap="round"/>
<path d="M35.6794 33.6162C37.1449 34.1345 38.6845 34.2426 40.1745 34.6552C40.5151 34.7495 40.8166 34.874 41.1341 34.9799" stroke="black" stroke-width="1.3" stroke-linecap="round"/>
<path d="M5.87354 30.5642C7.41181 30.6537 8.93789 30.8889 10.4804 30.8889C11.1567 30.8889 11.7982 30.9393 12.4682 31.0043C12.7599 31.0327 13.3051 30.9818 13.5613 31.1198C13.6825 31.1851 13.7175 31.2136 13.8607 31.2136" stroke="black" stroke-width="1.3" stroke-linecap="round"/>
<path d="M14.7699 35.1099C13.3642 35.8487 12.0567 36.7832 10.7979 37.747C10.4047 38.0481 10.006 38.3414 9.58937 38.6092C9.48802 38.6744 9.46633 38.7681 9.38013 38.8112" stroke="black" stroke-width="1.3" stroke-linecap="round"/>
</svg>
