<svg width="106" height="21" viewBox="0 0 106 21" fill="none" xmlns="http://www.w3.org/2000/svg">
<path fill-rule="evenodd" clip-rule="evenodd" d="M58.8303 2.63395C59.8736 4.57591 59.522 6.97202 57.9648 8.53237L57.6876 8.81011L100.56 5.01977C103.31 4.77658 105.737 6.80932 105.981 9.56001C106.224 12.3107 104.191 14.7377 101.44 14.9809L44.8859 19.9809C42.7921 20.166 40.8061 19.0219 39.916 17.1178C39.3038 15.8081 39.2999 14.3312 39.8403 13.0526L5.99153 19.901C3.28495 20.4487 0.646904 18.6985 0.0992983 15.9919C-0.448308 13.2853 1.30189 10.6472 4.00847 10.0996L53.4342 0.0996433C55.5949 -0.337519 57.787 0.691992 58.8303 2.63395Z" fill="#FFBBBB"/>
</svg>
