<svg width="65" height="38" viewBox="0 0 65 38" fill="none" xmlns="http://www.w3.org/2000/svg">
<g clip-path="url(#clip0_1332_2055)">
<path d="M27.8333 10.6667H27V9.83333C27 9.61232 26.9122 9.40036 26.7559 9.24408C26.5996 9.0878 26.3877 9 26.1667 9C25.9457 9 25.7337 9.0878 25.5774 9.24408C25.4211 9.40036 25.3333 9.61232 25.3333 9.83333V10.6667H18.6667V9.83333C18.6667 9.61232 18.5789 9.40036 18.4226 9.24408C18.2663 9.0878 18.0543 9 17.8333 9C17.6123 9 17.4004 9.0878 17.2441 9.24408C17.0878 9.40036 17 9.61232 17 9.83333V10.6667H16.1667C15.062 10.668 14.003 11.1074 13.2218 11.8885C12.4407 12.6696 12.0013 13.7287 12 14.8333L12 24.8333C12.0013 25.938 12.4407 26.997 13.2218 27.7782C14.003 28.5593 15.062 28.9987 16.1667 29H27.8333C28.938 28.9987 29.997 28.5593 30.7782 27.7782C31.5593 26.997 31.9987 25.938 32 24.8333V14.8333C31.9987 13.7287 31.5593 12.6696 30.7782 11.8885C29.997 11.1074 28.938 10.668 27.8333 10.6667ZM13.6667 14.8333C13.6667 14.1703 13.9301 13.5344 14.3989 13.0656C14.8677 12.5967 15.5036 12.3333 16.1667 12.3333H27.8333C28.4964 12.3333 29.1323 12.5967 29.6011 13.0656C30.0699 13.5344 30.3333 14.1703 30.3333 14.8333V15.6667H13.6667V14.8333ZM27.8333 27.3333H16.1667C15.5036 27.3333 14.8677 27.0699 14.3989 26.6011C13.9301 26.1323 13.6667 25.4964 13.6667 24.8333V17.3333H30.3333V24.8333C30.3333 25.4964 30.0699 26.1323 29.6011 26.6011C29.1323 27.0699 28.4964 27.3333 27.8333 27.3333Z" fill="#191919"/>
<path d="M22 22.75C22.6904 22.75 23.25 22.1904 23.25 21.5C23.25 20.8096 22.6904 20.25 22 20.25C21.3096 20.25 20.75 20.8096 20.75 21.5C20.75 22.1904 21.3096 22.75 22 22.75Z" fill="#191919"/>
<path d="M17.8333 22.75C18.5237 22.75 19.0833 22.1904 19.0833 21.5C19.0833 20.8096 18.5237 20.25 17.8333 20.25C17.143 20.25 16.5833 20.8096 16.5833 21.5C16.5833 22.1904 17.143 22.75 17.8333 22.75Z" fill="#191919"/>
<path d="M26.1667 22.75C26.857 22.75 27.4167 22.1904 27.4167 21.5C27.4167 20.8096 26.857 20.25 26.1667 20.25C25.4763 20.25 24.9167 20.8096 24.9167 21.5C24.9167 22.1904 25.4763 22.75 26.1667 22.75Z" fill="#191919"/>
</g>
<g clip-path="url(#clip1_1332_2055)">
<path d="M44.71 18.71L47.3 21.3C47.69 21.69 48.32 21.69 48.71 21.3L51.3 18.71C51.93 18.08 51.48 17 50.59 17H45.41C44.52 17 44.08 18.08 44.71 18.71Z" fill="#191919"/>
</g>
<defs>
<clipPath id="clip0_1332_2055">
<rect width="20" height="20" fill="white" transform="translate(12 9)"/>
</clipPath>
<clipPath id="clip1_1332_2055">
<rect width="24" height="24" fill="white" transform="translate(36 7)"/>
</clipPath>
</defs>
</svg>
