<svg width="100" height="100" viewBox="0 0 100 100" fill="none" xmlns="http://www.w3.org/2000/svg">
<g clip-path="url(#clip0_1178_3501)">
<path d="M77.8857 0H22.1143C9.90039 0 0 9.90039 0 22.1143V77.8857C0 90.0996 9.90039 100 22.1143 100H77.8857C90.0996 100 100 90.0996 100 77.8857V22.1143C100 9.90039 90.0996 0 77.8857 0ZM53.2314 34.5293C53.9707 37.4932 53.666 41.9971 51.3232 42.9219C49.8457 43.5059 47.793 42.5713 46.7461 41.2051C44.5244 38.3096 46.5859 33.167 48.8438 30.333C49.1963 29.8906 49.5674 29.4873 49.9512 29.1201C51.1914 30.3047 52.6172 32.0684 53.2314 34.5293Z" fill="white"/>
<path d="M51.3232 42.9219C49.8457 43.5059 47.793 42.5713 46.7461 41.2051C44.5244 38.3096 46.5859 33.167 48.8437 30.333C49.1963 29.8906 49.5674 29.4873 49.9512 29.1201C51.1914 30.3047 52.6172 32.0684 53.2314 34.5293C53.9707 37.4932 53.666 41.9971 51.3232 42.9219Z" fill="white" stroke="black" stroke-width="1.38672" stroke-miterlimit="10" stroke-linecap="round"/>
<path d="M83.3691 51.6963C81.0645 62.165 73.4805 67.9404 71.0654 69.7217C61.7383 76.6035 51.7402 76.3613 47.7949 76.207C43.5195 76.04 34.2852 75.6797 26.7178 68.8633C21.4902 64.1553 19.5322 58.6104 18.3252 55.1299C16.3897 49.5518 14.3916 43.7939 16.7988 37.2002C20.1025 28.1484 28.9746 25.0049 29.5791 24.8018C36.4551 22.4902 43.751 24.1631 48.4629 27.8535C48.8574 28.1621 49.3848 28.5811 49.9512 29.1201C49.5674 29.4873 49.1963 29.8906 48.8438 30.333C46.5859 33.167 44.5244 38.3096 46.7461 41.2051C47.793 42.5713 49.8457 43.5059 51.3232 42.9219C53.666 41.9971 53.9707 37.4932 53.2315 34.5293C52.6172 32.0684 51.1914 30.3047 49.9512 29.1201C52.8418 26.3467 56.4649 25.5684 58.3809 25.1826C64.7139 23.9102 74.9814 24.8682 80.6982 32.6221C85.9902 39.7988 84.1094 48.332 83.3691 51.6963Z" fill="#FFBBBB"/>
<path d="M49.9512 29.1201C49.3848 28.5811 48.8574 28.1621 48.4629 27.8535C43.751 24.1631 36.4551 22.4902 29.5791 24.8018C28.9746 25.0049 20.1025 28.1484 16.7988 37.2002C14.3916 43.7939 16.3897 49.5518 18.3252 55.1299C19.5322 58.6104 21.4902 64.1553 26.7178 68.8633C34.2852 75.6797 43.5195 76.04 47.7949 76.207C51.7402 76.3613 61.7383 76.6035 71.0654 69.7217C73.4805 67.9404 81.0645 62.165 83.3691 51.6963C84.1094 48.332 85.9902 39.7988 80.6982 32.6221C74.9814 24.8682 64.7139 23.9102 58.3809 25.1826C56.4648 25.5684 52.8418 26.3467 49.9512 29.1201ZM49.9512 29.1201C49.5674 29.4873 49.1963 29.8906 48.8438 30.333C46.5859 33.167 44.5244 38.3096 46.7461 41.2051C47.793 42.5713 49.8457 43.5059 51.3232 42.9219C53.666 41.9971 53.9707 37.4932 53.2315 34.5293C52.6172 32.0684 51.1914 30.3047 49.9512 29.1201Z" stroke="black" stroke-width="1.38672" stroke-miterlimit="10" stroke-linecap="round"/>
<path d="M38.7695 46.4648C38.7695 46.4648 35.334 47.6104 34.5703 50.2822" stroke="black" stroke-width="1.38672" stroke-miterlimit="10" stroke-linecap="round"/>
<path d="M61.5283 46.3867C61.5283 46.3867 64.8945 47.8037 64.5166 50.6367" stroke="black" stroke-width="1.38672" stroke-miterlimit="10" stroke-linecap="round"/>
<path d="M45.2129 51.9531L52.54 52.5312C52.54 52.5312 54.083 52.5313 53.1182 54.6523C52.1543 56.7734 50.4189 60.4375 50.4189 60.4375C50.4189 60.4375 49.0693 61.4014 48.2979 57.9307C47.5264 54.46 47.9121 52.1455 47.9121 52.1455" fill="white"/>
<path d="M45.2129 51.9531L52.54 52.5312C52.54 52.5312 54.083 52.5313 53.1182 54.6523C52.1543 56.7734 50.4189 60.4375 50.4189 60.4375C50.4189 60.4375 49.0693 61.4014 48.2979 57.9307C47.5264 54.46 47.9121 52.1455 47.9121 52.1455" stroke="black" stroke-width="1.38672" stroke-miterlimit="10" stroke-linecap="round"/>
</g>
<defs>
<clipPath id="clip0_1178_3501">
<rect width="100" height="100" fill="white"/>
</clipPath>
</defs>
</svg>
