<svg width="126" height="196" viewBox="0 0 126 196" fill="none" xmlns="http://www.w3.org/2000/svg">
<path fill-rule="evenodd" clip-rule="evenodd" d="M27.3154 117.869C41.1552 124.257 60.2148 131.581 78.4161 127.45C88.7398 125.107 92.4896 122.484 96.1887 119.897C96.6487 119.575 97.1079 119.254 97.5789 118.934C103.966 114.593 110.367 108.724 114.868 100.824C120.801 90.411 123.807 79.2206 124.077 67.2842C124.263 59.1064 122.814 52.0157 119.587 44.5052C117.252 39.0721 113.098 34.4016 109.071 30.1357C103.949 24.71 98.7546 20.6627 91.1581 19.6362C85.3423 18.8502 79.0272 19.9399 73.5718 21.9712C69.1436 23.62 64.4257 25.8949 61.6026 29.8581C60.8413 30.927 60.1779 32.0652 59.6002 33.2496C58.8548 32.7549 58.1092 32.283 57.3734 31.8339C50.1759 27.4406 43.4866 26.401 35.2149 27.9966C25.9754 29.779 16.6637 33.8407 10.6234 41.2884C-0.387877 54.8655 0.564357 75.9363 5.62676 91.6635C8.75694 101.388 17.734 112.546 27.3154 117.869ZM59.6002 33.2496C58.3297 35.8541 57.4735 38.6817 56.8999 41.4844C52.0361 64.0929 68.8244 62.5028 71.1989 56.6408C75.3856 46.3049 67.5075 38.4971 59.6002 33.2496Z" fill="white"/>
<path d="M59.6002 33.2496C58.8548 32.7549 58.1092 32.283 57.3734 31.8339C50.1759 27.4406 43.4866 26.401 35.2149 27.9966C25.9754 29.779 16.6637 33.8407 10.6234 41.2884C-0.387877 54.8655 0.564357 75.9363 5.62676 91.6635C8.75694 101.388 17.734 112.546 27.3154 117.869C41.1552 124.257 60.2148 131.581 78.4161 127.45C88.7398 125.107 92.4896 122.484 96.1887 119.897C96.6487 119.575 97.1079 119.254 97.5789 118.934C103.966 114.593 110.367 108.724 114.868 100.824C120.801 90.411 123.807 79.2206 124.077 67.2842C124.263 59.1064 122.814 52.0157 119.587 44.5052C117.252 39.0721 113.098 34.4016 109.071 30.1357C103.949 24.71 98.7546 20.6627 91.1581 19.6362C85.3423 18.8502 79.0272 19.9399 73.5718 21.9712C69.1436 23.62 64.4257 25.8949 61.6026 29.8581C60.8413 30.927 60.1779 32.0652 59.6002 33.2496ZM59.6002 33.2496C58.3297 35.8541 57.4735 38.6817 56.8999 41.4844C52.0361 64.0929 68.8244 62.5028 71.1989 56.6408C75.3856 46.3049 67.5075 38.4971 59.6002 33.2496Z" stroke="black" stroke-width="2.1292" stroke-linecap="round"/>
<path d="M45.4663 68C44.4208 69.0455 43.3693 70.0826 42.2985 71.1025C41.4954 71.8673 39 73.4716 39 74.7602" stroke="black" stroke-width="2.1292" stroke-linecap="round"/>
<path d="M85 63C87.6328 63.8044 91.0005 65.7674 92.9359 67.7027" stroke="black" stroke-width="2.1292" stroke-linecap="round"/>
<path d="M61 94.0618C61.6534 93.8658 62.014 92.8714 62.4043 92.3962C64.0387 90.4065 66.3936 87.6507 69.0665 87.171C71.081 86.8094 72.9015 87.0313 74.798 87.7425C76.3813 88.3362 77.8436 89.3586 79.1579 90.4041C79.5816 90.7411 81.5746 92.355 81.5746 92.2983" stroke="black" stroke-width="2.1292" stroke-linecap="round"/>
<path d="M41.5622 98.7793C40.0426 94.944 42.009 89.312 42.7052 85.4875C42.9204 84.3059 43.5199 82.3707 43.8388 81.3798C44.3551 79.775 45.2702 83.7311 45.6445 84.4261C47.1406 87.2046 48.7458 90.293 49.4981 93.3908C50.2149 96.3423 49.4701 100.599 46.1017 101.441C43.7999 102.016 42.4102 100.92 41.5622 98.7793Z" fill="#8BD0F6" stroke="black" stroke-width="2.1292" stroke-linecap="round"/>
<path d="M41.3761 9.82323C41.2777 10.0598 41.3685 9.30917 41.4013 9.0551C41.6652 7.00958 41.8879 4.94319 42.2909 2.9193C42.3976 2.38346 42.4639 2.30668 42.9016 2.7406C44.0148 3.84408 44.9466 5.12274 45.9598 6.31443C46.466 6.90995 47.0509 7.74302 47.785 8.09004C48.2414 8.30577 48.4235 6.72653 48.4658 6.53237C48.8429 4.80222 49.164 3.05857 49.5099 1.32187" stroke="black" stroke-width="1.32263" stroke-linecap="round"/>
<path d="M56.988 4.76626C56.6319 6.25974 58.4806 9.52772 60.1095 7.73292C61.051 6.69561 60.7459 5.13922 59.9947 4.1063C59.5727 3.52595 59.0962 3.23089 58.4073 3.09369C57.5513 2.92321 57.3261 3.15973 56.9209 3.94781" stroke="black" stroke-width="1.32263" stroke-linecap="round"/>
<path d="M65.8226 1.55987C64.2652 1.13238 69.0524 1.46253 70.6672 1.48954" stroke="black" stroke-width="1.32263" stroke-linecap="round"/>
<path d="M68.876 1.82275C68.509 3.86179 68.8211 6.03606 69.0138 8.06094" stroke="black" stroke-width="1.32263" stroke-linecap="round"/>
<path d="M77.2412 3.48883C77.1538 4.31671 76.8129 10.0743 77.2909 10.1695" stroke="black" stroke-width="1.32263" stroke-linecap="round"/>
<path d="M77.6641 6.56308C78.9794 6.64942 80.3069 6.74434 81.6021 7.00229" stroke="black" stroke-width="1.32263" stroke-linecap="round"/>
<path d="M82.0201 3.75037C82.0886 5.99372 82.1517 8.23613 82.2911 10.4751" stroke="black" stroke-width="1.32263" stroke-linecap="round"/>
<path d="M89.3062 3.85272C89.1293 4.74065 89.2469 5.67774 89.2887 6.57124C89.3484 7.84682 89.3886 9.1274 89.4909 10.4006C89.5398 11.0085 89.5025 10.6736 89.5771 10.5775" stroke="black" stroke-width="1.32263" stroke-linecap="round"/>
<path d="M95.9217 11.2658C96.0346 10.699 96.1616 10.139 96.3087 9.57936C96.3795 9.30988 96.9292 6.41903 97.2647 6.38323C97.5331 6.35459 98.509 8.16486 98.6551 8.38533C99.2241 9.24425 99.7276 10.1165 100.434 10.8738C101.005 11.4856 101.479 12.0146 101.916 10.9389C102.465 9.59069 102.889 8.04502 103.174 6.61437" stroke="black" stroke-width="1.32263" stroke-linecap="round"/>
<path d="M111.641 9.64928C109.1 9.14333 107.076 11.9344 107.98 14.3003C108.351 15.2717 109.068 15.7293 110.067 15.8852C110.673 15.98 111.542 16.2381 112.157 16.1674C112.642 16.1116 113.473 14.1799 113.207 13.7823C112.779 13.1414 110.529 13.2334 110.427 12.8579" stroke="black" stroke-width="1.32263" stroke-linecap="round"/>
<path d="M118.185 17.3505C118.152 17.7322 118.464 17.8128 118.761 17.9252" stroke="black" stroke-width="1.32263" stroke-linecap="round"/>
<path d="M122.057 18.1217C122.114 18.2964 122.19 18.4162 122.323 18.5197" stroke="black" stroke-width="1.32263" stroke-linecap="round"/>
<path d="M124.779 18.8939C124.849 19.0138 124.9 19.1461 124.934 19.2699" stroke="black" stroke-width="1.32263" stroke-linecap="round"/>
<g clip-path="url(#clip0_413_2007)">
<path d="M21 165.654C19.0222 165.654 17.0888 166.24 15.4443 167.339C13.7998 168.438 12.5181 170 11.7612 171.827C11.0043 173.654 10.8063 175.665 11.1922 177.605C11.578 179.544 12.5304 181.326 13.9289 182.725C15.3275 184.123 17.1093 185.076 19.0491 185.461C20.9889 185.847 22.9996 185.649 24.8268 184.892C26.6541 184.136 28.2159 182.854 29.3147 181.209C30.4135 179.565 31 177.631 31 175.654C30.9971 173.002 29.9426 170.46 28.0679 168.586C26.1932 166.711 23.6513 165.656 21 165.654V165.654ZM24.3333 176.487H21.8333V178.987C21.8333 179.208 21.7455 179.42 21.5893 179.576C21.433 179.732 21.221 179.82 21 179.82C20.779 179.82 20.567 179.732 20.4107 179.576C20.2545 179.42 20.1667 179.208 20.1667 178.987V176.487H17.6667C17.4457 176.487 17.2337 176.399 17.0774 176.243C16.9211 176.087 16.8333 175.875 16.8333 175.654C16.8333 175.433 16.9211 175.221 17.0774 175.064C17.2337 174.908 17.4457 174.82 17.6667 174.82H20.1667V172.32C20.1667 172.099 20.2545 171.887 20.4107 171.731C20.567 171.575 20.779 171.487 21 171.487C21.221 171.487 21.433 171.575 21.5893 171.731C21.7455 171.887 21.8333 172.099 21.8333 172.32V174.82H24.3333C24.5544 174.82 24.7663 174.908 24.9226 175.064C25.0789 175.221 25.1667 175.433 25.1667 175.654C25.1667 175.875 25.0789 176.087 24.9226 176.243C24.7663 176.399 24.5544 176.487 24.3333 176.487Z" fill="#191919"/>
</g>
<path d="M57.1814 170.729C57.1814 170.887 57.1304 171.012 57.0284 171.103C56.9377 171.182 56.8244 171.222 56.6884 171.222H51.8094C51.8434 171.777 52.0304 172.242 52.3704 172.616C52.7104 172.978 53.141 173.273 53.6624 173.5C54.195 173.726 54.7844 173.896 55.4304 174.01C56.0764 174.123 56.7224 174.202 57.3684 174.248C57.5384 174.27 57.6687 174.344 57.7594 174.469C57.85 174.582 57.884 174.718 57.8614 174.877C57.8387 175.024 57.7707 175.143 57.6574 175.234C57.544 175.313 57.3854 175.341 57.1814 175.319C56.558 175.273 55.9404 175.194 55.3284 175.081C54.7277 174.967 54.161 174.82 53.6284 174.639C53.107 174.446 52.6367 174.214 52.2174 173.942C51.8094 173.67 51.4864 173.358 51.2484 173.007C51.0104 173.381 50.6874 173.704 50.2794 173.976C49.8714 174.248 49.4067 174.474 48.8854 174.656C48.3754 174.837 47.8144 174.984 47.2024 175.098C46.5904 175.2 45.9614 175.273 45.3154 175.319C45.1114 175.341 44.9527 175.313 44.8394 175.234C44.7374 175.143 44.675 175.024 44.6524 174.877C44.6297 174.718 44.6637 174.588 44.7544 174.486C44.8564 174.372 44.9867 174.304 45.1454 174.282C45.848 174.225 46.528 174.14 47.1854 174.027C47.8427 173.913 48.4264 173.743 48.9364 173.517C49.4464 173.279 49.8544 172.978 50.1604 172.616C50.4777 172.242 50.6534 171.777 50.6874 171.222H45.8084C45.6724 171.222 45.5534 171.182 45.4514 171.103C45.3607 171.012 45.3154 170.887 45.3154 170.729C45.3154 170.57 45.3607 170.451 45.4514 170.372C45.5534 170.281 45.6724 170.236 45.8084 170.236H56.6884C56.8244 170.236 56.9377 170.281 57.0284 170.372C57.1304 170.451 57.1814 170.57 57.1814 170.729ZM58.5244 177.325C58.5244 177.483 58.4734 177.608 58.3714 177.699C58.2807 177.778 58.1674 177.818 58.0314 177.818H51.7924V181.677C51.7924 181.847 51.7357 181.971 51.6224 182.051C51.5204 182.141 51.39 182.187 51.2314 182.187C51.0727 182.187 50.9424 182.141 50.8404 182.051C50.7384 181.971 50.6874 181.847 50.6874 181.677V177.818H44.4314C44.2954 177.818 44.1764 177.778 44.0744 177.699C43.9837 177.608 43.9384 177.483 43.9384 177.325C43.9384 177.166 43.9837 177.047 44.0744 176.968C44.1764 176.877 44.2954 176.832 44.4314 176.832H58.0314C58.1674 176.832 58.2807 176.877 58.3714 176.968C58.4734 177.047 58.5244 177.166 58.5244 177.325ZM55.3114 168.145C55.3114 168.303 55.2604 168.428 55.1584 168.519C55.0677 168.598 54.9544 168.638 54.8184 168.638H47.6784C47.5424 168.638 47.4234 168.598 47.3214 168.519C47.2307 168.428 47.1854 168.303 47.1854 168.145C47.1854 167.986 47.2307 167.867 47.3214 167.788C47.4234 167.697 47.5424 167.652 47.6784 167.652H54.8184C54.9544 167.652 55.0677 167.697 55.1584 167.788C55.2604 167.867 55.3114 167.986 55.3114 168.145ZM60.9077 168.281C60.9077 168.122 60.953 168.003 61.0437 167.924C61.1457 167.833 61.2647 167.788 61.4007 167.788H65.8207C66.0927 167.788 66.308 167.827 66.4667 167.907C66.6367 167.986 66.7613 168.088 66.8407 168.213C66.9313 168.337 66.988 168.479 67.0107 168.638C67.0333 168.796 67.0447 168.955 67.0447 169.114V173.432C67.0447 173.919 67.039 174.497 67.0277 175.166C67.0163 175.823 66.9767 176.526 66.9087 177.274C66.8407 178.01 66.7273 178.758 66.5687 179.518C66.41 180.266 66.1833 180.968 65.8887 181.626C65.798 181.818 65.6677 181.937 65.4977 181.983C65.339 182.039 65.1917 182.028 65.0557 181.949C64.9197 181.869 64.829 181.756 64.7837 181.609C64.7497 181.473 64.7723 181.325 64.8517 181.167C65.1123 180.589 65.3163 179.965 65.4637 179.297C65.611 178.617 65.7187 177.925 65.7867 177.223C65.8547 176.509 65.8943 175.812 65.9057 175.132C65.9283 174.44 65.9397 173.8 65.9397 173.211V169.114C65.9397 168.978 65.9113 168.887 65.8547 168.842C65.8093 168.796 65.7413 168.774 65.6507 168.774H61.4007C61.2647 168.774 61.1457 168.734 61.0437 168.655C60.953 168.564 60.9077 168.439 60.9077 168.281ZM76.2077 174.231C76.2077 174.389 76.1567 174.514 76.0547 174.605C75.964 174.684 75.8507 174.724 75.7147 174.724H73.2837V181.677C73.2837 181.847 73.227 181.971 73.1137 182.051C73.0117 182.141 72.8813 182.187 72.7227 182.187C72.564 182.187 72.4337 182.141 72.3317 182.051C72.2297 181.971 72.1787 181.847 72.1787 181.677V168.094C72.1787 167.924 72.2297 167.799 72.3317 167.72C72.4337 167.629 72.564 167.584 72.7227 167.584C72.8813 167.584 73.0117 167.629 73.1137 167.72C73.227 167.799 73.2837 167.924 73.2837 168.094V173.738H75.7147C75.8507 173.738 75.964 173.783 76.0547 173.874C76.1567 173.953 76.2077 174.072 76.2077 174.231ZM78.251 176.322C78.251 175.914 78.3247 175.528 78.472 175.166C78.6193 174.803 78.8347 174.486 79.118 174.214C79.4013 173.942 79.747 173.726 80.155 173.568C80.5743 173.409 81.056 173.33 81.6 173.33C82.144 173.33 82.6257 173.409 83.045 173.568C83.4643 173.726 83.8157 173.942 84.099 174.214C84.3937 174.486 84.6147 174.803 84.762 175.166C84.9093 175.528 84.983 175.914 84.983 176.322V178.872C84.983 179.28 84.9093 179.665 84.762 180.028C84.6147 180.39 84.3937 180.708 84.099 180.98C83.8157 181.252 83.4643 181.467 83.045 181.626C82.6257 181.784 82.144 181.864 81.6 181.864C81.056 181.864 80.5743 181.784 80.155 181.626C79.747 181.467 79.4013 181.252 79.118 180.98C78.8347 180.708 78.6193 180.39 78.472 180.028C78.3247 179.665 78.251 179.28 78.251 178.872V176.322ZM79.356 178.396C79.356 179.28 79.5487 179.914 79.934 180.3C80.3307 180.685 80.886 180.878 81.6 180.878C82.3253 180.878 82.8863 180.685 83.283 180.3C83.6797 179.914 83.878 179.28 83.878 178.396V176.798C83.878 175.914 83.6797 175.279 83.283 174.894C82.8863 174.508 82.3253 174.316 81.6 174.316C80.886 174.316 80.3307 174.508 79.934 174.894C79.5487 175.279 79.356 175.914 79.356 176.798V178.396ZM93.007 174.231C93.007 174.389 92.956 174.514 92.854 174.605C92.7633 174.684 92.65 174.724 92.514 174.724H90.083V181.677C90.083 181.847 90.0263 181.971 89.913 182.051C89.811 182.141 89.6807 182.187 89.522 182.187C89.3633 182.187 89.233 182.141 89.131 182.051C89.029 181.971 88.978 181.847 88.978 181.677V168.094C88.978 167.924 89.029 167.799 89.131 167.72C89.233 167.629 89.3633 167.584 89.522 167.584C89.6807 167.584 89.811 167.629 89.913 167.72C90.0263 167.799 90.083 167.924 90.083 168.094V173.738H92.514C92.65 173.738 92.7633 173.783 92.854 173.874C92.956 173.953 93.007 174.072 93.007 174.231ZM85.68 171.035C85.68 171.193 85.629 171.318 85.527 171.409C85.4363 171.488 85.323 171.528 85.187 171.528H78.013C77.877 171.528 77.758 171.488 77.656 171.409C77.5653 171.318 77.52 171.193 77.52 171.035C77.52 170.876 77.5653 170.757 77.656 170.678C77.758 170.587 77.877 170.542 78.013 170.542H85.187C85.323 170.542 85.4363 170.587 85.527 170.678C85.629 170.757 85.68 170.876 85.68 171.035ZM84.609 168.196C84.609 168.354 84.558 168.479 84.456 168.57C84.3653 168.649 84.252 168.689 84.116 168.689H79.084C78.948 168.689 78.829 168.649 78.727 168.57C78.6363 168.479 78.591 168.354 78.591 168.196C78.591 168.037 78.6363 167.918 78.727 167.839C78.829 167.748 78.948 167.703 79.084 167.703H84.116C84.252 167.703 84.3653 167.748 84.456 167.839C84.558 167.918 84.609 168.037 84.609 168.196ZM106.627 168.094C106.627 167.924 106.678 167.799 106.78 167.72C106.882 167.629 107.013 167.584 107.171 167.584C107.33 167.584 107.46 167.629 107.562 167.72C107.676 167.799 107.732 167.924 107.732 168.094V181.677C107.732 181.847 107.676 181.971 107.562 182.051C107.46 182.141 107.33 182.187 107.171 182.187C107.013 182.187 106.882 182.141 106.78 182.051C106.678 181.971 106.627 181.847 106.627 181.677V168.094ZM94.3703 168.281C94.3703 168.122 94.4157 168.003 94.5063 167.924C94.6083 167.833 94.7273 167.788 94.8633 167.788H99.4533C99.7253 167.788 99.9407 167.827 100.099 167.907C100.269 167.986 100.394 168.088 100.473 168.213C100.564 168.337 100.621 168.479 100.643 168.638C100.666 168.796 100.677 168.955 100.677 169.114V173.432C100.677 173.919 100.672 174.497 100.66 175.166C100.649 175.823 100.609 176.526 100.541 177.274C100.473 178.01 100.36 178.758 100.201 179.518C100.043 180.266 99.816 180.968 99.5213 181.626C99.4307 181.818 99.3003 181.937 99.1303 181.983C98.9717 182.039 98.8243 182.028 98.6883 181.949C98.5523 181.869 98.4617 181.756 98.4163 181.609C98.3823 181.473 98.405 181.325 98.4843 181.167C98.745 180.589 98.949 179.965 99.0963 179.297C99.2437 178.617 99.3513 177.925 99.4193 177.223C99.4873 176.509 99.527 175.812 99.5383 175.132C99.561 174.44 99.5723 173.8 99.5723 173.211V169.114C99.5723 168.978 99.544 168.887 99.4873 168.842C99.442 168.796 99.374 168.774 99.2833 168.774H94.8633C94.7273 168.774 94.6083 168.734 94.5063 168.655C94.4157 168.564 94.3703 168.439 94.3703 168.281Z" fill="#191919"/>
<defs>
<clipPath id="clip0_413_2007">
<rect width="20" height="20" fill="white" transform="translate(11 165.654)"/>
</clipPath>
</defs>
</svg>
