<svg width="134" height="104" viewBox="0 0 134 104" fill="none" xmlns="http://www.w3.org/2000/svg">
<path fill-rule="evenodd" clip-rule="evenodd" d="M66.8052 74.1543C66.472 70.594 68.4346 64.7678 73.196 61.3398C78.8909 57.2398 83.0523 58.8704 86.0325 60.0381C86.4617 60.2063 86.8663 60.3648 87.2476 60.4953C87.9711 60.7999 88.6053 61.0908 89.1463 61.3937C87.3433 62.3948 85.9926 64.0343 85.3954 66.4775C84.9973 68.1065 85.4694 69.3218 86.9303 70.1771C88.7208 71.2253 90.0571 69.4608 90.5886 68.0916C91.6463 64.1761 90.856 62.8921 89.1463 61.3937C95.4852 57.8741 107.415 62.2469 111.838 67.3317C111.098 67.5889 110.472 67.9474 110.035 68.4212C108.497 70.0902 107.189 74.5367 110.266 75.7314C112.296 76.5193 112.777 74.5824 113.056 70.9159C112.985 69.7662 112.848 68.4926 111.838 67.3317C114.632 66.3596 119.042 66.8329 120.933 67.9931C124.931 70.4449 127.023 75.9022 127.217 80.488C127.406 84.9869 123.789 89.2802 118.658 91.5518C116.105 92.8538 111.984 92.5927 108.525 92.3736C107.316 92.297 106.188 92.2256 105.236 92.2277C98.9514 92.242 92.8909 90.6467 86.8556 89.0581C84.841 88.5278 82.8292 87.9982 80.8128 87.5295C76.6049 86.5514 67.748 84.229 66.8052 74.1543Z" fill="#FAC59F"/>
<path d="M89.1463 61.3937C88.6053 61.0908 87.971 60.7999 87.2476 60.4953C86.8663 60.3648 86.4617 60.2063 86.0325 60.0381C83.0523 58.8704 78.8909 57.2398 73.196 61.3398C68.4346 64.7678 66.472 70.594 66.8052 74.1543C67.748 84.229 76.6049 86.5514 80.8128 87.5295C82.8292 87.9982 84.841 88.5278 86.8556 89.0581C92.8909 90.6467 98.9514 92.242 105.236 92.2277C106.188 92.2256 107.316 92.297 108.525 92.3736C111.984 92.5927 116.105 92.8538 118.658 91.5518C123.789 89.2802 127.406 84.9869 127.217 80.488C127.023 75.9022 124.931 70.4449 120.933 67.9931C119.042 66.8329 114.632 66.3596 111.838 67.3317M89.1463 61.3937C95.4852 57.8741 107.415 62.2469 111.838 67.3317M89.1463 61.3937C90.856 62.8921 91.6463 64.1761 90.5886 68.0916C90.0571 69.4608 88.7208 71.2253 86.9303 70.1771C85.4694 69.3218 84.9973 68.1065 85.3954 66.4775C85.9926 64.0343 87.3433 62.3948 89.1463 61.3937ZM111.838 67.3317C111.098 67.5889 110.472 67.9474 110.035 68.4212C108.497 70.0902 107.189 74.5367 110.266 75.7314C112.296 76.5193 112.777 74.5824 113.056 70.9159C112.985 69.7662 112.848 68.4926 111.838 67.3317Z" stroke="black" stroke-linecap="round"/>
<path fill-rule="evenodd" clip-rule="evenodd" d="M66.8983 74.1074C66.5651 70.5471 68.5277 64.7209 73.2891 61.2929C78.984 57.1929 83.1455 58.8235 86.1256 59.9912C86.5548 60.1594 86.9595 60.318 87.3407 60.4484C88.0642 60.753 88.6985 61.0439 89.2394 61.3469C87.4365 62.3479 86.0857 63.9874 85.4886 66.4306C85.0904 68.0597 85.5625 69.2749 87.0234 70.1302C88.8139 71.1784 90.1502 69.4139 90.6817 68.0447C91.7395 64.1293 90.9492 62.8453 89.2394 61.3469C95.5784 57.8273 107.508 62.2 111.931 67.2848C111.192 67.5421 110.565 67.9005 110.129 68.3743C108.59 70.0433 107.282 74.4898 110.359 75.6845C112.389 76.4724 112.87 74.5355 113.149 70.869C113.078 69.7193 112.941 68.4458 111.931 67.2848C114.725 66.3127 119.135 66.786 121.026 67.9462C125.024 70.3981 127.116 75.8554 127.31 80.4411C127.499 84.94 123.882 89.2333 118.751 91.505C116.198 92.8069 112.077 92.5459 108.618 92.3267C107.409 92.2502 106.281 92.1787 105.329 92.1809C99.0445 92.1951 92.9841 90.5998 86.9488 89.0112C84.9342 88.4809 82.9224 87.9513 80.906 87.4826C76.6981 86.5045 67.8412 84.1821 66.8983 74.1074Z" fill="#FAC59F"/>
<path d="M89.2394 61.3469C88.6985 61.0439 88.0642 60.753 87.3407 60.4484C86.9595 60.318 86.5548 60.1594 86.1256 59.9912C83.1455 58.8235 78.984 57.1929 73.2891 61.2929C68.5277 64.7209 66.5651 70.5471 66.8983 74.1074C67.8412 84.1821 76.6981 86.5045 80.906 87.4826C82.9224 87.9513 84.9342 88.4809 86.9488 89.0112C92.9841 90.5998 99.0445 92.1951 105.329 92.1809C106.281 92.1787 107.409 92.2502 108.618 92.3267C112.077 92.5459 116.198 92.8069 118.751 91.505C123.882 89.2333 127.499 84.94 127.31 80.4411C127.116 75.8554 125.024 70.3981 121.026 67.9462C119.135 66.786 114.725 66.3127 111.931 67.2848M89.2394 61.3469C95.5784 57.8273 107.508 62.2 111.931 67.2848M89.2394 61.3469C90.9492 62.8453 91.7395 64.1293 90.6817 68.0447C90.1502 69.4139 88.8139 71.1784 87.0234 70.1302C85.5625 69.2749 85.0904 68.0597 85.4886 66.4306C86.0857 63.9874 87.4365 62.3479 89.2394 61.3469ZM111.931 67.2848C111.192 67.5421 110.565 67.9005 110.129 68.3743C108.59 70.0433 107.282 74.4898 110.359 75.6845C112.389 76.4724 112.87 74.5355 113.149 70.869C113.078 69.7193 112.941 68.4458 111.931 67.2848Z" stroke="black" stroke-linecap="round"/>
<path d="M90.6389 73.5047C90.5846 73.6562 90.4575 73.6977 90.3183 73.7492C89.8638 73.9173 89.434 74.6758 89.1204 75.033" stroke="black" stroke-linecap="round"/>
<path d="M101.317 75.8364C101.514 76.1569 102.412 77.7063 102.452 77.6814" stroke="black" stroke-linecap="round"/>
<path d="M92.1106 78.7893C92.8037 80.6835 94.1863 81.5566 96.1418 81.0143C96.9745 80.7835 97.6338 80.5579 98.067 79.787" stroke="black" stroke-linecap="round"/>
<path d="M11.2862 7.8685C6.33606 8.98675 3.65317 13.6557 2.74137 18.3216C1.73674 23.4627 4.1841 34.332 16.9117 40.6715C23.2927 43.8499 31.3911 41.0292 34.9129 39.4783C51.9037 30.883 42.7616 9.71126 40.5755 7.03274C38.7089 4.74569 35.635 2.33164 32.6236 1.89334C28.8992 1.35128 25.1215 3.78319 23.0207 6.669C22.4524 7.44978 21.9052 8.34007 21.4442 9.29037C21.9588 9.65284 22.4237 10.0767 22.8228 10.568C24.4026 12.5127 26.0325 16.4937 23.968 18.6768C21.987 20.7718 20.5078 16.9237 20.2613 15.4858C19.9128 13.4541 20.496 11.2453 21.4442 9.29037C18.6519 7.32341 14.3986 7.16539 11.2862 7.8685Z" fill="#FFBBBB"/>
<path d="M21.4442 9.29037C18.6519 7.32341 14.3986 7.16539 11.2862 7.8685C6.33606 8.98675 3.65317 13.6557 2.74137 18.3216C1.73674 23.4627 4.1841 34.332 16.9117 40.6715C23.2927 43.8499 31.3911 41.0292 34.9129 39.4783C51.9037 30.883 42.7616 9.71126 40.5755 7.03274C38.7089 4.74569 35.635 2.33164 32.6236 1.89334C28.8992 1.35128 25.1215 3.78319 23.0207 6.669C22.4524 7.44978 21.9052 8.34007 21.4442 9.29037ZM21.4442 9.29037C20.496 11.2453 19.9128 13.4541 20.2613 15.4858C20.5078 16.9237 21.987 20.7718 23.968 18.6768C26.0325 16.4937 24.4026 12.5127 22.8228 10.568C22.4237 10.0767 21.9588 9.65284 21.4442 9.29037Z" stroke="black" stroke-linecap="round"/>
<path d="M17.881 22.9872C17.3008 23.9892 16.8659 24.901 16.5145 26.0623" stroke="black" stroke-linecap="round"/>
<path d="M31.679 20.6211C32.5506 20.4716 33.3758 21.5657 33.8342 22.1453" stroke="black" stroke-linecap="round"/>
<path d="M21.6675 28.5019C22.1642 29.2521 23.3825 29.6106 24.0147 29.8019C25.7258 30.3196 27.1121 30.4598 28.4579 29.1933C29.0993 28.5896 29.7416 27.6082 30.3259 26.5346" stroke="black" stroke-linecap="round"/>
</svg>
