<svg width="311" height="296" viewBox="0 0 311 296" fill="none" xmlns="http://www.w3.org/2000/svg">
<path fill-rule="evenodd" clip-rule="evenodd" d="M20.2445 23.3335C13.7582 35.9789 15.477 54.9773 20.2446 64.1673C27.4038 77.9674 62.7201 87.5665 80.5068 71.9738C92.4475 61.5061 94.9492 41.9219 88.6398 28.0503C84.3939 18.7155 77.5785 14.2458 67.4619 14.2458C65.112 14.2458 62.0597 15.4788 59.4014 17.2576C57.6339 12.0042 53.5229 7 46.2358 7C34.7065 7 24.75 12.3626 20.2445 23.3335ZM57.1354 29.0502C60.2833 30.1453 61.5097 23.5242 59.4014 17.2576C54.0351 20.8484 50.274 26.6634 57.1354 29.0502Z" fill="#FFBBBB"/>
<path d="M59.4014 17.2576C57.6339 12.0042 53.5229 7 46.2358 7C34.7065 7 24.75 12.3626 20.2445 23.3335C13.7582 35.9789 15.477 54.9773 20.2446 64.1673C27.4038 77.9674 62.7201 87.5665 80.5068 71.9738C92.4475 61.5061 94.9492 41.9219 88.6398 28.0503C84.3939 18.7155 77.5785 14.2458 67.4619 14.2458C65.112 14.2458 62.0597 15.4788 59.4014 17.2576ZM59.4014 17.2576C61.5097 23.5242 60.2833 30.1453 57.1354 29.0502C50.274 26.6634 54.0351 20.8484 59.4014 17.2576Z" stroke="black" stroke-width="1.7" stroke-linecap="round"/>
<path d="M68 46L70.2865 45.0872" stroke="black" stroke-width="1.7" stroke-linecap="round"/>
<path d="M42 38L43.0741 39.7134" stroke="black" stroke-width="1.7" stroke-linecap="round"/>
<path d="M49 44L57 46.5L50.5 57.5L49 57L48 52L49 44Z" fill="white"/>
<path d="M60 47.0576C56.9421 46.1343 54.5 45.5 51.5 44.5C51.1963 44.5 49.237 43.7779 48.9533 43.9999C47.8613 44.8547 48.0064 50.1304 48.0064 51.3675C48.0064 53.2865 48.3774 55.3429 48.9533 57.1461C50.2277 61.1365 56.189 48.0808 57 46.1764" stroke="black" stroke-width="1.7" stroke-linecap="round"/>
<path d="M15.7857 40.0863C13.7902 38.2648 9.81395 37.1731 7.42596 38.7819C4.22006 40.9418 2.18136 44.7526 3.31757 48.4017C4.29883 51.5532 7.59384 53.0252 10.9747 52.9997C12.8252 52.9857 14.3665 51.9404 16 51.2388" stroke="black" stroke-width="1.7" stroke-linecap="round"/>
<path d="M92.1278 53.0223C95.6917 52.823 100.529 53.9094 100.959 58.4012C101.287 61.8219 99.6178 65.6831 97.0256 67.7852C95.0819 69.3614 92.5515 69.1186 90.2761 68.6351C88.5793 68.2745 87.9801 67.1946 87 65.8059" stroke="black" stroke-width="1.7" stroke-linecap="round"/>
<path d="M20.026 64C18.2411 64 16.7037 66.0503 15.5714 67.2552C14.0827 68.8393 13.2362 71.1826 13.0361 73.374C12.6627 77.4625 15.2194 80.4294 19.173 80.9124C22.5182 81.3211 26.2936 80.3211 28.3901 77.4614C28.5862 77.1939 30.5764 74.0749 29.8355 73.6922" stroke="black" stroke-width="1.7" stroke-linecap="round"/>
<path d="M42.5982 79C41.6039 80.6814 42.0527 82.5746 42.4908 84.4544C43.2352 87.649 44.6005 89.4853 47.4776 90.3366C50.4866 91.2269 51.7672 91.6067 54.1841 88.9344C56.0268 86.8969 57 83.3506 57 80.4973" stroke="black" stroke-width="1.7" stroke-linecap="round"/>
<path d="M101.403 5.24C101.403 5.6 101.347 5.94 101.235 6.26C101.131 6.58 100.975 6.86 100.767 7.1C100.559 7.332 100.303 7.52 99.9991 7.664C99.7031 7.8 99.3591 7.868 98.9671 7.868H95.1391C94.7471 7.868 94.3991 7.8 94.0951 7.664C93.7991 7.52 93.5471 7.332 93.3391 7.1C93.1311 6.86 92.9711 6.58 92.8591 6.26C92.7551 5.94 92.7031 5.6 92.7031 5.24C92.7031 4.88 92.7551 4.54 92.8591 4.22C92.9711 3.9 93.1311 3.62 93.3391 3.38C93.5471 3.14 93.7991 2.952 94.0951 2.816C94.3991 2.672 94.7471 2.6 95.1391 2.6H98.9671C99.3591 2.6 99.7031 2.672 99.9991 2.816C100.303 2.952 100.559 3.14 100.767 3.38C100.975 3.62 101.131 3.9 101.235 4.22C101.347 4.54 101.403 4.88 101.403 5.24ZM100.623 5.24C100.623 4.96 100.587 4.704 100.515 4.472C100.443 4.232 100.331 4.024 100.179 3.848C100.035 3.672 99.8471 3.536 99.6151 3.44C99.3831 3.344 99.1111 3.296 98.7991 3.296H95.3071C94.9951 3.296 94.7231 3.344 94.4911 3.44C94.2591 3.536 94.0671 3.672 93.9151 3.848C93.7711 4.024 93.6631 4.232 93.5911 4.472C93.5191 4.704 93.4831 4.96 93.4831 5.24C93.4831 5.52 93.5191 5.78 93.5911 6.02C93.6631 6.252 93.7711 6.456 93.9151 6.632C94.0671 6.8 94.2591 6.932 94.4911 7.028C94.7231 7.124 94.9951 7.172 95.3071 7.172H98.7991C99.1111 7.172 99.3831 7.124 99.6151 7.028C99.8471 6.932 100.035 6.8 100.179 6.632C100.331 6.456 100.443 6.252 100.515 6.02C100.587 5.78 100.623 5.52 100.623 5.24ZM102.207 12.116C102.207 12.228 102.171 12.312 102.099 12.368C102.035 12.432 101.955 12.464 101.859 12.464H92.2591C92.1631 12.464 92.0791 12.432 92.0071 12.368C91.9431 12.312 91.9111 12.228 91.9111 12.116C91.9111 12.004 91.9431 11.916 92.0071 11.852C92.0791 11.796 92.1631 11.768 92.2591 11.768H96.6751V9.392C96.6751 9.272 96.7111 9.184 96.7831 9.128C96.8551 9.064 96.9471 9.032 97.0591 9.032C97.1711 9.032 97.2631 9.064 97.3351 9.128C97.4151 9.184 97.4551 9.272 97.4551 9.392V11.768H101.859C101.955 11.768 102.035 11.796 102.099 11.852C102.171 11.916 102.207 12.004 102.207 12.116ZM105.029 11.708C105.029 11.804 105.045 11.868 105.077 11.9C105.117 11.932 105.169 11.948 105.233 11.948H112.589C112.685 11.948 112.765 11.976 112.829 12.032C112.901 12.096 112.937 12.184 112.937 12.296C112.937 12.408 112.901 12.492 112.829 12.548C112.765 12.612 112.685 12.644 112.589 12.644H105.113C104.921 12.644 104.765 12.624 104.645 12.584C104.533 12.552 104.445 12.504 104.381 12.44C104.325 12.376 104.289 12.296 104.273 12.2C104.257 12.112 104.249 12.012 104.249 11.9V10.94C104.249 10.828 104.257 10.724 104.273 10.628C104.289 10.524 104.325 10.436 104.381 10.364C104.445 10.292 104.533 10.236 104.645 10.196C104.765 10.148 104.921 10.124 105.113 10.124H111.713C111.777 10.124 111.825 10.108 111.857 10.076C111.897 10.044 111.917 9.98 111.917 9.884V9.356C111.917 9.26 111.897 9.196 111.857 9.164C111.825 9.132 111.777 9.116 111.713 9.116H104.585C104.489 9.116 104.405 9.088 104.333 9.032C104.269 8.968 104.237 8.88 104.237 8.768C104.237 8.656 104.269 8.572 104.333 8.516C104.405 8.452 104.489 8.42 104.585 8.42H111.833C112.025 8.42 112.177 8.44 112.289 8.48C112.409 8.512 112.497 8.564 112.553 8.636C112.617 8.7 112.657 8.78 112.673 8.876C112.689 8.964 112.697 9.064 112.697 9.176V10.076C112.697 10.188 112.689 10.292 112.673 10.388C112.657 10.476 112.617 10.552 112.553 10.616C112.497 10.68 112.409 10.732 112.289 10.772C112.177 10.804 112.025 10.82 111.833 10.82H105.233C105.169 10.82 105.117 10.836 105.077 10.868C105.045 10.9 105.029 10.964 105.029 11.06V11.708ZM105.029 4.304C105.029 4.4 105.045 4.468 105.077 4.508C105.117 4.54 105.169 4.556 105.233 4.556H112.433C112.529 4.556 112.609 4.588 112.673 4.652C112.745 4.708 112.781 4.792 112.781 4.904C112.781 5.016 112.745 5.104 112.673 5.168C112.609 5.224 112.529 5.252 112.433 5.252H105.113C104.921 5.252 104.765 5.224 104.645 5.168C104.533 5.112 104.445 5.04 104.381 4.952C104.325 4.864 104.289 4.764 104.273 4.652C104.257 4.532 104.249 4.416 104.249 4.304V2.828C104.249 2.708 104.285 2.62 104.357 2.564C104.429 2.5 104.521 2.468 104.633 2.468C104.745 2.468 104.837 2.5 104.909 2.564C104.989 2.62 105.029 2.708 105.029 2.828V4.304ZM113.609 6.848C113.609 6.96 113.573 7.048 113.501 7.112C113.437 7.168 113.357 7.196 113.261 7.196H103.661C103.565 7.196 103.481 7.168 103.409 7.112C103.345 7.048 103.313 6.96 103.313 6.848C103.313 6.736 103.345 6.652 103.409 6.596C103.481 6.532 103.565 6.5 103.661 6.5H113.261C113.357 6.5 113.437 6.532 113.501 6.596C113.573 6.652 113.609 6.736 113.609 6.848ZM126.763 2.624C126.955 2.624 127.107 2.652 127.219 2.708C127.339 2.764 127.427 2.836 127.483 2.924C127.547 3.012 127.587 3.112 127.603 3.224C127.619 3.336 127.627 3.448 127.627 3.56V5.996C127.627 6.108 127.619 6.22 127.603 6.332C127.587 6.444 127.547 6.544 127.483 6.632C127.427 6.72 127.339 6.792 127.219 6.848C127.107 6.904 126.955 6.932 126.763 6.932H120.043C119.851 6.932 119.695 6.904 119.575 6.848C119.463 6.792 119.375 6.72 119.311 6.632C119.255 6.544 119.219 6.444 119.203 6.332C119.187 6.22 119.179 6.108 119.179 5.996V3.56C119.179 3.448 119.187 3.336 119.203 3.224C119.219 3.112 119.255 3.012 119.311 2.924C119.375 2.836 119.463 2.764 119.575 2.708C119.695 2.652 119.851 2.624 120.043 2.624H126.763ZM126.643 6.236C126.707 6.236 126.755 6.22 126.787 6.188C126.827 6.156 126.847 6.092 126.847 5.996V3.56C126.847 3.464 126.827 3.4 126.787 3.368C126.755 3.336 126.707 3.32 126.643 3.32H120.163C120.099 3.32 120.047 3.336 120.007 3.368C119.975 3.4 119.959 3.464 119.959 3.56V5.996C119.959 6.092 119.975 6.156 120.007 6.188C120.047 6.22 120.099 6.236 120.163 6.236H126.643ZM128.539 9.152C128.539 9.264 128.503 9.352 128.431 9.416C128.367 9.472 128.287 9.5 128.191 9.5H123.787V12.428C123.787 12.548 123.747 12.636 123.667 12.692C123.595 12.756 123.503 12.788 123.391 12.788C123.279 12.788 123.187 12.756 123.115 12.692C123.043 12.636 123.007 12.548 123.007 12.428V9.5H118.591C118.495 9.5 118.411 9.472 118.339 9.416C118.275 9.352 118.243 9.264 118.243 9.152C118.243 9.04 118.275 8.956 118.339 8.9C118.411 8.836 118.495 8.804 118.591 8.804H128.191C128.287 8.804 128.367 8.836 128.431 8.9C128.503 8.956 128.539 9.04 128.539 9.152ZM131.361 11.648C131.361 11.744 131.377 11.808 131.409 11.84C131.449 11.872 131.501 11.888 131.565 11.888H138.849C138.945 11.888 139.025 11.916 139.089 11.972C139.161 12.036 139.197 12.124 139.197 12.236C139.197 12.348 139.161 12.432 139.089 12.488C139.025 12.552 138.945 12.584 138.849 12.584H131.445C131.253 12.584 131.097 12.556 130.977 12.5C130.865 12.444 130.777 12.372 130.713 12.284C130.657 12.196 130.621 12.096 130.605 11.984C130.589 11.872 130.581 11.76 130.581 11.648V10.196C130.581 10.076 130.617 9.988 130.689 9.932C130.761 9.868 130.853 9.836 130.965 9.836C131.077 9.836 131.169 9.868 131.241 9.932C131.321 9.988 131.361 10.076 131.361 10.196V11.648ZM139.941 8.312C139.941 8.424 139.905 8.512 139.833 8.576C139.769 8.632 139.689 8.66 139.593 8.66H129.993C129.897 8.66 129.813 8.632 129.741 8.576C129.677 8.512 129.645 8.424 129.645 8.312C129.645 8.2 129.677 8.116 129.741 8.06C129.813 7.996 129.897 7.964 129.993 7.964H139.593C139.689 7.964 139.769 7.996 139.833 8.06C139.905 8.116 139.941 8.2 139.941 8.312ZM138.981 5.636C139.221 5.708 139.325 5.848 139.293 6.056C139.285 6.168 139.241 6.256 139.161 6.32C139.081 6.384 138.969 6.408 138.825 6.392C138.297 6.32 137.829 6.236 137.421 6.14C137.021 6.044 136.661 5.928 136.341 5.792C136.029 5.656 135.749 5.492 135.501 5.3C135.253 5.108 135.017 4.872 134.793 4.592C134.577 4.872 134.345 5.112 134.097 5.312C133.849 5.512 133.565 5.684 133.245 5.828C132.925 5.972 132.561 6.092 132.153 6.188C131.753 6.276 131.289 6.344 130.761 6.392C130.617 6.408 130.505 6.384 130.425 6.32C130.353 6.248 130.313 6.16 130.305 6.056C130.281 5.832 130.389 5.696 130.629 5.648C131.149 5.6 131.637 5.524 132.093 5.42C132.557 5.308 132.957 5.156 133.293 4.964C133.637 4.772 133.909 4.536 134.109 4.256C134.309 3.976 134.409 3.644 134.409 3.26V2.972C134.409 2.852 134.445 2.764 134.517 2.708C134.589 2.644 134.681 2.612 134.793 2.612C134.905 2.612 134.997 2.644 135.069 2.708C135.149 2.764 135.189 2.852 135.189 2.972V3.26C135.189 3.644 135.289 3.972 135.489 4.244C135.689 4.516 135.961 4.748 136.305 4.94C136.649 5.124 137.049 5.272 137.505 5.384C137.969 5.488 138.461 5.572 138.981 5.636ZM145.919 11.648C145.919 11.744 145.935 11.808 145.967 11.84C146.007 11.872 146.059 11.888 146.123 11.888H153.551C153.647 11.888 153.727 11.916 153.791 11.972C153.863 12.036 153.899 12.124 153.899 12.236C153.899 12.348 153.863 12.432 153.791 12.488C153.727 12.552 153.647 12.584 153.551 12.584H146.003C145.811 12.584 145.655 12.564 145.535 12.524C145.423 12.492 145.335 12.444 145.271 12.38C145.215 12.316 145.179 12.236 145.163 12.14C145.147 12.052 145.139 11.952 145.139 11.84V10.904C145.139 10.792 145.147 10.688 145.163 10.592C145.179 10.488 145.215 10.4 145.271 10.328C145.335 10.256 145.423 10.2 145.535 10.16C145.655 10.112 145.811 10.088 146.003 10.088H152.555C152.619 10.088 152.667 10.072 152.699 10.04C152.739 10.008 152.759 9.944 152.759 9.848V9.284C152.759 9.188 152.739 9.124 152.699 9.092C152.667 9.06 152.619 9.044 152.555 9.044H145.487C145.391 9.044 145.307 9.016 145.235 8.96C145.171 8.896 145.139 8.808 145.139 8.696C145.139 8.584 145.171 8.5 145.235 8.444C145.307 8.38 145.391 8.348 145.487 8.348H152.675C152.867 8.348 153.019 8.368 153.131 8.408C153.251 8.44 153.339 8.492 153.395 8.564C153.459 8.628 153.499 8.708 153.515 8.804C153.531 8.892 153.539 8.992 153.539 9.104V10.04C153.539 10.152 153.531 10.256 153.515 10.352C153.499 10.44 153.459 10.516 153.395 10.58C153.339 10.644 153.251 10.696 153.131 10.736C153.019 10.768 152.867 10.784 152.675 10.784H146.123C146.059 10.784 146.007 10.8 145.967 10.832C145.935 10.864 145.919 10.928 145.919 11.024V11.648ZM149.759 6.68C149.759 6.792 149.723 6.88 149.651 6.944C149.587 7 149.507 7.028 149.411 7.028H145.895C145.703 7.028 145.547 7 145.427 6.944C145.315 6.888 145.227 6.816 145.163 6.728C145.107 6.64 145.071 6.54 145.055 6.428C145.039 6.316 145.031 6.204 145.031 6.092V2.948C145.031 2.828 145.067 2.74 145.139 2.684C145.211 2.62 145.303 2.588 145.415 2.588C145.527 2.588 145.619 2.62 145.691 2.684C145.771 2.74 145.811 2.828 145.811 2.948V6.092C145.811 6.188 145.827 6.252 145.859 6.284C145.899 6.316 145.951 6.332 146.015 6.332H149.411C149.507 6.332 149.587 6.364 149.651 6.428C149.723 6.484 149.759 6.568 149.759 6.68ZM155.471 4.928C155.471 5.04 155.435 5.128 155.363 5.192C155.299 5.248 155.219 5.276 155.123 5.276H153.527V7.016C153.527 7.136 153.487 7.228 153.407 7.292C153.335 7.348 153.243 7.376 153.131 7.376C153.019 7.376 152.927 7.348 152.855 7.292C152.783 7.228 152.747 7.136 152.747 7.016V2.84C152.747 2.72 152.783 2.632 152.855 2.576C152.927 2.512 153.019 2.48 153.131 2.48C153.243 2.48 153.335 2.512 153.407 2.576C153.487 2.632 153.527 2.72 153.527 2.84V4.58H155.123C155.219 4.58 155.299 4.612 155.363 4.676C155.435 4.732 155.471 4.816 155.471 4.928ZM156.338 4.712C156.338 4.424 156.39 4.152 156.494 3.896C156.598 3.64 156.75 3.416 156.95 3.224C157.158 3.032 157.406 2.88 157.694 2.768C157.99 2.656 158.33 2.6 158.714 2.6C159.098 2.6 159.438 2.656 159.734 2.768C160.03 2.88 160.278 3.032 160.478 3.224C160.686 3.416 160.842 3.64 160.946 3.896C161.058 4.152 161.114 4.424 161.114 4.712V10.448C161.114 10.736 161.058 11.008 160.946 11.264C160.842 11.52 160.686 11.744 160.478 11.936C160.278 12.128 160.03 12.28 159.734 12.392C159.438 12.504 159.098 12.56 158.714 12.56C158.33 12.56 157.99 12.504 157.694 12.392C157.406 12.28 157.158 12.128 156.95 11.936C156.75 11.744 156.598 11.52 156.494 11.264C156.39 11.008 156.338 10.736 156.338 10.448V4.712ZM157.118 10.112C157.118 10.736 157.258 11.184 157.538 11.456C157.818 11.728 158.21 11.864 158.714 11.864C159.226 11.864 159.622 11.728 159.902 11.456C160.19 11.184 160.334 10.736 160.334 10.112V5.048C160.334 4.424 160.19 3.976 159.902 3.704C159.622 3.432 159.226 3.296 158.714 3.296C158.21 3.296 157.818 3.432 157.538 3.704C157.258 3.976 157.118 4.424 157.118 5.048V10.112ZM164.582 2.84C164.582 2.72 164.618 2.632 164.69 2.576C164.762 2.512 164.854 2.48 164.966 2.48C165.078 2.48 165.17 2.512 165.242 2.576C165.322 2.632 165.362 2.72 165.362 2.84V12.428C165.362 12.548 165.322 12.636 165.242 12.692C165.17 12.756 165.078 12.788 164.966 12.788C164.854 12.788 164.762 12.756 164.69 12.692C164.618 12.636 164.582 12.548 164.582 12.428V2.84ZM167.476 2.972C167.476 2.86 167.508 2.776 167.572 2.72C167.644 2.656 167.728 2.624 167.824 2.624H170.488C170.68 2.624 170.832 2.652 170.944 2.708C171.064 2.764 171.152 2.836 171.208 2.924C171.272 3.012 171.312 3.112 171.328 3.224C171.344 3.336 171.352 3.448 171.352 3.56V6.608C171.352 6.952 171.348 7.36 171.34 7.832C171.332 8.296 171.304 8.792 171.256 9.32C171.208 9.84 171.128 10.368 171.016 10.904C170.904 11.432 170.744 11.928 170.536 12.392C170.472 12.528 170.38 12.612 170.26 12.644C170.148 12.684 170.044 12.676 169.948 12.62C169.852 12.564 169.788 12.484 169.756 12.38C169.732 12.284 169.748 12.18 169.804 12.068C169.988 11.66 170.132 11.22 170.236 10.748C170.34 10.268 170.416 9.78 170.464 9.284C170.512 8.78 170.54 8.288 170.548 7.808C170.564 7.32 170.572 6.868 170.572 6.452V3.56C170.572 3.464 170.552 3.4 170.512 3.368C170.48 3.336 170.432 3.32 170.368 3.32H167.824C167.728 3.32 167.644 3.292 167.572 3.236C167.508 3.172 167.476 3.084 167.476 2.972ZM172.072 7.172C172.072 7.06 172.104 6.976 172.168 6.92C172.24 6.856 172.324 6.824 172.42 6.824H173.848V2.84C173.848 2.72 173.884 2.632 173.956 2.576C174.028 2.512 174.12 2.48 174.232 2.48C174.344 2.48 174.436 2.512 174.508 2.576C174.588 2.632 174.628 2.72 174.628 2.84V12.428C174.628 12.548 174.588 12.636 174.508 12.692C174.436 12.756 174.344 12.788 174.232 12.788C174.12 12.788 174.028 12.756 173.956 12.692C173.884 12.636 173.848 12.548 173.848 12.428V7.52H172.42C172.324 7.52 172.24 7.492 172.168 7.436C172.104 7.372 172.072 7.284 172.072 7.172ZM176.044 2.84C176.044 2.72 176.08 2.632 176.152 2.576C176.224 2.512 176.316 2.48 176.428 2.48C176.54 2.48 176.632 2.512 176.704 2.576C176.784 2.632 176.824 2.72 176.824 2.84V12.428C176.824 12.548 176.784 12.636 176.704 12.692C176.632 12.756 176.54 12.788 176.428 12.788C176.316 12.788 176.224 12.756 176.152 12.692C176.08 12.636 176.044 12.548 176.044 12.428V2.84ZM180.654 7.496C180.478 7.496 180.318 7.516 180.174 7.556C180.03 7.596 179.902 7.644 179.79 7.7C179.678 7.756 179.578 7.816 179.49 7.88C179.402 7.944 179.33 8 179.274 8.048C179.17 8.136 179.066 8.18 178.962 8.18C178.866 8.172 178.782 8.136 178.71 8.072C178.646 8.016 178.61 7.928 178.602 7.808C178.594 7.688 178.642 7.584 178.746 7.496C178.954 7.312 179.214 7.156 179.526 7.028C179.846 6.9 180.202 6.836 180.594 6.836C180.858 6.836 181.098 6.876 181.314 6.956C181.53 7.036 181.734 7.128 181.926 7.232C182.126 7.328 182.326 7.416 182.526 7.496C182.734 7.576 182.962 7.616 183.21 7.616C183.49 7.616 183.742 7.568 183.966 7.472C184.198 7.368 184.406 7.236 184.59 7.076C184.694 6.988 184.798 6.96 184.902 6.992C185.006 7.024 185.078 7.072 185.118 7.136C185.158 7.192 185.178 7.26 185.178 7.34C185.178 7.412 185.15 7.48 185.094 7.544C184.902 7.768 184.642 7.948 184.314 8.084C183.986 8.212 183.618 8.276 183.21 8.276C182.962 8.276 182.73 8.236 182.514 8.156C182.298 8.076 182.086 7.988 181.878 7.892C181.678 7.788 181.478 7.696 181.278 7.616C181.078 7.536 180.87 7.496 180.654 7.496ZM188.084 7.496C187.908 7.496 187.748 7.516 187.604 7.556C187.46 7.596 187.332 7.644 187.22 7.7C187.108 7.756 187.008 7.816 186.92 7.88C186.832 7.944 186.76 8 186.704 8.048C186.6 8.136 186.496 8.18 186.392 8.18C186.296 8.172 186.212 8.136 186.14 8.072C186.076 8.016 186.04 7.928 186.032 7.808C186.024 7.688 186.072 7.584 186.176 7.496C186.384 7.312 186.644 7.156 186.956 7.028C187.276 6.9 187.632 6.836 188.024 6.836C188.288 6.836 188.528 6.876 188.744 6.956C188.96 7.036 189.164 7.128 189.356 7.232C189.556 7.328 189.756 7.416 189.956 7.496C190.164 7.576 190.392 7.616 190.64 7.616C190.92 7.616 191.172 7.568 191.396 7.472C191.628 7.368 191.836 7.236 192.02 7.076C192.124 6.988 192.228 6.96 192.332 6.992C192.436 7.024 192.508 7.072 192.548 7.136C192.588 7.192 192.608 7.26 192.608 7.34C192.608 7.412 192.58 7.48 192.524 7.544C192.332 7.768 192.072 7.948 191.744 8.084C191.416 8.212 191.048 8.276 190.64 8.276C190.392 8.276 190.16 8.236 189.944 8.156C189.728 8.076 189.516 7.988 189.308 7.892C189.108 7.788 188.908 7.696 188.708 7.616C188.508 7.536 188.3 7.496 188.084 7.496ZM195.082 9.524C195.074 9.644 195.042 9.716 194.986 9.74C194.938 9.764 194.89 9.776 194.842 9.776C194.786 9.776 194.73 9.764 194.674 9.74C194.618 9.716 194.586 9.644 194.578 9.524L194.374 3.32C194.382 3.096 194.422 2.944 194.494 2.864C194.566 2.784 194.682 2.744 194.842 2.744C194.986 2.744 195.098 2.784 195.178 2.864C195.258 2.936 195.302 3.088 195.31 3.32L195.082 9.524ZM194.266 11.504C194.266 11.28 194.322 11.12 194.434 11.024C194.554 10.928 194.694 10.88 194.854 10.88C195.022 10.88 195.162 10.928 195.274 11.024C195.394 11.12 195.454 11.28 195.454 11.504C195.454 11.712 195.394 11.864 195.274 11.96C195.162 12.056 195.022 12.104 194.854 12.104C194.694 12.104 194.554 12.056 194.434 11.96C194.322 11.864 194.266 11.712 194.266 11.504Z" fill="black"/>
<path d="M243.58 86.336C243.972 86.336 244.328 86.304 244.648 86.24C244.968 86.176 245.24 86.072 245.464 85.928C245.688 85.776 245.86 85.584 245.98 85.352C246.1 85.112 246.16 84.82 246.16 84.476C246.16 84.108 246.092 83.804 245.956 83.564C245.82 83.324 245.636 83.136 245.404 83C245.172 82.856 244.904 82.756 244.6 82.7C244.296 82.636 243.976 82.604 243.64 82.604H243.46C243.364 82.604 243.28 82.576 243.208 82.52C243.136 82.464 243.1 82.376 243.1 82.256C243.1 82.128 243.136 82.04 243.208 81.992C243.28 81.936 243.364 81.908 243.46 81.908H243.652C243.972 81.9 244.264 81.864 244.528 81.8C244.792 81.728 245.02 81.628 245.212 81.5C245.404 81.364 245.552 81.196 245.656 80.996C245.76 80.796 245.812 80.56 245.812 80.288C245.812 79.704 245.628 79.276 245.26 79.004C244.9 78.724 244.36 78.584 243.64 78.584C243.192 78.584 242.828 78.636 242.548 78.74C242.268 78.836 242.048 78.964 241.888 79.124C241.728 79.276 241.616 79.444 241.552 79.628C241.496 79.804 241.468 79.976 241.468 80.144C241.468 80.232 241.444 80.32 241.396 80.408C241.348 80.496 241.256 80.54 241.12 80.54C240.944 80.54 240.828 80.504 240.772 80.432C240.724 80.36 240.7 80.244 240.7 80.084C240.7 79.892 240.74 79.672 240.82 79.424C240.9 79.168 241.048 78.928 241.264 78.704C241.48 78.472 241.78 78.28 242.164 78.128C242.556 77.968 243.06 77.888 243.676 77.888C244.068 77.888 244.44 77.936 244.792 78.032C245.144 78.12 245.452 78.256 245.716 78.44C245.98 78.624 246.188 78.86 246.34 79.148C246.5 79.436 246.58 79.772 246.58 80.156C246.58 80.684 246.46 81.124 246.22 81.476C245.988 81.828 245.596 82.08 245.044 82.232C245.356 82.28 245.628 82.372 245.86 82.508C246.092 82.644 246.288 82.812 246.448 83.012C246.608 83.212 246.728 83.44 246.808 83.696C246.888 83.944 246.928 84.204 246.928 84.476C246.928 84.956 246.84 85.36 246.664 85.688C246.496 86.016 246.264 86.28 245.968 86.48C245.672 86.68 245.324 86.824 244.924 86.912C244.524 87 244.092 87.044 243.628 87.044C242.996 87.044 242.472 86.972 242.056 86.828C241.64 86.692 241.308 86.516 241.06 86.3C240.82 86.084 240.648 85.848 240.544 85.592C240.448 85.336 240.4 85.092 240.4 84.86C240.4 84.54 240.516 84.38 240.748 84.38C240.932 84.38 241.052 84.42 241.108 84.5C241.172 84.572 241.204 84.676 241.204 84.812C241.204 84.996 241.24 85.18 241.312 85.364C241.392 85.54 241.524 85.7 241.708 85.844C241.892 85.988 242.136 86.104 242.44 86.192C242.744 86.288 243.124 86.336 243.58 86.336ZM252.241 87.044C251.777 87.044 251.361 86.996 250.993 86.9C250.633 86.804 250.325 86.648 250.069 86.432C249.821 86.216 249.629 85.936 249.493 85.592C249.365 85.248 249.301 84.828 249.301 84.332V80.564C249.301 80.076 249.369 79.664 249.505 79.328C249.641 78.984 249.833 78.704 250.081 78.488C250.337 78.272 250.645 78.116 251.005 78.02C251.373 77.924 251.785 77.876 252.241 77.876C252.697 77.876 253.109 77.928 253.477 78.032C253.845 78.128 254.157 78.284 254.413 78.5C254.677 78.716 254.877 79 255.013 79.352C255.157 79.696 255.229 80.116 255.229 80.612V84.32C255.213 84.808 255.133 85.224 254.989 85.568C254.845 85.912 254.645 86.192 254.389 86.408C254.133 86.632 253.821 86.792 253.453 86.888C253.093 86.992 252.689 87.044 252.241 87.044ZM254.437 80.588C254.421 80.236 254.373 79.936 254.293 79.688C254.213 79.432 254.085 79.224 253.909 79.064C253.741 78.904 253.521 78.788 253.249 78.716C252.977 78.636 252.641 78.596 252.241 78.596C251.841 78.596 251.501 78.636 251.221 78.716C250.949 78.796 250.729 78.916 250.561 79.076C250.393 79.236 250.269 79.444 250.189 79.7C250.117 79.948 250.081 80.244 250.081 80.588V84.344C250.081 84.688 250.117 84.984 250.189 85.232C250.269 85.48 250.393 85.688 250.561 85.856C250.729 86.016 250.949 86.136 251.221 86.216C251.501 86.296 251.841 86.336 252.241 86.336C253.025 86.336 253.585 86.168 253.921 85.832C254.265 85.496 254.437 85 254.437 84.344V80.588ZM260.714 87.044C260.25 87.044 259.834 86.996 259.466 86.9C259.106 86.804 258.798 86.648 258.542 86.432C258.294 86.216 258.102 85.936 257.966 85.592C257.838 85.248 257.774 84.828 257.774 84.332V80.564C257.774 80.076 257.842 79.664 257.978 79.328C258.114 78.984 258.306 78.704 258.554 78.488C258.81 78.272 259.118 78.116 259.478 78.02C259.846 77.924 260.258 77.876 260.714 77.876C261.17 77.876 261.582 77.928 261.95 78.032C262.318 78.128 262.63 78.284 262.886 78.5C263.15 78.716 263.35 79 263.486 79.352C263.63 79.696 263.702 80.116 263.702 80.612V84.32C263.686 84.808 263.606 85.224 263.462 85.568C263.318 85.912 263.118 86.192 262.862 86.408C262.606 86.632 262.294 86.792 261.926 86.888C261.566 86.992 261.162 87.044 260.714 87.044ZM262.91 80.588C262.894 80.236 262.846 79.936 262.766 79.688C262.686 79.432 262.558 79.224 262.382 79.064C262.214 78.904 261.994 78.788 261.722 78.716C261.45 78.636 261.114 78.596 260.714 78.596C260.314 78.596 259.974 78.636 259.694 78.716C259.422 78.796 259.202 78.916 259.034 79.076C258.866 79.236 258.742 79.444 258.662 79.7C258.59 79.948 258.554 80.244 258.554 80.588V84.344C258.554 84.688 258.59 84.984 258.662 85.232C258.742 85.48 258.866 85.688 259.034 85.856C259.202 86.016 259.422 86.136 259.694 86.216C259.974 86.296 260.314 86.336 260.714 86.336C261.498 86.336 262.058 86.168 262.394 85.832C262.738 85.496 262.91 85 262.91 84.344V80.588ZM274.047 77.84C274.047 77.72 274.083 77.632 274.155 77.576C274.227 77.512 274.319 77.48 274.431 77.48C274.543 77.48 274.635 77.512 274.707 77.576C274.787 77.632 274.827 77.72 274.827 77.84V81.944C274.827 82.064 274.787 82.156 274.707 82.22C274.635 82.276 274.543 82.304 274.431 82.304C274.319 82.304 274.227 82.276 274.155 82.22C274.083 82.156 274.047 82.064 274.047 81.944V77.84ZM266.991 86.648C266.991 86.744 267.007 86.808 267.039 86.84C267.079 86.872 267.131 86.888 267.195 86.888H274.863C274.959 86.888 275.039 86.916 275.103 86.972C275.175 87.036 275.211 87.124 275.211 87.236C275.211 87.348 275.175 87.432 275.103 87.488C275.039 87.552 274.959 87.584 274.863 87.584H267.075C266.883 87.584 266.727 87.56 266.607 87.512C266.495 87.472 266.407 87.416 266.343 87.344C266.287 87.272 266.251 87.184 266.235 87.08C266.219 86.984 266.211 86.88 266.211 86.768V85.712C266.211 85.6 266.219 85.496 266.235 85.4C266.251 85.296 266.287 85.208 266.343 85.136C266.407 85.064 266.495 85.008 266.607 84.968C266.727 84.92 266.883 84.896 267.075 84.896H273.867C273.931 84.896 273.979 84.88 274.011 84.848C274.051 84.816 274.071 84.752 274.071 84.656V83.972C274.071 83.876 274.051 83.812 274.011 83.78C273.979 83.748 273.931 83.732 273.867 83.732H266.559C266.463 83.732 266.379 83.704 266.307 83.648C266.243 83.584 266.211 83.496 266.211 83.384C266.211 83.272 266.243 83.188 266.307 83.132C266.379 83.068 266.463 83.036 266.559 83.036H273.987C274.179 83.036 274.331 83.06 274.443 83.108C274.563 83.148 274.651 83.204 274.707 83.276C274.771 83.348 274.811 83.436 274.827 83.54C274.843 83.636 274.851 83.74 274.851 83.852V84.776C274.851 84.888 274.843 84.996 274.827 85.1C274.811 85.196 274.771 85.28 274.707 85.352C274.651 85.424 274.563 85.484 274.443 85.532C274.331 85.572 274.179 85.592 273.987 85.592H267.195C267.131 85.592 267.079 85.608 267.039 85.64C267.007 85.672 266.991 85.736 266.991 85.832V86.648ZM265.695 79.34C265.695 78.756 265.919 78.308 266.367 77.996C266.815 77.684 267.423 77.528 268.191 77.528C268.967 77.528 269.579 77.684 270.027 77.996C270.483 78.308 270.711 78.756 270.711 79.34V80.276C270.711 80.86 270.483 81.308 270.027 81.62C269.579 81.932 268.967 82.088 268.191 82.088C267.423 82.088 266.815 81.932 266.367 81.62C265.919 81.308 265.695 80.86 265.695 80.276V79.34ZM266.475 79.94C266.475 80.252 266.515 80.504 266.595 80.696C266.683 80.88 266.803 81.024 266.955 81.128C267.107 81.232 267.287 81.304 267.495 81.344C267.703 81.376 267.935 81.392 268.191 81.392C268.447 81.392 268.679 81.376 268.887 81.344C269.103 81.304 269.287 81.232 269.439 81.128C269.599 81.024 269.719 80.88 269.799 80.696C269.887 80.504 269.931 80.252 269.931 79.94V79.676C269.931 79.364 269.887 79.116 269.799 78.932C269.719 78.74 269.599 78.592 269.439 78.488C269.287 78.384 269.103 78.316 268.887 78.284C268.679 78.244 268.447 78.224 268.191 78.224C267.935 78.224 267.703 78.244 267.495 78.284C267.287 78.316 267.107 78.384 266.955 78.488C266.803 78.592 266.683 78.74 266.595 78.932C266.515 79.116 266.475 79.364 266.475 79.676V79.94ZM277.277 79.712C277.277 79.424 277.329 79.152 277.433 78.896C277.537 78.64 277.689 78.416 277.889 78.224C278.097 78.032 278.345 77.88 278.633 77.768C278.929 77.656 279.269 77.6 279.653 77.6C280.037 77.6 280.377 77.656 280.673 77.768C280.969 77.88 281.217 78.032 281.417 78.224C281.625 78.416 281.781 78.64 281.885 78.896C281.997 79.152 282.053 79.424 282.053 79.712V85.448C282.053 85.736 281.997 86.008 281.885 86.264C281.781 86.52 281.625 86.744 281.417 86.936C281.217 87.128 280.969 87.28 280.673 87.392C280.377 87.504 280.037 87.56 279.653 87.56C279.269 87.56 278.929 87.504 278.633 87.392C278.345 87.28 278.097 87.128 277.889 86.936C277.689 86.744 277.537 86.52 277.433 86.264C277.329 86.008 277.277 85.736 277.277 85.448V79.712ZM278.057 85.112C278.057 85.736 278.197 86.184 278.477 86.456C278.757 86.728 279.149 86.864 279.653 86.864C280.165 86.864 280.561 86.728 280.841 86.456C281.129 86.184 281.273 85.736 281.273 85.112V80.048C281.273 79.424 281.129 78.976 280.841 78.704C280.561 78.432 280.165 78.296 279.653 78.296C279.149 78.296 278.757 78.432 278.477 78.704C278.197 78.976 278.057 79.424 278.057 80.048V85.112ZM285.521 77.84C285.521 77.72 285.557 77.632 285.629 77.576C285.701 77.512 285.793 77.48 285.905 77.48C286.017 77.48 286.109 77.512 286.181 77.576C286.261 77.632 286.301 77.72 286.301 77.84V87.428C286.301 87.548 286.261 87.636 286.181 87.692C286.109 87.756 286.017 87.788 285.905 87.788C285.793 87.788 285.701 87.756 285.629 87.692C285.557 87.636 285.521 87.548 285.521 87.428V77.84ZM293.815 77.972C293.815 78.084 293.779 78.172 293.707 78.236C293.643 78.292 293.563 78.32 293.467 78.32H291.439V82.82C291.439 83.236 291.503 83.628 291.631 83.996C291.759 84.356 291.935 84.7 292.159 85.028C292.383 85.348 292.647 85.656 292.951 85.952C293.255 86.248 293.579 86.54 293.923 86.828C294.019 86.908 294.071 87 294.079 87.104C294.087 87.208 294.059 87.304 293.995 87.392C293.931 87.48 293.835 87.528 293.707 87.536C293.587 87.544 293.471 87.5 293.359 87.404C292.855 86.98 292.403 86.528 292.003 86.048C291.611 85.568 291.299 85.076 291.067 84.572C290.859 85.076 290.563 85.576 290.179 86.072C289.803 86.576 289.359 87.044 288.847 87.476C288.735 87.58 288.615 87.624 288.487 87.608C288.367 87.592 288.275 87.54 288.211 87.452C288.147 87.364 288.123 87.268 288.139 87.164C288.163 87.06 288.219 86.964 288.307 86.876C288.627 86.604 288.927 86.316 289.207 86.012C289.495 85.716 289.747 85.4 289.963 85.064C290.179 84.728 290.347 84.376 290.467 84.008C290.595 83.632 290.659 83.236 290.659 82.82V78.32H288.631C288.535 78.32 288.451 78.292 288.379 78.236C288.315 78.172 288.283 78.084 288.283 77.972C288.283 77.86 288.315 77.776 288.379 77.72C288.451 77.656 288.535 77.624 288.631 77.624H293.467C293.563 77.624 293.643 77.656 293.707 77.72C293.779 77.776 293.815 77.86 293.815 77.972ZM299.095 82.292C299.095 82.404 299.059 82.492 298.987 82.556C298.923 82.612 298.843 82.64 298.747 82.64H296.983V87.428C296.983 87.548 296.943 87.636 296.863 87.692C296.791 87.756 296.699 87.788 296.587 87.788C296.475 87.788 296.383 87.756 296.311 87.692C296.239 87.636 296.203 87.548 296.203 87.428V77.84C296.203 77.72 296.239 77.632 296.311 77.576C296.383 77.512 296.475 77.48 296.587 77.48C296.699 77.48 296.791 77.512 296.863 77.576C296.943 77.632 296.983 77.72 296.983 77.84V81.944H298.747C298.843 81.944 298.923 81.976 298.987 82.04C299.059 82.096 299.095 82.18 299.095 82.292ZM304.99 87.068C304.99 87.18 304.954 87.264 304.882 87.32C304.818 87.384 304.738 87.416 304.642 87.416H301.366C301.174 87.416 301.018 87.388 300.898 87.332C300.786 87.276 300.698 87.204 300.634 87.116C300.578 87.028 300.542 86.928 300.526 86.816C300.51 86.704 300.502 86.592 300.502 86.48V77.948C300.502 77.828 300.538 77.74 300.61 77.684C300.682 77.62 300.774 77.588 300.886 77.588C300.998 77.588 301.09 77.62 301.162 77.684C301.242 77.74 301.282 77.828 301.282 77.948V86.48C301.282 86.576 301.298 86.64 301.33 86.672C301.37 86.704 301.422 86.72 301.486 86.72H304.642C304.738 86.72 304.818 86.748 304.882 86.804C304.954 86.868 304.99 86.956 304.99 87.068ZM310.594 82.292C310.594 82.404 310.558 82.492 310.486 82.556C310.422 82.612 310.342 82.64 310.246 82.64H308.53V87.428C308.53 87.548 308.49 87.636 308.41 87.692C308.338 87.756 308.246 87.788 308.134 87.788C308.022 87.788 307.93 87.756 307.858 87.692C307.786 87.636 307.75 87.548 307.75 87.428V77.84C307.75 77.72 307.786 77.632 307.858 77.576C307.93 77.512 308.022 77.48 308.134 77.48C308.246 77.48 308.338 77.512 308.41 77.576C308.49 77.632 308.53 77.72 308.53 77.84V81.944H310.246C310.342 81.944 310.422 81.976 310.486 82.04C310.558 82.096 310.594 82.18 310.594 82.292Z" fill="black"/>
<path fill-rule="evenodd" clip-rule="evenodd" d="M165.5 144.5C163.285 143.187 160.962 141.983 158.649 140.785C148.417 135.484 138.359 130.273 138.5 116C138.733 92.451 151.5 86.0001 165.5 86.0001C172.568 86.0001 177.194 86.8883 180.133 88.8771C179.599 89.2775 179.082 89.7234 178.586 90.2193C178.259 90.5471 177.973 90.8265 177.722 91.0719C176.009 92.7487 175.915 92.8415 175 95.9374C174.081 99.0467 173.655 105.903 177.194 107.607C181.118 109.496 183.772 105.354 184.359 102.029C184.954 98.6571 184.821 95.7529 183.309 92.5765C182.59 91.0677 181.561 89.8427 180.133 88.8771C185.502 84.8531 192.615 85.4137 197.63 85.8088C198.912 85.9099 200.057 86.0001 201 86.0001C208 86.0001 217 90.2193 225.754 95.9374C227.631 97.1629 229.546 99.121 230.961 101.98C227.067 104.407 223.96 107.187 223.281 112.041C222.903 114.738 222.742 117.201 225.754 118.296C230.745 120.111 232.843 106.909 231.846 104.083C231.581 103.333 231.284 102.633 230.961 101.98C231.199 101.832 231.439 101.685 231.683 101.539C239.75 96.6982 249.91 103.691 257.155 109.574C260.195 112.041 263.543 120.402 263.566 124.402C263.571 125.246 263.582 125.989 263.591 126.651C263.663 131.799 263.667 132.134 260.602 138.102C253.484 151.964 237.608 154.133 223.374 154.892C202.611 155.999 185.5 151.892 165.5 144.5Z" fill="#FAC59F"/>
<path d="M180.133 88.8771C177.194 86.8883 172.568 86.0001 165.5 86.0001C151.5 86.0001 138.733 92.451 138.5 116C138.359 130.273 148.417 135.484 158.649 140.785C160.962 141.983 163.285 143.187 165.5 144.5C185.5 151.892 202.611 155.999 223.374 154.892C237.608 154.133 253.484 151.964 260.602 138.102C263.667 132.134 263.663 131.799 263.591 126.651C263.582 125.989 263.571 125.246 263.566 124.402C263.543 120.402 260.195 112.041 257.155 109.574C249.91 103.691 239.75 96.6982 231.683 101.539C231.439 101.685 231.199 101.832 230.961 101.98M180.133 88.8771C185.502 84.8531 192.615 85.4137 197.63 85.8088C198.912 85.9099 200.057 86.0001 201 86.0001C208 86.0001 217 90.2193 225.754 95.9374C227.631 97.1629 229.546 99.121 230.961 101.98M180.133 88.8771C181.561 89.8427 182.59 91.0677 183.309 92.5765C184.821 95.7529 184.954 98.6571 184.359 102.029C183.772 105.354 181.118 109.496 177.194 107.607C173.655 105.903 174.081 99.0467 175 95.9374C175.915 92.8415 176.009 92.7487 177.722 91.0719C177.973 90.8265 178.259 90.5471 178.586 90.2193C179.082 89.7234 179.599 89.2775 180.133 88.8771ZM230.961 101.98C231.284 102.633 231.581 103.333 231.846 104.083C232.843 106.909 230.745 120.111 225.754 118.296C222.742 117.201 222.903 114.738 223.281 112.041C223.96 107.187 227.067 104.407 230.961 101.98Z" stroke="black" stroke-width="1.7" stroke-linecap="round"/>
<path d="M187.012 117.923C184.38 117.923 182.496 120.181 180.29 121.284" stroke="black" stroke-width="1.7" stroke-linecap="round"/>
<path d="M215.079 128.976C214.782 126.634 213.689 124.249 212.921 122.024" stroke="black" stroke-width="1.7" stroke-linecap="round"/>
<path d="M201.5 126.5L195 124V136.5H196.5L201.5 129.5V126.5Z" fill="white"/>
<path d="M194 124C195.596 124 201.493 125.185 201.562 127.034C201.704 130.873 199.18 133.195 197.174 136.113C195.134 139.08 194.42 133.169 194.42 132.029C194.42 129.854 194.023 127.304 194.84 125.26" stroke="black" stroke-width="1.7" stroke-linecap="round"/>
<path d="M139.131 107.197C135.882 107.197 132.346 103.427 131.522 100.573C130.806 98.0898 130.932 95.471 128.297 94.1137C126.562 93.2197 124.892 94.2789 124.01 95.8035C122.204 98.9262 122.486 103.033 123.923 106.231C125.846 110.511 129.498 113.005 134.052 113.666C134.566 113.741 137.426 114.43 137.74 113.801" stroke="black" stroke-width="1.7" stroke-linecap="round"/>
<path d="M261.312 137.786C262.882 137.786 264.257 138.685 265.541 139.524C268.495 141.453 269.717 144.034 268.245 147.393C266.822 150.638 262.631 153.706 258.985 153.408C256.667 153.219 255.287 151.027 254.225 149.218C253.699 148.321 253.347 147.03 254.36 146.649" stroke="black" stroke-width="1.7" stroke-linecap="round"/>
<path d="M170.067 146.476C169.976 147.299 169.559 148.212 169.43 149.064C169.001 151.891 168.451 154.894 169.652 157.609C170.505 159.538 172.21 162.157 174.76 161.519C176.197 161.16 176.896 159.12 177.116 157.85C177.414 156.129 177.872 154.447 178.149 152.723C178.217 152.301 178.838 148.715 178.062 148.909" stroke="black" stroke-width="1.7" stroke-linecap="round"/>
<path d="M206.218 155.34C206.611 159.273 207.135 164.396 210.775 166.733C213.317 168.365 216.939 167.979 218.268 165.111C219.286 162.913 218.46 160.343 217.515 158.294C217.183 157.576 217.199 155.529 216.472 155.166" stroke="black" stroke-width="1.7" stroke-linecap="round"/>
<path d="M59 291L1.5 239C1.5 245.833 3.7 261.2 12.5 268C21.3 274.8 47 288.5 59 291Z" fill="#B7DAEE"/>
<path d="M156.5 202C137.7 190.8 111 164 100 152L106.5 153.5L117 157.5L126 159L140 153.5V161.5L136.5 169.5L149.5 185.5L156.5 202Z" fill="#B7DAEE"/>
<path d="M60 291.5C50 285.5 16.5 254 1 239C1 191.4 23.3333 166.5 34.5 160C67.3 148.8 91.8333 150 100 152C114.8 170.8 143.833 193.167 156.5 202C168.9 246.4 137 278.167 119.5 288.5C87.9 298.5 66.6667 294.667 60 291.5Z" fill="white" fill-opacity="0.29" stroke="black"/>
<path d="M140.312 153.639C139.98 152.933 128.502 158.186 127.384 158.667C122.395 160.81 110.805 155.019 107.326 153.639C100.804 152.004 94.4178 150 88.194 150C71.537 150 53.9434 154.45 38.0482 158.818C18.3112 164.242 10.4288 189.386 4.45043 207.277C-0.351965 221.649 0.0670991 239.909 4.4163 254.373C9.04721 269.774 22.6126 274.38 38.0482 283.025C51.5439 290.583 69.3166 296.195 84.7155 294.781C102.251 293.17 113.253 293.004 127.077 283.025C136.934 275.909 144.403 267.784 149.999 257.675C157.897 243.408 159.032 228.952 158.254 213.395C157.757 203.478 154.177 193.65 148.907 184.895C147.21 182.076 135.355 171.131 137.071 168.389C139.279 164.861 142.088 157.425 140.312 153.639Z" stroke="black" stroke-width="2" stroke-linecap="round"/>
<path d="M1.5 239C4.9485 242.398 56.5489 291.602 61.0391 291.602" stroke="black" stroke-width="1.7" stroke-linecap="round"/>
<path d="M99.5547 152.266C109.717 164.736 122.657 175.366 135.253 186.187C140.345 190.562 145.435 194.989 150.854 199.081C152.146 200.057 154.402 201.743 156.195 202.109" stroke="black" stroke-width="1.7" stroke-linecap="round"/>
<path d="M69.7413 198.317C77.6366 190.615 78.0816 191.499 85.4411 183.57C87.8759 180.946 91.815 178.472 94.963 176.224C99.6376 176.224 104.265 179.311 106.506 181.912C110.95 187.069 116.716 191.077 121.358 196.08C123.615 198.511 125.09 199.996 125.09 202.261C125.09 204.527 105.16 226.225 102.653 228.326C98.7652 232.563 95.4006 237.396 91.3451 241.444C84.034 248.742 75.549 255.336 67.3766 261.5C62.1211 265.464 54.9561 273.833 49.2099 270.145C43.769 266.652 41.6445 265.456 36.4712 261.5C31.8349 257.955 24.9828 253.347 26.0289 246.458C26.9689 240.268 34.4344 232.608 38.5159 228.209C44.6086 221.644 51.0301 215.359 57.6691 209.436C62.6746 204.97 64.9068 203.034 69.7413 198.317Z" fill="#FFF2AD" stroke="black" stroke-width="1.7" stroke-linecap="round"/>
<path d="M48.3218 253.254C37.816 250.355 45.0622 241.4 49.6269 245.404C49.4694 245.001 48.6231 241.28 50.1554 239.662C53.0858 236.569 56.9096 242.294 57.6221 244.59C60.0274 252.34 55.9228 255.352 48.3218 253.254Z" fill="#FE6B57" stroke="black" stroke-width="1.7" stroke-linecap="round"/>
<path d="M59.0613 233.376C59.0613 230.994 62.1102 227.216 64.824 228.37C67.7079 229.595 64.382 234.626 66.1181 234.395C75.747 230.996 74.6142 242.805 68.4911 242.805" stroke="black" stroke-width="1.7" stroke-linecap="round"/>
<path d="M79.5157 231.988C76.3816 231.988 71.5541 228.521 71.2501 225.177C71.0826 223.335 71.5312 221.51 72.5597 221.51C75.1305 221.51 79.05 224.654 79.05 224.654C79.05 224.654 83.0302 231.988 79.5157 231.988Z" stroke="black" stroke-width="1.7" stroke-linecap="round"/>
<path d="M88.6409 223.915C85.5068 223.915 80.6793 220.449 80.3753 217.105C80.2077 215.263 80.6564 213.438 81.6849 213.438C84.2557 213.438 86.3733 214.779 88.1752 216.581C89.4621 217.868 92.1554 223.915 88.6409 223.915Z" stroke="black" stroke-width="1.7" stroke-linecap="round"/>
<path d="M87.0752 205.665C87.0752 210.676 91.4928 206.963 90.38 205.665C89.1211 204.196 87.0752 203.735 87.0752 205.665Z" stroke="black" stroke-width="1.7" stroke-linecap="round"/>
<path d="M90.933 199.844L94.6001 203.511" stroke="black" stroke-width="1.7" stroke-linecap="round"/>
<path d="M92.7393 209.838C94.2354 209.673 96.1879 204.608 97.8369 205.879C100.358 207.822 98.4429 209.21 96.5252 210.636C94.755 211.952 95.7525 213.259 97.1512 214.506C98.5717 215.773 101.871 211.429 102.935 210.902" stroke="black" stroke-width="1.7" stroke-linecap="round"/>
</svg>
