<svg width="50" height="50" viewBox="0 0 50 50" fill="none" xmlns="http://www.w3.org/2000/svg">
<path fill-rule="evenodd" clip-rule="evenodd" d="M4.57015 28.3578C3.83341 25.8453 3.98639 22.3403 6.61101 18.9929C9.75015 14.9893 12.7174 15.4079 14.8424 15.7076C15.1484 15.7508 15.4369 15.7915 15.706 15.8162C16.2249 15.9042 16.6834 15.9986 17.0823 16.1188C16.0453 17.1717 15.3978 18.6034 15.3616 20.4784C15.3375 21.7287 15.8241 22.5208 16.907 22.8722C18.2341 23.3028 18.8539 21.7834 19.0033 20.6967C19.1273 17.6733 18.422 16.8896 17.0823 16.1188C20.7285 12.4171 29.1905 13.399 32.8323 16.2664C32.3847 16.5874 32.026 16.961 31.8085 17.3831C31.0424 18.8704 30.8311 22.3234 33.0238 22.6249C34.4699 22.8237 34.5034 21.3359 34.1532 18.6346C33.939 17.8167 33.6638 16.9211 32.8323 16.2664C34.5239 15.0535 37.4854 14.5902 38.8952 15.0833C41.8747 16.1254 44.0414 19.6879 44.8356 22.9672C45.6148 26.1844 44.8356 32.7038 40 33.5C15.706 37.5 6.65496 35.4677 4.57015 28.3578Z" fill="#FAC59F"/>
<path d="M17.0823 16.1188C16.6834 15.9986 16.2249 15.9042 15.706 15.8162C15.4369 15.7915 15.1484 15.7508 14.8424 15.7076C12.7174 15.4079 9.75015 14.9893 6.61101 18.9929C3.98639 22.3403 3.83341 25.8453 4.57015 28.3578C6.65496 35.4677 15.706 37.5 40 33.5C44.8356 32.7038 45.6148 26.1844 44.8356 22.9672C44.0414 19.6879 41.8747 16.1254 38.8952 15.0833C37.4854 14.5902 34.5239 15.0535 32.8323 16.2664M17.0823 16.1188C20.7285 12.4171 29.1905 13.399 32.8323 16.2664M17.0823 16.1188C18.422 16.8896 19.1273 17.6733 19.0033 20.6967C18.8539 21.7834 18.2341 23.3028 16.907 22.8722C15.8241 22.5208 15.3375 21.7287 15.3616 20.4784C15.3978 18.6034 16.0453 17.1717 17.0823 16.1188ZM32.8323 16.2664C32.3847 16.5874 32.026 16.961 31.8085 17.3831C31.0424 18.8704 30.8311 22.3234 33.0238 22.6249C34.4699 22.8237 34.5034 21.3359 34.1532 18.6346C33.939 17.8167 33.6638 16.9211 32.8323 16.2664Z" stroke="black" stroke-width="1.3" stroke-linecap="round"/>
<path d="M21.0452 24.2524C21.0325 24.3668 20.951 24.4166 20.8627 24.4755C20.5745 24.6676 20.4011 25.2662 20.2422 25.5664" stroke="black" stroke-width="1.3" stroke-linecap="round"/>
<path d="M28.8562 24.1064C29.0464 24.2967 29.9272 25.2255 29.9512 25.2014" stroke="black" stroke-width="1.3" stroke-linecap="round"/>
<path d="M22.9434 27.6834C23.7388 28.8858 24.8447 29.2641 26.1148 28.5634C26.6556 28.2651 27.0767 27.9991 27.2504 27.3914" stroke="black" stroke-width="1.3" stroke-linecap="round"/>
</svg>
