<svg width="50" height="50" viewBox="0 0 50 50" fill="none" xmlns="http://www.w3.org/2000/svg">
<path d="M32.2362 14.4584C32.9909 14.7825 33.5938 15.2346 34.1207 15.8681L39 18.4439L39.5 28.6885L36 31.2749C35.9447 31.3029 35.8493 31.4384 35.8042 31.5001C35.5847 31.801 35.3226 32.0596 35.0134 32.2659C33.7941 33.0794 32.4683 33.6651 31.1087 34.211C29.6253 34.8066 28.0286 35.0512 26.5358 35.6155C26.1718 35.753 25.8312 35.9666 25.4552 36.0712C24.996 36.199 24.4995 36.2162 24.0301 36.2885C22.9198 36.4596 21.817 36.6637 20.7101 36.853C19.7116 37.0237 18.6962 36.9987 17.6876 36.9987C16.4974 36.9987 15.3066 36.9841 14.117 36.9457C12.9579 36.9084 11.7377 36.7733 10.6143 36.4846C9.63573 36.2332 8.79354 35.9035 8.03548 35.2021C7.13943 34.373 6.58979 33.4783 6.26323 32.3004C5.9328 31.1086 5.92841 29.9049 6.16666 28.6885C6.48017 27.0879 7.56923 25.924 8.86027 25.0316C9.40146 24.6575 10.154 24.4214 10.7813 24.2525C11.4937 24.0607 12.215 24.0266 12.9294 23.8815C13.4259 23.7807 13.6662 23.2856 13.9238 22.8746C14.1523 22.5101 14.2335 22.0907 14.425 21.7086C14.5055 21.5479 14.6385 21.4234 14.7173 21.2634C14.8439 21.0063 14.926 20.7261 15.0488 20.4658C15.2245 20.0932 15.421 19.7361 15.6047 19.3687C15.7551 19.0681 15.8365 18.7412 15.9963 18.4439C16.3368 17.81 16.7876 17.3243 17.2334 16.7691C17.7362 16.1431 18.4253 15.6204 19.0214 15.0838C19.5179 14.6367 20.1127 14.2054 20.684 13.8648C21.2743 13.5128 21.75 13.2358 22.4354 13.1255C23.2678 12.9915 24.1105 12.9895 24.9515 13.0089C26.7046 13.0493 28.4169 13.3369 30.096 13.8383C30.8062 14.0504 31.5541 14.1654 32.2362 14.4584Z" fill="white"/>
<path d="M24.5 20.5C24.5 18.5 24.8333 14.8333 24 13L22.4999 13.5L20.4999 14L16.9999 17L15.4999 20.5C15.6665 21.1667 14.7999 20.4 15.9999 24C17.1999 27.6 20.9999 28 22.4999 27C23.3332 25.6667 24.5 22.5 24.5 20.5Z" fill="#C79477" stroke="#C79377"/>
<path d="M34.1207 15.8681C33.5938 15.2346 32.9909 14.7825 32.2362 14.4584C31.5541 14.1654 30.8062 14.0504 30.096 13.8383C28.4169 13.3369 26.7046 13.0493 24.9515 13.0089C24.1105 12.9895 23.2678 12.9915 22.4354 13.1255C21.75 13.2358 21.2743 13.5128 20.684 13.8648C20.1127 14.2054 19.5179 14.6367 19.0214 15.0838C18.4253 15.6204 17.7362 16.1431 17.2334 16.7691C16.7876 17.3243 16.3368 17.81 15.9963 18.4439C15.8365 18.7412 15.7551 19.0681 15.6047 19.3687C15.421 19.7361 15.2245 20.0932 15.0488 20.4658C14.926 20.7261 14.8439 21.0063 14.7173 21.2634C14.6385 21.4234 14.5055 21.5479 14.425 21.7086C14.2335 22.0907 14.1523 22.5101 13.9238 22.8746C13.6662 23.2856 13.4259 23.7807 12.9294 23.8815C12.215 24.0266 11.4937 24.0607 10.7813 24.2525C10.154 24.4214 9.40146 24.6575 8.86027 25.0316C7.56923 25.924 6.48017 27.0879 6.16666 28.6885C5.92841 29.9049 5.9328 31.1086 6.26323 32.3004C6.58979 33.4783 7.13943 34.373 8.03548 35.2021C8.79354 35.9035 9.63573 36.2332 10.6143 36.4846C11.7377 36.7733 12.9579 36.9084 14.117 36.9457C15.3066 36.9841 16.4974 36.9987 17.6876 36.9987C18.6962 36.9987 19.7116 37.0237 20.7101 36.853C21.817 36.6637 22.9198 36.4596 24.0301 36.2885C24.4995 36.2162 24.996 36.199 25.4552 36.0712C25.8312 35.9666 26.1718 35.753 26.5358 35.6155C28.0286 35.0512 29.6253 34.8066 31.1087 34.211C32.4683 33.6651 33.7941 33.0794 35.0134 32.2659C35.3226 32.0596 35.5847 31.801 35.8042 31.5001C35.8493 31.4384 35.9447 31.303 36 31.2749" stroke="#191919" stroke-width="1.3" stroke-linecap="round"/>
<path d="M21.0148 22C21.0536 22.1358 20.967 22.9329 21.0149 23.0625" stroke="#191919" stroke-width="2.13" stroke-linecap="round"/>
<path d="M29 23V24.2016" stroke="#191919" stroke-width="2.13" stroke-linecap="round"/>
<path d="M12.8722 27.1594C12.5459 26.7243 11.7586 26.6043 11.2582 26.5658C10.9688 26.5435 10.4455 26.4687 10.202 26.6635C9.96151 26.8559 9.86478 27.1114 9.91827 27.4146C10.0316 28.0567 11.3048 28.085 11.7708 28.1226C12.1769 28.1555 12.8922 28.3465 13.268 28.094C13.4484 27.9728 13.6693 27.8972 13.69 27.6697C13.7285 27.2462 13.5825 26.9676 13.2156 26.7017C12.6247 26.2734 11.7259 26.1071 11.0126 26.0198C10.2668 25.9286 9.12412 26.1315 9.01944 27.0641C8.98614 27.3608 8.96266 27.8445 9.24117 28.0368C9.92768 28.5108 10.9925 28.3413 11.7755 28.3825C12.3418 28.4123 12.9334 28.4449 13.4969 28.3611C13.7349 28.3256 14.0703 28.2199 14.174 27.9748C14.2472 27.8018 14.2059 27.5337 14.2026 27.3502C14.199 27.1536 14.0608 27.0382 14.0309 26.859" stroke="#090909" stroke-width="2.13" stroke-linecap="round"/>
<path d="M41.972 18.0666C42.2796 18.4133 42.4474 18.8015 42.5388 19.2176C42.625 19.3157 42.707 19.4136 42.784 19.5096C44.1025 21.1539 44.1535 23.5656 43.8413 25.6484C43.645 26.9585 43.5077 28.2402 43.0157 29.4673C42.8536 29.8716 42.653 30.2283 42.4025 30.5682C42.0765 31.0107 41.746 31.0334 41.2581 30.9787C39.2558 30.7543 37.8311 28.9654 36.86 27.0852C36.1175 25.6474 35.5131 24.1747 35.2959 22.5106C35.2239 21.959 35.2414 21.4026 35.2414 20.8468C35.2414 20.724 35.2403 20.6007 35.2386 20.4771C35.2291 19.7847 35.2017 19.0819 35.2523 18.3962C35.3121 17.5857 35.5238 16.7292 36.1052 16.2131C36.4627 15.8958 37.0694 16.0016 37.4786 16.095C38.079 16.232 38.6609 16.3392 39.2471 16.549C39.7915 16.7438 40.2944 17.0117 40.8194 17.2674C41.2312 17.468 41.6493 17.7029 41.972 18.0666Z" fill="#C79477"/>
<path d="M35.3395 16.4619C34.6977 18.1056 35.0737 20.1351 35.5793 21.7549C35.7882 22.4242 35.9854 23.1063 36.206 23.7701C36.4265 24.4333 36.7765 25.0455 37.0998 25.6484C37.4555 26.3118 37.8127 26.9901 38.2089 27.6232C38.4629 28.0291 38.7032 28.4838 39.0236 28.8267C39.7006 29.551 42.0996 31.2492 42.3726 29.3398C42.6373 27.4878 42.593 25.5614 42.5987 23.6892C42.6016 22.7682 42.6478 21.8489 42.6478 20.9277C42.6478 19.8661 42.6743 18.8582 41.972 18.0666C41.6493 17.7029 41.2312 17.468 40.8194 17.2674C40.2944 17.0117 39.7915 16.7438 39.2471 16.549C38.6609 16.3392 38.079 16.232 37.4786 16.095C37.0694 16.0016 36.4627 15.8958 36.1052 16.2131C35.5238 16.7292 35.3121 17.5857 35.2523 18.3962C35.1927 19.2043 35.2414 20.0362 35.2414 20.8468C35.2414 21.4026 35.2239 21.959 35.2959 22.5106C35.5131 24.1747 36.1175 25.6474 36.86 27.0852C37.8311 28.9654 39.2558 30.7543 41.2581 30.9787C41.746 31.0334 42.0765 31.0107 42.4025 30.5682C42.653 30.2283 42.8536 29.8716 43.0157 29.4673C43.5077 28.2402 43.645 26.9585 43.8413 25.6484C44.1535 23.5656 44.1025 21.1539 42.784 19.5096C42.2426 18.8343 41.4527 18.0702 40.7076 17.7183C40.006 17.387 39.3786 16.8911 38.6612 16.5988C38.0954 16.3681 37.57 16.0638 36.9581 16.0172C36.6317 15.9924 36.3588 16.1837 36.2115 16.5179C35.4914 18.1512 36.0156 20.3879 36.593 21.9477C37.1236 23.3812 37.9793 24.8069 38.95 25.9034C39.5938 26.6306 40.4153 26.8168 41.2962 26.8488C41.7096 26.8639 42.179 26.866 42.547 26.6125C42.9467 26.337 42.9931 25.7874 43.002 25.3063C43.0313 23.7349 42.3957 22.4723 41.4788 21.3537C41.0688 20.8536 40.6546 20.3246 40.1899 19.889C40.0554 19.7629 39.863 19.7101 39.6912 19.7864C39.2147 19.9979 38.8819 20.7377 38.7729 21.2698C38.5638 22.2905 38.4733 23.6657 38.8111 24.6595C38.8898 24.8912 39.115 25.6154 39.4215 25.5862C39.871 25.5435 40.0967 24.8215 40.1545 24.4107C40.3674 22.8954 40.0113 21.3607 38.8329 20.4861C38.524 20.2568 37.781 19.889 37.405 20.0756C37.1827 20.1859 37.1551 20.5466 37.138 20.7784C37.0776 21.5945 37.1645 22.4807 37.4377 23.2414C37.6171 23.7408 37.8987 24.2806 38.3342 24.5382C38.9045 24.8755 39.5366 24.6495 39.7621 23.9473C40.16 22.708 39.4929 21.2373 39.0291 20.1471C38.5689 19.0655 38.065 17.6437 36.8491 17.6437C36.3749 17.6437 36.4704 18.9619 36.4676 19.2732C36.458 20.3553 36.4979 21.3292 36.86 22.3395" stroke="#C79377" stroke-width="2.13" stroke-linecap="round"/>
<path d="M33.5 20.5C33.5 17.5 34.0533 15.764 34.0533 15.2898C35.8242 15.2898 37.7276 15.6894 39.3882 16.2975C40.2811 16.6245 43.5001 17 44.5001 21C45.0001 24.5 43.1706 30.0917 42.9363 31.159L42.933 31.1655C42.4974 32.0051 41.9859 32.991 36.5 29.5C35 27.5 34.3942 26.2774 34 25C33.7712 24.2586 33.5 21.2787 33.5 20.5Z" stroke="black" stroke-width="1.3" stroke-linecap="round"/>
</svg>
