<svg width="26" height="26" viewBox="0 0 26 26" fill="none" xmlns="http://www.w3.org/2000/svg">
<circle cx="13" cy="13" r="12" fill="#545454" stroke="white"/>
<g clip-path="url(#clip0_347_1094)">
<path d="M16.4029 9.11107H16.1559L15.0942 7.7344C14.9574 7.55834 14.7823 7.41572 14.5822 7.31735C14.3821 7.21898 14.1622 7.16743 13.9392 7.16663H12.0609C11.8379 7.16743 11.6181 7.21898 11.418 7.31735C11.2178 7.41572 11.0427 7.55834 10.9059 7.7344L9.84425 9.11107H9.5973C8.95292 9.11184 8.33514 9.36817 7.87949 9.82382C7.42384 10.2795 7.16752 10.8972 7.16675 11.5416V16.4027C7.16752 17.0471 7.42384 17.6649 7.87949 18.1205C8.33514 18.5762 8.95292 18.8325 9.5973 18.8333H16.4029C17.0472 18.8325 17.665 18.5762 18.1207 18.1205C18.5763 17.6649 18.8326 17.0471 18.8334 16.4027V11.5416C18.8326 10.8972 18.5763 10.2795 18.1207 9.82382C17.665 9.36817 17.0472 9.11184 16.4029 9.11107ZM11.6759 8.32843C11.7214 8.26964 11.7798 8.222 11.8465 8.18915C11.9132 8.1563 11.9866 8.1391 12.0609 8.13885H13.9392C14.0136 8.13917 14.0869 8.1564 14.1536 8.18925C14.2203 8.2221 14.2787 8.26969 14.3242 8.32843L14.928 9.11107H11.0722L11.6759 8.32843ZM17.8612 16.4027C17.8612 16.7895 17.7075 17.1604 17.4341 17.4339C17.1606 17.7074 16.7896 17.8611 16.4029 17.8611H9.5973C9.21053 17.8611 8.8396 17.7074 8.56611 17.4339C8.29262 17.1604 8.13897 16.7895 8.13897 16.4027V11.5416C8.13897 11.1549 8.29262 10.7839 8.56611 10.5104C8.8396 10.2369 9.21053 10.0833 9.5973 10.0833H16.4029C16.7896 10.0833 17.1606 10.2369 17.4341 10.5104C17.7075 10.7839 17.8612 11.1549 17.8612 11.5416V16.4027Z" fill="white"/>
<path d="M13.0002 11.0555C12.4233 11.0555 11.8594 11.2266 11.3798 11.5471C10.9001 11.8676 10.5263 12.3231 10.3055 12.856C10.0848 13.389 10.027 13.9754 10.1395 14.5412C10.2521 15.107 10.5299 15.6267 10.9378 16.0346C11.3457 16.4425 11.8654 16.7203 12.4312 16.8328C12.9969 16.9454 13.5834 16.8876 14.1163 16.6669C14.6493 16.4461 15.1048 16.0723 15.4253 15.5926C15.7458 15.113 15.9168 14.5491 15.9168 13.9722C15.9161 13.1989 15.6085 12.4575 15.0617 11.9107C14.5149 11.3639 13.7735 11.0563 13.0002 11.0555ZM13.0002 15.9167C12.6156 15.9167 12.2397 15.8026 11.9199 15.589C11.6001 15.3753 11.3509 15.0716 11.2037 14.7163C11.0566 14.361 11.0181 13.9701 11.0931 13.5929C11.1681 13.2157 11.3533 12.8692 11.6252 12.5973C11.8972 12.3253 12.2436 12.1402 12.6208 12.0651C12.998 11.9901 13.389 12.0286 13.7443 12.1758C14.0996 12.3229 14.4033 12.5722 14.6169 12.8919C14.8306 13.2117 14.9446 13.5876 14.9446 13.9722C14.9446 14.4879 14.7397 14.9825 14.3751 15.3471C14.0104 15.7118 13.5159 15.9167 13.0002 15.9167Z" fill="white"/>
</g>
<defs>
<clipPath id="clip0_347_1094">
<rect width="11.6667" height="11.6667" fill="white" transform="translate(7.16675 7.16663)"/>
</clipPath>
</defs>
</svg>
