<svg width="50" height="50" viewBox="0 0 50 50" fill="none" xmlns="http://www.w3.org/2000/svg">
<path d="M16 34C17.406 35.1251 26.092 41.3617 35.9227 35.0638C42.5927 30.7907 43.7401 26.6177 44 21.01C43.8107 18.3667 42.9482 15.5274 41.5 13.5001C40.2635 11.7691 37.4382 10.2719 35.1864 9.76685C32.4015 9.14224 30 9.5 28.0001 11.0001C27.2884 11.5338 26.4251 12.3615 26 13C26.3621 13.2886 27.2358 14.1283 27.5 14.5C28.5458 15.9714 28.5 18.5 27 19.5C26 20 25.0736 18.5277 25 17.5C24.896 16.0478 25.1256 14.3135 26 13C24.0353 11.4337 21.9187 11.2086 19.5 11.5C15.6532 11.9635 12.2609 16.1504 11.1999 19.3737C10.0308 22.9252 10.4683 29.5731 16 34Z" fill="#FFBBBB"/>
<path d="M26 13C24.0353 11.4337 21.9187 11.2086 19.5 11.5C15.6532 11.9635 12.2609 16.1504 11.1999 19.3737C10.0308 22.9252 10.4683 29.5731 16 34C17.406 35.1251 26.092 41.3617 35.9227 35.0638C42.5927 30.7907 43.7401 26.6177 44 21.01C43.8107 18.3667 42.9482 15.5274 41.5 13.5001C40.2635 11.7691 37.4382 10.2719 35.1864 9.76685C32.4015 9.14224 30 9.5 28.0001 11.0001C27.2884 11.5338 26.4251 12.3615 26 13ZM26 13C25.1256 14.3135 24.896 16.0478 25 17.5C25.0736 18.5277 26 20 27 19.5C28.5 18.5 28.5458 15.9714 27.5 14.5C27.2358 14.1283 26.3621 13.2886 26 13Z" stroke="black" stroke-linecap="round"/>
<path d="M22.0595 23.1252C21.6587 23.5895 21.3323 24.0272 21.0001 24.618" stroke="black" stroke-linecap="round"/>
<path d="M33 21.1379C34.0041 21.3638 34.6091 21.7007 35 22.0339" stroke="black" stroke-linecap="round"/>
<path d="M33.1835 26.8119C32.9823 27.151 32.8394 27.7487 30.9658 28.7543C30.5289 28.7543 29.6097 28.5 29 28C28.3903 27.5 28 26 28.813 24.818C29.4411 23.9413 30.4784 23.1524 31.482 23.2254C31.9816 23.2617 34.3664 24.818 33.1835 26.8119Z" fill="#FE6B57"/>
<path d="M24.8213 28.762C25.3155 28.899 25.8184 29.0719 26.3297 29.1367C28 29.5 30 29.1367 30.9658 28.7543M30.9658 28.7543C32.8394 27.7487 32.9823 27.151 33.1835 26.8119C34.3664 24.818 31.9816 23.2617 31.482 23.2254C30.4784 23.1524 29.4411 23.9413 28.813 24.818C28 26 28.3903 27.5 29 28C29.6097 28.5 30.5289 28.7543 30.9658 28.7543Z" stroke="black" stroke-linecap="round"/>
<path d="M31.0291 25.9578C31.4195 26.5072 31.8344 27.0365 32.1137 27.6509" stroke="black" stroke-linecap="round"/>
<path d="M17.0371 32.2334C16.834 31.298 17.4942 29.941 18.2438 29.3397C19.0737 28.6738 20.8405 29.1394 21.3807 29.4486C21.9661 29.7836 22.3869 30.4417 22.6948 31.0082C23.0482 31.6583 23.6733 34.5481 20.6451 35C18.8183 34.9026 17.3667 33.7513 17.0371 32.2334Z" fill="white" stroke="black" stroke-linecap="round"/>
<path d="M41.9629 28.2334C42.166 27.298 41.5058 25.941 40.7562 25.3397C39.9263 24.6738 38.1595 25.1394 37.6193 25.4486C37.0339 25.7836 36.6131 26.4417 36.3052 27.0082C35.9518 27.6583 35.3267 30.5481 38.3549 31C40.1817 30.9026 41.6333 29.7513 41.9629 28.2334Z" fill="white" stroke="black" stroke-linecap="round"/>
<path d="M27 38.1931C27 39.3863 27.5139 40.0516 28.3613 40.5795C28.7999 40.7796 29.6808 41.0859 30.1765 40.9773C33.8067 40.1819 32.8992 37.3411 32.8992 37" stroke="black" stroke-linecap="round"/>
<path d="M37.8193 33.8674C38.6386 35.1239 39.5698 35.5152 40.7144 35.561C41.2565 35.5078 42.28 35.3002 42.6628 34.8875C45.4672 31.865 42.6789 29.4198 42.4447 29.0607" stroke="black" stroke-linecap="round"/>
<path d="M9.74728 31.2893C10.4124 31.1853 11.3548 31.0781 11.9999 31C11.9999 31.2893 11.3489 32.1678 11.2746 32.3082C10.8648 33.0831 10.9245 33.2111 10.5 33.5C10 33.8402 9.10474 34.0933 8.3464 33.335C7.84637 32.835 8.10567 32.3113 8.34613 32.0017C8.47383 31.8373 8.60295 31.6593 8.78004 31.5475C9.05176 31.3758 9.45109 31.3356 9.74728 31.2893Z" fill="#8BD0F6"/>
<path d="M8.49993 26.5C9.2129 27.1764 9.65622 27.6379 9.65607 28.1033C9.33821 28.3518 8 27.9999 7.56564 28.3925C6.5 28.9999 5.1997 28.633 4.50012 28.3925C3.67617 28.1092 2.99992 26.9999 3.49997 26C3.95179 25.0966 4.94334 24.9892 5.5 25C5.79562 25.0057 6.71767 25.3922 7 25.5C7.43319 25.6654 8.18243 26.1988 8.49993 26.5Z" fill="#8BD0F6"/>
</svg>
